<?xml version="1.0" encoding="utf-8"?>
<!-- Generator: Adobe Illustrator 16.0.0, SVG Export Plug-In . SVG Version: 6.00 Build 0)  -->
<!DOCTYPE svg PUBLIC "-//W3C//DTD SVG 1.1//EN" "http://www.w3.org/Graphics/SVG/1.1/DTD/svg11.dtd">
<svg version="1.1" xmlns="http://www.w3.org/2000/svg" xmlns:xlink="http://www.w3.org/1999/xlink" x="0px" y="0px" width="163.5px"
	 height="206.5px" viewBox="0 0 163.5 206.5" style="enable-background:new 0 0 163.5 206.5;" xml:space="preserve">
<style type="text/css">
<![CDATA[
	.st0{fill:#555555;}
	.st1{fill:#231F20;}
	.st2{fill:#242828;}
	.st3{fill:#299197;}
	.st4{fill:#29CCC4;}
	.st5{clip-path:url(#SVGID_2_);}
	.st6{clip-path:url(#SVGID_4_);}
	.st7{clip-path:url(#SVGID_6_);}
	.st8{fill:#C5C5C5;}
	.st9{fill:#FFFFFF;}
	.st10{fill:none;}
	.st11{display:inline;}
	.st12{fill:#6F6F6F;}
	.st13{fill:#036F7D;}
	.st14{display:none;}
]]>
</style>
<g id="Laag_1">
	<line class="st1" x1="109.7" y1="76.7" x2="109.7" y2="76.7"/>
	<polygon class="st12" points="112.5,100.5 54.8,128.9 112.5,156.3 112.5,178.4 28.4,138.5 28.3,116.7 86.9,87.9 28.4,60.2 
		28.4,38.1 112.5,78 	"/>
	<polygon class="st2" points="28.4,38.1 50.6,29.1 134.8,69 112.5,78 	"/>
	<polygon class="st0" points="112.5,100.5 134.8,91.4 134.8,69 112.5,78 	"/>
	<polygon class="st0" points="112.5,156.3 112.5,112.1 134.8,101.9 134.8,169.3 112.5,178.4 	"/>
	<g>
		<path class="st10" d="M94.3,6.8L78.8,23.4h14.7v5.7H70.3v-6.3L85.8,6.3H69.6V0.5h24.7V6.8z"/>
		<path class="st10" d="M94.3,184.7l-15.4,16.6h14.7v5.7H70.3v-6.3l15.5-16.5H69.6v-5.8h24.7V184.7z"/>
		<path class="st10" d="M22,115.9L5.4,100.5v14.7h-5.7V91.9H6l16.5,15.5V91.2h5.8v24.7H22z"/>
		<path class="st10" d="M156.9,115.9l-16.6-15.4v14.7h-5.7V91.9h6.3l16.5,15.5V91.2h5.8v24.7H156.9z"/>
	</g>
</g>
<g id="guide_1" class="st14">
</g>
<g id="guide_2" class="st14">
</g>
<g id="guide_3" class="st14">
</g>
<g id="guide_4" class="st14">
</g>
</svg>
