<?xml version="1.0" encoding="utf-8"?>
<!-- Generator: Adobe Illustrator 16.0.0, SVG Export Plug-In . SVG Version: 6.00 Build 0)  -->
<!DOCTYPE svg PUBLIC "-//W3C//DTD SVG 1.1//EN" "http://www.w3.org/Graphics/SVG/1.1/DTD/svg11.dtd">
<svg version="1.1" xmlns="http://www.w3.org/2000/svg" xmlns:xlink="http://www.w3.org/1999/xlink" x="0px" y="0px" width="338.9px"
	 height="206.1px" viewBox="0 0 338.9 206.1" style="enable-background:new 0 0 338.9 206.1;" xml:space="preserve">
<style type="text/css">
<![CDATA[
	.st0{fill:#555555;}
	.st1{fill:#231F20;}
	.st2{fill:#242828;}
	.st3{fill:#299197;}
	.st4{fill:#29CCC4;}
	.st5{clip-path:url(#SVGID_2_);}
	.st6{clip-path:url(#SVGID_4_);}
	.st7{clip-path:url(#SVGID_6_);}
	.st8{fill:#C5C5C5;}
	.st9{fill:#FFFFFF;}
	.st10{fill:none;}
	.st11{display:inline;}
	.st12{fill:#6F6F6F;}
	.st13{fill:#036F7D;}
	.st14{display:none;}
]]>
</style>
<g id="Laag_1">
	<g>
		<path class="st12" d="M171.9,125.1l15.4-16.6h-14.7v-5.7h23.3v6.3l-15.5,16.5h16.2v5.8h-24.7V125.1z"/>
		<path class="st12" d="M199,93.1c0-1.2,0.4-2.2,1.3-3c0.9-0.9,1.9-1.3,3.2-1.3s2.4,0.4,3.3,1.2c0.9,0.8,1.3,1.8,1.3,3.1
			c0,1.2-0.4,2.3-1.3,3.1c-0.9,0.8-2,1.2-3.3,1.2s-2.4-0.4-3.2-1.3C199.4,95.2,199,94.2,199,93.1z M200,102.8h7.2v28.6H200V102.8z"
			/>
		<path class="st12" d="M213,86.3h7.2v45.1H213V86.3z"/>
		<path class="st12" d="M226,86.3h7.2v45.1H226V86.3z"/>
		<path class="st12" d="M238,93.1c0-1.2,0.4-2.2,1.3-3c0.9-0.9,1.9-1.3,3.2-1.3c1.3,0,2.4,0.4,3.3,1.2c0.9,0.8,1.3,1.8,1.3,3.1
			c0,1.2-0.4,2.3-1.3,3.1c-0.9,0.8-2,1.2-3.3,1.2c-1.3,0-2.4-0.4-3.2-1.3C238.4,95.2,238,94.2,238,93.1z M239,102.8h7.2v28.6H239
			V102.8z"/>
		<path class="st12" d="M281,145.7h-7.2v-18.1h-0.1c-0.9,1.4-2.2,2.6-3.9,3.4c-1.7,0.8-3.5,1.3-5.6,1.3c-2.2,0-4.1-0.4-5.9-1.2
			c-1.7-0.8-3.2-1.9-4.4-3.3c-1.2-1.4-2.1-3-2.8-4.8c-0.7-1.8-1-3.8-1-5.9s0.3-4.1,1-5.9c0.7-1.8,1.6-3.4,2.9-4.8
			c1.2-1.4,2.7-2.4,4.4-3.2c1.7-0.8,3.6-1.2,5.6-1.2c1.3,0,2.5,0.1,3.5,0.4c1.1,0.3,2,0.7,2.8,1.1c0.8,0.5,1.5,1,2.1,1.5
			s1,1.1,1.4,1.7h0.2v-4h6.9V145.7z M257.4,117c0,1.1,0.2,2.2,0.5,3.3c0.3,1.1,0.8,2.1,1.5,3c0.7,0.9,1.5,1.6,2.6,2.1
			c1,0.6,2.2,0.8,3.6,0.8c1.3,0,2.5-0.3,3.5-0.8c1-0.5,1.9-1.2,2.7-2.1c0.7-0.9,1.3-1.9,1.7-3c0.4-1.1,0.6-2.2,0.6-3.3
			c0-1.1-0.2-2.2-0.6-3.3c-0.4-1.1-0.9-2.1-1.7-3c-0.7-0.9-1.6-1.6-2.7-2.1c-1-0.6-2.2-0.8-3.5-0.8c-1.4,0-2.6,0.3-3.6,0.8
			c-1,0.5-1.9,1.2-2.6,2.1c-0.7,0.9-1.2,1.9-1.5,3C257.6,114.8,257.4,115.9,257.4,117z"/>
		<path class="st12" d="M304.3,127.8h-0.2c-0.7,1.3-1.9,2.3-3.5,3.1c-1.6,0.8-3.4,1.2-5.4,1.2c-1.2,0-2.4-0.1-3.6-0.4
			c-1.3-0.3-2.4-0.8-3.5-1.5c-1.1-0.7-1.9-1.6-2.6-2.7c-0.7-1.1-1-2.5-1-4.2c0-2.1,0.6-3.9,1.8-5.1c1.2-1.3,2.8-2.2,4.7-2.9
			c1.9-0.7,4-1.1,6.3-1.3c2.3-0.2,4.6-0.3,6.8-0.3v-0.7c0-1.8-0.6-3.1-1.9-4c-1.3-0.9-2.8-1.3-4.6-1.3c-1.5,0-3,0.3-4.4,1
			c-1.4,0.6-2.5,1.4-3.5,2.3l-3.7-4.4c1.6-1.5,3.5-2.6,5.6-3.4c2.1-0.8,4.3-1.1,6.5-1.1c2.5,0,4.6,0.4,6.3,1.1
			c1.6,0.7,3,1.6,3.9,2.8c1,1.2,1.6,2.4,2,3.9c0.4,1.4,0.6,2.9,0.6,4.3v17.4h-6.7V127.8z M304.2,118.4h-1.6c-1.2,0-2.4,0.1-3.6,0.1
			c-1.3,0.1-2.4,0.3-3.5,0.7c-1.1,0.3-2,0.8-2.7,1.4c-0.7,0.6-1.1,1.5-1.1,2.5c0,0.7,0.2,1.2,0.4,1.7c0.3,0.5,0.7,0.8,1.2,1.1
			s1,0.5,1.6,0.6c0.6,0.1,1.2,0.2,1.8,0.2c2.5,0,4.3-0.7,5.6-2c1.3-1.3,1.9-3.1,1.9-5.4V118.4z"/>
	</g>
	<line class="st1" x1="110.3" y1="77.1" x2="110.3" y2="77.1"/>
	<polygon class="st12" points="113.1,100.9 55.3,129.3 113.1,156.7 113.1,178.8 29,138.9 28.9,117.1 87.5,88.4 29,60.6 29,38.5 
		113.1,78.4 	"/>
	<polygon class="st2" points="29,38.5 51.2,29.5 135.4,69.4 113.1,78.4 	"/>
	<polygon class="st0" points="113.1,100.9 135.4,91.9 135.4,69.4 113.1,78.4 	"/>
	<polygon class="st0" points="113.1,156.7 113.1,112.6 135.4,102.3 135.4,169.8 113.1,178.8 	"/>
	<path class="st10" d="M317.3,91.8l16.6,15.4V92.5h5.7v23.3h-6.3l-16.5-15.5v16.2h-5.8V91.8H317.3z"/>
	<path class="st10" d="M183.8,185.1l-15.4,16.6h14.7v5.7h-23.3v-6.3l15.5-16.5h-16.2v-5.8h24.7V185.1z"/>
	<path class="st10" d="M160.1,108.4L144.7,125h14.7v5.7h-23.3v-6.3l15.5-16.5h-16.2v-5.8h24.7V108.4z"/>
	<path class="st10" d="M172.5,112 M172.7,130.7 M172.5,125 M172.6,121.7l-3.2,3.3l3,0l0.1,5.7l-11.8-0.2l0.1-6.3l11.8-12.2
		L172.6,121.7 M172.6,102.1v5.8h-12.4v-5.8H172.6"/>
	<path class="st10" d="M22.6,116.5L6,101.1v14.7H0.3V92.5h6.3L23.1,108V91.8h5.8v24.7H22.6z"/>
	<path class="st10" d="M159.2,23.1l15.4-16.6h-14.7V0.8h23.3v6.3l-15.5,16.5h16.2v5.8h-24.7V23.1z"/>
	<path class="st10" d="M160.5,137.3"/>
</g>
<g id="guide_1" class="st14">
</g>
<g id="guide_2" class="st14">
</g>
<g id="guide_3" class="st14">
</g>
<g id="guide_4" class="st14">
</g>
</svg>
