<svg id="Laag_1" data-name="Laag 1" xmlns="http://www.w3.org/2000/svg" viewBox="0 0 338.94 206.14"><defs><style>.cls-1{fill:#29ccc4;}.cls-2{fill:#036f7d;}.cls-3{fill:#299197;}.cls-4{fill:none;}</style></defs><title>Zilliqa primary Logo_turqoise_white Bg</title><path class="cls-1" d="M171.25,124l15.44-16.57H172V101.7h23.25V108l-15.5,16.46h16.22v5.84H171.25Z"/><path class="cls-1" d="M198.38,92a4.12,4.12,0,0,1,1.28-3,4.4,4.4,0,0,1,3.25-1.28,4.73,4.73,0,0,1,3.31,1.22,4.18,4.18,0,0,1,0,6.14,4.73,4.73,0,0,1-3.31,1.22A4.4,4.4,0,0,1,199.66,95,4.12,4.12,0,0,1,198.38,92Zm1,9.72h7.15v28.62h-7.15Z"/><path class="cls-1" d="M212.39,85.24h7.15v45.07h-7.15Z"/><path class="cls-1" d="M225.39,85.24h7.15v45.07h-7.15Z"/><path class="cls-1" d="M237.37,92a4.12,4.12,0,0,1,1.28-3,4.4,4.4,0,0,1,3.25-1.28,4.73,4.73,0,0,1,3.31,1.22,4.18,4.18,0,0,1,0,6.14,4.73,4.73,0,0,1-3.31,1.22A4.4,4.4,0,0,1,238.65,95,4.12,4.12,0,0,1,237.37,92Zm1,9.72h7.15v28.62h-7.15Z"/><path class="cls-1" d="M280.36,144.62H273.2V126.5h-.12a9.51,9.51,0,0,1-3.91,3.4,12.41,12.41,0,0,1-5.57,1.25,13.61,13.61,0,0,1-5.87-1.22,13.46,13.46,0,0,1-4.41-3.28,14.52,14.52,0,0,1-2.8-4.83,17.58,17.58,0,0,1-1-5.93,16.86,16.86,0,0,1,1-5.9,14.4,14.4,0,0,1,2.86-4.77,13.35,13.35,0,0,1,10-4.35,13,13,0,0,1,3.55.45,13.6,13.6,0,0,1,2.83,1.13,9.31,9.31,0,0,1,2.12,1.55,10.27,10.27,0,0,1,1.4,1.7h.18v-4h6.86Zm-23.55-28.74a11.44,11.44,0,0,0,.51,3.34,9.19,9.19,0,0,0,1.52,3,7.94,7.94,0,0,0,2.56,2.15,8.22,8.22,0,0,0,7.15,0,8.64,8.64,0,0,0,2.65-2.12,9.2,9.2,0,0,0,1.67-3,10.05,10.05,0,0,0,.57-3.31,10.32,10.32,0,0,0-.57-3.34,9.17,9.17,0,0,0-1.67-3,9,9,0,0,0-2.65-2.15,7.31,7.31,0,0,0-3.52-.83,7.78,7.78,0,0,0-3.64.81,7.63,7.63,0,0,0-2.56,2.12,9.26,9.26,0,0,0-1.52,3A11.16,11.16,0,0,0,256.81,115.89Z"/><path class="cls-1" d="M303.73,126.68h-.18a8,8,0,0,1-3.46,3.13,11.74,11.74,0,0,1-5.43,1.22,15.54,15.54,0,0,1-3.61-.45,10.73,10.73,0,0,1-3.46-1.49,8.66,8.66,0,0,1-2.62-2.74,7.89,7.89,0,0,1-1-4.2,7.13,7.13,0,0,1,1.82-5.13,11.78,11.78,0,0,1,4.68-2.92,26.41,26.41,0,0,1,6.35-1.34q3.49-.33,6.83-.33v-.72a4.42,4.42,0,0,0-1.94-4,8.19,8.19,0,0,0-4.62-1.28,10.35,10.35,0,0,0-4.35,1,11.74,11.74,0,0,0-3.46,2.32l-3.7-4.35a16.14,16.14,0,0,1,5.63-3.4,19.23,19.23,0,0,1,6.47-1.13,15.91,15.91,0,0,1,6.29,1.07,10.25,10.25,0,0,1,3.9,2.8,10,10,0,0,1,2,3.88,16.81,16.81,0,0,1,.57,4.29v17.41h-6.68Zm-.12-9.42H302q-1.73,0-3.64.15a15.84,15.84,0,0,0-3.52.65,7.5,7.5,0,0,0-2.68,1.43,3.17,3.17,0,0,0-1.07,2.53,3.06,3.06,0,0,0,.45,1.7,3.44,3.44,0,0,0,1.16,1.1,5.17,5.17,0,0,0,1.61.6,9.08,9.08,0,0,0,1.79.18,7.46,7.46,0,0,0,5.61-2,7.39,7.39,0,0,0,1.91-5.37Z"/><polygon class="cls-1" points="112.5 99.81 54.73 128.22 112.5 155.62 112.5 177.71 28.35 137.81 28.3 116.05 86.85 87.27 28.35 59.54 28.35 37.45 112.5 77.35 112.5 99.81"/><polygon class="cls-2" points="28.35 37.45 50.59 28.43 134.74 68.33 112.5 77.35 28.35 37.45"/><polygon class="cls-3" points="112.5 99.81 134.74 90.79 134.74 68.33 112.5 77.35 112.5 99.81"/><polygon class="cls-3" points="112.5 155.62 112.5 111.46 134.74 101.24 134.74 168.69 112.5 177.71 112.5 155.62"/><path class="cls-4" d="M316.64,90.73l16.57,15.44V91.44h5.72V114.7h-6.32L316.17,99.2v16.22h-5.84V90.73Z"/><path class="cls-4" d="M183.23,184l-15.44,16.57h14.73v5.72H159.26V200l15.5-16.46H158.54v-5.84h24.68Z"/><path class="cls-4" d="M159.5,107.3l-15.44,16.57h14.73v5.72H135.54v-6.32L151,106.82H134.82V101H159.5Z"/><path class="cls-4" d="M171.9,110.94m.14,18.66-.19-5.72.1-3.3-3.21,3.34,3,0,.1,5.73-11.76-.18.1-6.32L172,111l-.09,9.55m0-19.6v5.84H159.57V101h12.38"/><path class="cls-4" d="M22,115.41,5.4,100V114.7H-.32V91.44H6l16.46,15.5V90.73H28.3v24.68Z"/><path class="cls-4" d="M158.54,22,174,5.47H159.26V-.26h23.25V6.06L167,22.52h16.22v5.84H158.54Z"/></svg>