<svg id="Layer_1" data-name="Layer 1" xmlns="http://www.w3.org/2000/svg" xmlns:xlink="http://www.w3.org/1999/xlink" viewBox="0 0 380.51 171.44"><defs><style>.cls-1{fill:none;}.cls-2{fill:#fff;}.cls-3{fill:#231f20;}.cls-4{clip-path:url(#clip-path);}</style><clipPath id="clip-path"><path class="cls-1" d="M120.26,75.54V56L49.07,21.94l-19.6,8.53V50.15L76.71,72.77l-47.25,23v19.46L101,149.16l19.22-8.52V82.11l-20.4,9.06v37L56,107.09l45.63-23.25Zm-18,5.37V65.75l15.6-7.1V74Zm14-24.15-15.14,6.89L33.55,31.27,49,24.55Zm-14,36,15.6-6.93v53.3L102.26,146V92.72Zm-2.4,38.12V146l-68-32.22V97.29L82.23,72.75,31.86,48.64V33.12l68,32.61V82L50.56,107.15Z"/></clipPath></defs><title>powered by zilliqa logo</title><rect class="cls-2" width="380.51" height="171.44" rx="20" ry="20"/><path class="cls-3" d="M169.6,38.41h6.51c4.55,0,7.36,2,7.36,6s-2.81,6-7.36,6h-4.24v10.4H169.6Zm2.27,9.89h3.67c4.08,0,5.47-1.77,5.47-3.91s-1.39-3.89-5.47-3.89h-3.67Z"/><path class="cls-3" d="M194.07,61.17a7.78,7.78,0,1,1,7.87-7.78A7.55,7.55,0,0,1,194.07,61.17Zm0-13.66c-3.42,0-5.57,2.56-5.57,5.88s2.15,5.88,5.57,5.88,5.59-2.56,5.59-5.88S197.51,47.51,194.07,47.51Z"/><path class="cls-3" d="M206.36,46l3.42,12h.06l3.95-12h2.15l3.95,12H220l3.42-12h2.46l-4.67,14.79h-2.34L214.9,48.65h-.07l-3.91,12.14h-2.34L203.9,46Z"/><path class="cls-3" d="M230,54a5.52,5.52,0,0,0,10.18,2.75L241.8,58a7.72,7.72,0,0,1-6.35,3.13,7.51,7.51,0,0,1-7.65-7.78,7.47,7.47,0,0,1,7.46-7.77c4.48,0,7.08,3.35,7.08,7.39v1Zm10.05-1.7a4.47,4.47,0,0,0-4.8-4.75c-2.72,0-5.19,2.31-5.19,4.75Z"/><path class="cls-3" d="M246.35,50.61c0-1.33-.06-2.46-.12-4.61h2.05v2.75h.06a4.87,4.87,0,0,1,4.74-3.13,5.48,5.48,0,0,1,1.55.19l-.41,2a3.61,3.61,0,0,0-1.2-.16,4.63,4.63,0,0,0-4.58,4.75v8.34h-2.09Z"/><path class="cls-3" d="M257.51,54a5.52,5.52,0,0,0,10.18,2.75L269.3,58A7.72,7.72,0,0,1,263,61.17a7.51,7.51,0,0,1-7.65-7.78,7.47,7.47,0,0,1,7.46-7.77c4.49,0,7.08,3.35,7.08,7.39v1Zm10.05-1.7a4.47,4.47,0,0,0-4.8-4.75c-2.72,0-5.19,2.31-5.19,4.75Z"/><path class="cls-3" d="M288.39,60.79h-2.08V58.32h-.07a7.06,7.06,0,0,1-5.75,2.85,7.78,7.78,0,1,1,0-15.55,7,7,0,0,1,5.75,2.84h.07V36.89h2.08Zm-7.9-1.52a5.88,5.88,0,1,0,0-11.76c-3.44,0-5.59,2.56-5.59,5.88S277.05,59.27,280.49,59.27Z"/><path class="cls-3" d="M301.74,36.89h2.08V48.46h.07a7,7,0,0,1,5.75-2.84,7.78,7.78,0,1,1,0,15.55,7.06,7.06,0,0,1-5.75-2.85h-.07v2.47h-2.08Zm7.9,10.62a5.88,5.88,0,1,0,0,11.76c3.44,0,5.59-2.56,5.59-5.88S313.08,47.51,309.64,47.51Z"/><path class="cls-3" d="M326.55,58.23,331.07,46h2.53l-7.4,18.64c-.88,2.28-2.08,3.73-4.64,3.73a6.66,6.66,0,0,1-1.93-.22l.22-2a3.33,3.33,0,0,0,1.58.35c1.45,0,2.21-1,2.84-2.66L325.35,61l-6.07-15h2.62Z"/><path class="cls-3" d="M169.6,119.59l17.31-18.67H170.5V94.51h26.07v7.09l-17.42,18.55h18.32v6.52H169.71v-7.08Z"/><path class="cls-3" d="M200.17,83.61a5,5,0,0,1,5.06-4.84,5.58,5.58,0,0,1,3.71,1.35,4.65,4.65,0,0,1,.22,6.63l-.22.23a5.08,5.08,0,0,1-3.71,1.35,4.76,4.76,0,0,1-3.6-1.46A4.07,4.07,0,0,1,200.17,83.61Zm1.13,10.9h8v32.16h-8Z"/><path class="cls-3" d="M215.91,76h8v50.71h-8Z"/><path class="cls-3" d="M230.52,76h8v50.71h-8Z"/><path class="cls-3" d="M244,83.61a5,5,0,0,1,5.05-4.84,5.58,5.58,0,0,1,3.71,1.35,4.65,4.65,0,0,1,.23,6.63l-.23.23a5.08,5.08,0,0,1-3.71,1.35,4.75,4.75,0,0,1-3.59-1.46A4.07,4.07,0,0,1,244,83.61Zm1.12,10.9h8v32.16h-8Z"/><path class="cls-3" d="M292.34,142.75h-8.1V122.4h-.11a10.28,10.28,0,0,1-4.38,3.82,13.26,13.26,0,0,1-6.3,1.35,17.09,17.09,0,0,1-6.63-1.35,14.75,14.75,0,0,1-4.94-3.71,17.2,17.2,0,0,1-3.15-5.4,20.18,20.18,0,0,1,0-13.26,15.25,15.25,0,0,1,14.5-10.24,14.1,14.1,0,0,1,7.08,1.69,7.24,7.24,0,0,1,2.36,1.8A13.19,13.19,0,0,1,284.24,99h.23v-4.5h7.75Zm-26.53-32.27a13.69,13.69,0,0,0,.56,3.71,9.47,9.47,0,0,0,1.69,3.37A10.44,10.44,0,0,0,271,120a9.09,9.09,0,0,0,8,0,8.46,8.46,0,0,0,2.92-2.36,12.24,12.24,0,0,0,1.91-3.38,10.75,10.75,0,0,0,.68-3.71,10.38,10.38,0,0,0-.68-3.71,9.83,9.83,0,0,0-1.91-3.37A10.32,10.32,0,0,0,279,101a6.94,6.94,0,0,0-3.93-.89,8.3,8.3,0,0,0-4,.89,8.56,8.56,0,0,0-2.92,2.37,9.47,9.47,0,0,0-1.69,3.37,13.69,13.69,0,0,0-.56,3.71Z"/><path class="cls-3" d="M318.53,122.62h-.23a8,8,0,0,1-3.93,3.49,12.66,12.66,0,0,1-6.07,1.35,25.35,25.35,0,0,1-4.05-.45,13.32,13.32,0,0,1-3.93-1.69,8.49,8.49,0,0,1-2.93-3,8.76,8.76,0,0,1-1.12-4.73,8.21,8.21,0,0,1,2-5.73,13.5,13.5,0,0,1,5.29-3.26,26.2,26.2,0,0,1,7.19-1.46c2.59-.23,5.17-.34,7.64-.34V106a5,5,0,0,0-2.13-4.5,9.52,9.52,0,0,0-5.17-1.46,12.63,12.63,0,0,0-4.95,1.13,13.2,13.2,0,0,0-3.93,2.58l-4.16-4.83a17.1,17.1,0,0,1,6.29-3.82,23.13,23.13,0,0,1,7.31-1.24,17.18,17.18,0,0,1,7.08,1.24,12,12,0,0,1,4.38,3.14,12.37,12.37,0,0,1,2.25,4.39,17.29,17.29,0,0,1,.68,4.83V127h-7.53Zm-.12-10.57h-1.8a23.87,23.87,0,0,0-4,.23,15.23,15.23,0,0,0-3.94.79,9.71,9.71,0,0,0-3,1.57,3.82,3.82,0,0,0-1.24,2.81,2.93,2.93,0,0,0,.57,1.91,3.56,3.56,0,0,0,1.34,1.24,5,5,0,0,0,1.8.67,11.69,11.69,0,0,0,2,.23,7.63,7.63,0,0,0,8.43-8.32Z"/><g class="cls-4"><polygon points="98.34 145.97 99.88 145.01 99.88 145.97 98.34 145.97"/><polygon points="95.94 145.97 99.88 143.51 99.88 145.01 98.34 145.97 95.94 145.97"/><polygon points="93.53 145.97 99.88 142.01 99.88 143.51 95.94 145.97 93.53 145.97"/><polygon points="91.13 145.97 99.88 140.51 99.88 142.01 93.53 145.97 91.13 145.97"/><polygon points="88.73 145.97 99.88 139.01 99.88 140.51 91.13 145.97 88.73 145.97"/><polygon points="86.32 145.97 99.88 137.51 99.88 139.01 88.73 145.97 86.32 145.97"/><polygon points="83.93 145.97 99.88 136.01 99.88 137.51 86.32 145.97 83.93 145.97"/><polygon points="81.53 145.97 99.88 134.51 99.88 136.01 83.93 145.97 81.53 145.97"/><polygon points="79.12 145.97 99.88 133.01 99.88 134.51 81.53 145.97 79.12 145.97"/><polygon points="76.72 145.97 99.88 131.51 99.88 133.01 79.12 145.97 76.72 145.97"/><polygon points="74.32 145.97 99.88 130.01 99.88 131.51 76.72 145.97 74.32 145.97"/><polygon points="71.92 145.97 99.88 128.52 99.88 130.01 74.32 145.97 71.92 145.97"/><polygon points="69.51 145.97 99.88 127.02 99.88 128.52 71.92 145.97 69.51 145.97"/><polygon points="67.11 145.97 99.88 125.52 99.88 127.02 69.51 145.97 67.11 145.97"/><polygon points="64.71 145.97 99.88 124.02 99.88 125.52 67.11 145.97 64.71 145.97"/><polygon points="62.3 145.97 99.88 122.52 99.88 124.02 64.71 145.97 62.3 145.97"/><polygon points="59.91 145.97 99.88 121.02 99.88 122.52 62.3 145.97 59.91 145.97"/><polygon points="57.51 145.97 99.88 119.53 99.88 121.02 59.91 145.97 57.51 145.97"/><polygon points="55.1 145.97 99.88 118.02 99.88 119.53 57.51 145.97 55.1 145.97"/><polygon points="52.7 145.97 99.88 116.52 99.88 118.02 55.1 145.97 52.7 145.97"/><polygon points="51.64 145.97 51.26 145.38 99.88 115.03 99.88 116.52 52.7 145.97 51.64 145.97"/><polygon points="51.26 145.38 50.59 144.29 99.88 113.53 99.88 115.03 51.26 145.38"/><polygon points="50.59 144.29 49.91 143.22 99.88 112.02 99.88 113.53 50.59 144.29"/><polygon points="49.91 143.22 49.23 142.14 99.88 110.53 99.88 112.02 49.91 143.22"/><polygon points="49.23 142.14 48.56 141.07 99.88 109.03 99.88 110.53 49.23 142.14"/><polygon points="48.56 141.07 47.89 139.98 99.88 107.52 99.88 109.03 48.56 141.07"/><polygon points="47.89 139.98 47.21 138.9 99.88 106.03 99.88 107.52 47.89 139.98"/><polygon points="47.21 138.9 46.53 137.83 99.88 104.52 99.88 106.03 47.21 138.9"/><polygon points="46.53 137.83 45.86 136.75 99.88 103.03 99.88 104.52 46.53 137.83"/><polygon points="45.86 136.75 45.19 135.67 99.88 101.53 99.88 103.03 45.86 136.75"/><polygon points="45.19 135.67 44.51 134.59 99.88 100.03 99.88 101.53 45.19 135.67"/><polygon points="44.51 134.59 43.83 133.52 99.88 98.53 99.88 100.03 44.51 134.59"/><polygon points="43.83 133.52 43.16 132.43 99.88 97.03 99.88 98.53 43.83 133.52"/><polygon points="43.16 132.43 42.48 131.36 99.88 95.53 99.88 97.03 43.16 132.43"/><polygon points="42.48 131.36 41.81 130.28 99.88 94.03 99.88 95.53 42.48 131.36"/><polygon points="41.81 130.28 41.13 129.21 99.88 92.53 99.88 94.03 41.81 130.28"/><polygon points="41.13 129.21 40.46 128.12 99.88 91.03 99.88 92.53 41.13 129.21"/><polygon points="40.46 128.12 39.78 127.05 99.88 89.53 99.88 91.03 40.46 128.12"/><polygon points="39.78 127.05 39.11 125.97 99.88 88.03 99.88 89.53 39.78 127.05"/><polygon points="39.11 125.97 38.44 124.89 99.88 86.53 99.88 88.03 39.11 125.97"/><polygon points="38.44 124.89 37.76 123.81 99.88 85.03 99.88 86.53 38.44 124.89"/><polygon points="37.76 123.81 37.08 122.73 99.88 83.53 99.88 85.03 37.76 123.81"/><polygon points="37.08 122.73 36.41 121.66 99.88 82.03 99.88 83.53 37.08 122.73"/><polygon points="36.41 121.66 35.74 120.57 99.88 80.53 99.88 82.03 36.41 121.66"/><polygon points="35.74 120.57 35.05 119.5 99.88 79.03 99.88 80.53 35.74 120.57"/><polygon points="35.05 119.5 34.38 118.42 99.88 77.53 99.88 79.03 35.05 119.5"/><polygon points="34.38 118.42 33.71 117.34 99.88 76.03 99.88 77.53 34.38 118.42"/><polygon points="33.71 117.34 33.03 116.26 99.88 74.53 99.88 76.03 33.71 117.34"/><polygon points="33.03 116.26 32.35 115.19 99.88 73.04 99.88 74.53 33.03 116.26"/><polygon points="32.35 115.19 31.86 114.4 31.86 114 99.88 71.54 99.88 73.04 32.35 115.19"/><polygon points="31.86 112.42 99.88 69.96 99.88 71.54 31.86 114 31.86 112.42"/><polygon points="31.86 110.84 99.88 68.38 99.88 69.96 31.86 112.42 31.86 110.84"/><polygon points="31.86 109.27 99.88 66.81 99.88 68.38 31.86 110.84 31.86 109.27"/><polygon points="31.86 107.69 99.88 65.23 99.88 66.81 31.86 109.27 31.86 107.69"/><polygon points="31.86 106.12 99.22 64.06 99.88 65.09 99.88 65.23 31.86 107.69 31.86 106.12"/><polygon points="31.86 104.54 98.52 62.92 99.22 64.06 31.86 106.12 31.86 104.54"/><polygon points="31.86 102.97 97.81 61.79 98.52 62.92 31.86 104.54 31.86 102.97"/><polygon points="31.86 101.39 97.1 60.66 97.81 61.79 31.86 102.97 31.86 101.39"/><polygon points="31.86 99.82 96.39 59.52 97.1 60.66 31.86 101.39 31.86 99.82"/><polygon points="31.86 98.24 95.68 58.39 96.39 59.52 31.86 99.82 31.86 98.24"/><polygon points="31.86 96.66 94.97 57.26 95.68 58.39 31.86 98.24 31.86 96.66"/><polygon points="31.86 95.09 94.27 56.13 94.97 57.26 31.86 96.66 31.86 95.09"/><polygon points="31.86 93.51 93.55 55 94.27 56.13 31.86 95.09 31.86 93.51"/><polygon points="31.86 91.94 92.84 53.86 93.55 55 31.86 93.51 31.86 91.94"/><polygon points="31.86 90.36 92.14 52.73 92.84 53.86 31.86 91.94 31.86 90.36"/><polygon points="31.86 88.78 91.43 51.6 92.14 52.73 31.86 90.36 31.86 88.78"/><polygon points="31.86 87.21 90.71 50.46 91.43 51.6 31.86 88.78 31.86 87.21"/><polygon points="31.86 85.63 90 49.33 90.71 50.46 31.86 87.21 31.86 85.63"/><polygon points="31.86 84.05 89.3 48.2 90 49.33 31.86 85.63 31.86 84.05"/><polygon points="31.86 82.48 88.59 47.06 89.3 48.2 31.86 84.05 31.86 82.48"/><polygon points="31.86 80.9 87.88 45.93 88.59 47.06 31.86 82.48 31.86 80.9"/><polygon points="31.86 79.32 87.17 44.8 87.88 45.93 31.86 80.9 31.86 79.32"/><polygon points="31.86 77.75 86.46 43.66 87.17 44.8 31.86 79.32 31.86 77.75"/><polygon points="31.86 76.17 85.75 42.53 86.46 43.66 31.86 77.75 31.86 76.17"/><polygon points="31.86 74.59 85.04 41.4 85.75 42.53 31.86 76.17 31.86 74.59"/><polygon points="31.86 73.02 84.33 40.26 85.04 41.4 31.86 74.59 31.86 73.02"/><polygon points="31.86 71.45 83.62 39.13 84.33 40.26 31.86 73.02 31.86 71.45"/><polygon points="31.86 69.87 82.91 38 83.62 39.13 31.86 71.45 31.86 69.87"/><polygon points="31.86 68.3 82.2 36.87 82.91 38 31.86 69.87 31.86 68.3"/><polygon points="31.86 66.72 81.49 35.73 82.2 36.87 31.86 68.3 31.86 66.72"/><polygon points="31.86 65.14 80.78 34.6 81.49 35.73 31.86 66.72 31.86 65.14"/><polygon points="31.86 63.57 80.07 33.47 80.78 34.6 31.86 65.14 31.86 63.57"/><polygon points="31.86 61.99 78.1 33.12 79.86 33.12 80.07 33.47 31.86 63.57 31.86 61.99"/><polygon points="31.86 60.42 75.57 33.12 78.1 33.12 31.86 61.99 31.86 60.42"/><polygon points="31.86 58.84 73.05 33.12 75.57 33.12 31.86 60.42 31.86 58.84"/><polygon points="31.86 57.26 70.53 33.12 73.05 33.12 31.86 58.84 31.86 57.26"/><polygon points="31.86 55.69 68 33.12 70.53 33.12 31.86 57.26 31.86 55.69"/><polygon points="31.86 54.11 65.47 33.12 68 33.12 31.86 55.69 31.86 54.11"/><polygon points="31.86 52.53 62.95 33.12 65.47 33.12 31.86 54.11 31.86 52.53"/><polygon points="31.86 50.96 60.43 33.12 62.95 33.12 31.86 52.53 31.86 50.96"/><polygon points="31.86 49.38 57.91 33.12 60.43 33.12 31.86 50.96 31.86 49.38"/><polygon points="31.86 47.8 55.38 33.12 57.91 33.12 31.86 49.38 31.86 47.8"/><polygon points="31.86 46.23 52.85 33.12 55.38 33.12 31.86 47.8 31.86 46.23"/><polygon points="31.86 44.65 50.33 33.12 52.85 33.12 31.86 46.23 31.86 44.65"/><polygon points="31.86 43.08 47.81 33.12 50.33 33.12 31.86 44.65 31.86 43.08"/><polygon points="31.86 41.5 45.28 33.12 47.81 33.12 31.86 43.08 31.86 41.5"/><polygon points="31.86 39.93 42.76 33.12 45.28 33.12 31.86 41.5 31.86 39.93"/><polygon points="31.86 38.36 40.23 33.12 42.76 33.12 31.86 39.93 31.86 38.36"/><polygon points="31.86 36.78 37.71 33.12 40.23 33.12 31.86 38.36 31.86 36.78"/><polygon points="31.86 35.2 35.18 33.12 37.71 33.12 31.86 36.78 31.86 35.2"/><polygon points="31.86 33.63 32.66 33.12 35.18 33.12 31.86 35.2 31.86 33.63"/><polygon points="32.66 33.12 31.86 33.63 31.86 33.12 32.66 33.12"/><polygon points="107.86 146.03 117.89 139.77 117.89 146.03 107.86 146.03"/><polygon points="105.46 146.03 117.89 138.27 117.89 139.77 107.86 146.03 105.46 146.03"/><polygon points="103.06 146.03 117.89 136.77 117.89 138.27 105.46 146.03 103.06 146.03"/><polygon points="102.28 145.01 117.89 135.27 117.89 136.77 103.06 146.03 102.28 146.03 102.28 145.01"/><polygon points="102.28 143.52 117.89 133.77 117.89 135.27 102.28 145.01 102.28 143.52"/><polygon points="102.28 142.02 117.89 132.27 117.89 133.77 102.28 143.52 102.28 142.02"/><polygon points="102.28 140.51 117.89 130.77 117.89 132.27 102.28 142.02 102.28 140.51"/><polygon points="102.28 139.02 117.89 129.27 117.89 130.77 102.28 140.51 102.28 139.02"/><polygon points="102.28 137.52 117.89 127.77 117.89 129.27 102.28 139.02 102.28 137.52"/><polygon points="102.28 136.01 117.89 126.27 117.89 127.77 102.28 137.52 102.28 136.01"/><polygon points="102.28 134.52 117.89 124.77 117.89 126.27 102.28 136.01 102.28 134.52"/><polygon points="102.28 133.02 117.89 123.28 117.89 124.77 102.28 134.52 102.28 133.02"/><polygon points="102.28 131.52 117.89 121.78 117.89 123.28 102.28 133.02 102.28 131.52"/><polygon points="102.28 130.02 117.89 120.28 117.89 121.78 102.28 131.52 102.28 130.02"/><polygon points="102.28 128.52 117.89 118.78 117.89 120.28 102.28 130.02 102.28 128.52"/><polygon points="102.28 127.02 117.89 117.28 117.89 118.78 102.28 128.52 102.28 127.02"/><polygon points="102.28 125.52 117.89 115.78 117.89 117.28 102.28 127.02 102.28 125.52"/><polygon points="102.28 124.02 117.89 114.28 117.89 115.78 102.28 125.52 102.28 124.02"/><polygon points="102.28 122.53 117.89 112.78 117.89 114.28 102.28 124.02 102.28 122.53"/><polygon points="102.28 121.03 117.89 111.28 117.89 112.78 102.28 122.53 102.28 121.03"/><polygon points="102.28 119.53 117.89 109.78 117.89 111.28 102.28 121.03 102.28 119.53"/><polygon points="102.28 118.03 117.89 108.28 117.89 109.78 102.28 119.53 102.28 118.03"/><polygon points="102.28 116.53 117.89 106.78 117.89 108.28 102.28 118.03 102.28 116.53"/><polygon points="102.28 115.03 117.89 105.28 117.89 106.78 102.28 116.53 102.28 115.03"/><polygon points="102.28 113.53 117.89 103.78 117.89 105.28 102.28 115.03 102.28 113.53"/><polygon points="102.28 112.03 117.89 102.28 117.89 103.78 102.28 113.53 102.28 112.03"/><polygon points="102.28 110.53 117.89 100.78 117.89 102.28 102.28 112.03 102.28 110.53"/><polygon points="102.28 109.03 117.89 99.28 117.89 100.78 102.28 110.53 102.28 109.03"/><polygon points="102.28 107.53 117.89 97.78 117.89 99.28 102.28 109.03 102.28 107.53"/><polygon points="102.28 106.03 117.89 96.28 117.89 97.78 102.28 107.53 102.28 106.03"/><polygon points="102.28 104.53 117.89 94.78 117.89 96.28 102.28 106.03 102.28 104.53"/><polygon points="102.28 103.03 117.89 93.28 117.89 94.78 102.28 104.53 102.28 103.03"/><polygon points="102.28 101.53 117.89 91.78 117.89 93.28 102.28 103.03 102.28 101.53"/><polygon points="102.28 100.03 117.89 90.28 117.89 91.78 102.28 101.53 102.28 100.03"/><polygon points="102.28 98.53 117.89 88.78 117.89 90.28 102.28 100.03 102.28 98.53"/><polygon points="102.28 97.03 117.89 87.28 117.89 88.78 102.28 98.53 102.28 97.03"/><polygon points="102.28 95.53 117.87 85.79 117.89 85.79 117.89 87.28 102.28 97.03 102.28 95.53"/><polygon points="102.28 94.03 115.47 85.79 117.87 85.79 102.28 95.53 102.28 94.03"/><polygon points="102.28 92.53 113.06 85.79 115.47 85.79 102.28 94.03 102.28 92.53"/><polygon points="102.28 91.03 110.66 85.79 113.06 85.79 102.28 92.53 102.28 91.03"/><polygon points="102.28 89.53 108.26 85.79 110.66 85.79 102.28 91.03 102.28 89.53"/><polygon points="102.28 88.03 105.85 85.79 108.26 85.79 102.28 89.53 102.28 88.03"/><polygon points="102.28 86.53 103.45 85.79 105.85 85.79 102.28 88.03 102.28 86.53"/><polygon points="103.45 85.79 102.28 86.53 102.28 85.79 103.45 85.79"/><polygon points="114.9 63.65 116.25 62.81 116.25 63.65 114.9 63.65"/><polygon points="112.5 63.65 116.25 61.31 116.25 62.81 114.9 63.65 112.5 63.65"/><polygon points="109.98 63.65 116.25 59.73 116.25 61.31 112.5 63.65 109.98 63.65"/><polygon points="107.45 63.65 116.25 58.16 116.25 59.73 109.98 63.65 107.45 63.65"/><polygon points="104.92 63.65 116.25 56.58 116.25 58.16 107.45 63.65 104.92 63.65"/><polygon points="102.4 63.65 115.75 55.32 116.25 56.12 116.25 56.58 104.92 63.65 102.4 63.65"/><polygon points="99.88 63.65 115.04 54.19 115.75 55.32 102.4 63.65 99.88 63.65"/><polygon points="97.35 63.65 114.33 53.05 115.04 54.19 99.88 63.65 97.35 63.65"/><polygon points="94.83 63.65 113.62 51.92 114.33 53.05 97.35 63.65 94.83 63.65"/><polygon points="92.31 63.65 112.91 50.79 113.62 51.92 94.83 63.65 92.31 63.65"/><polygon points="89.78 63.65 112.2 49.65 112.91 50.79 92.31 63.65 89.78 63.65"/><polygon points="87.25 63.65 111.5 48.52 112.2 49.65 89.78 63.65 87.25 63.65"/><polygon points="84.73 63.65 110.78 47.39 111.5 48.52 87.25 63.65 84.73 63.65"/><polygon points="82.21 63.65 110.07 46.26 110.78 47.39 84.73 63.65 82.21 63.65"/><polygon points="79.69 63.65 109.36 45.12 110.07 46.26 82.21 63.65 79.69 63.65"/><polygon points="77.16 63.65 108.66 43.99 109.36 45.12 79.69 63.65 77.16 63.65"/><polygon points="74.63 63.65 107.94 42.85 108.66 43.99 77.16 63.65 74.63 63.65"/><polygon points="72.11 63.65 107.23 41.72 107.94 42.85 74.63 63.65 72.11 63.65"/><polygon points="69.59 63.65 106.53 40.59 107.23 41.72 72.11 63.65 69.59 63.65"/><polygon points="67.06 63.65 105.81 39.45 106.53 40.59 69.59 63.65 67.06 63.65"/><polygon points="64.54 63.65 105.1 38.32 105.81 39.45 67.06 63.65 64.54 63.65"/><polygon points="62.01 63.65 104.4 37.2 105.1 38.32 64.54 63.65 62.01 63.65"/><polygon points="59.49 63.65 103.69 36.06 104.4 37.2 62.01 63.65 59.49 63.65"/><polygon points="56.97 63.65 102.97 34.92 103.69 36.06 59.49 63.65 56.97 63.65"/><polygon points="54.44 63.65 102.27 33.8 102.97 34.92 56.97 63.65 54.44 63.65"/><polygon points="53.42 63.65 53 62.98 101.56 32.66 102.27 33.8 54.44 63.65 53.42 63.65"/><polygon points="53 62.98 52.29 61.84 100.85 31.53 101.56 32.66 53 62.98"/><polygon points="52.29 61.84 51.58 60.71 100.14 30.4 100.85 31.53 52.29 61.84"/><polygon points="51.58 60.71 50.87 59.58 99.43 29.26 100.14 30.4 51.58 60.71"/><polygon points="50.87 59.58 50.16 58.45 98.72 28.13 99.43 29.26 50.87 59.58"/><polygon points="50.16 58.45 49.45 57.31 98.02 27 98.72 28.13 50.16 58.45"/><polygon points="49.45 57.31 48.74 56.18 97.3 25.86 98.02 27 49.45 57.31"/><polygon points="48.74 56.18 48.03 55.05 96.59 24.73 97.3 25.86 48.74 56.18"/><polygon points="48.03 55.05 47.32 53.91 94.36 24.54 96.47 24.54 96.59 24.73 48.03 55.05"/><polygon points="47.32 53.91 46.62 52.78 91.84 24.54 94.36 24.54 47.32 53.91"/><polygon points="46.62 52.78 45.9 51.65 89.31 24.54 91.84 24.54 46.62 52.78"/><polygon points="45.9 51.65 45.19 50.52 86.79 24.54 89.31 24.54 45.9 51.65"/><polygon points="45.19 50.52 44.49 49.38 84.26 24.54 86.79 24.54 45.19 50.52"/><polygon points="44.49 49.38 43.77 48.25 81.74 24.54 84.26 24.54 44.49 49.38"/><polygon points="43.77 48.25 43.06 47.12 79.22 24.54 81.74 24.54 43.77 48.25"/><polygon points="43.06 47.12 42.36 45.98 76.69 24.54 79.22 24.54 43.06 47.12"/><polygon points="42.36 45.98 41.65 44.85 74.17 24.54 76.69 24.54 42.36 45.98"/><polygon points="41.65 44.85 40.94 43.72 71.64 24.54 74.17 24.54 41.65 44.85"/><polygon points="40.94 43.72 40.23 42.58 69.12 24.54 71.64 24.54 40.94 43.72"/><polygon points="40.23 42.58 39.52 41.45 66.6 24.54 69.12 24.54 40.23 42.58"/><polygon points="39.52 41.45 38.81 40.32 64.07 24.54 66.6 24.54 39.52 41.45"/><polygon points="38.81 40.32 38.1 39.18 61.55 24.54 64.07 24.54 38.81 40.32"/><polygon points="38.1 39.18 37.39 38.05 59.02 24.54 61.55 24.54 38.1 39.18"/><polygon points="37.39 38.05 36.68 36.92 56.49 24.54 59.02 24.54 37.39 38.05"/><polygon points="36.68 36.92 35.97 35.78 53.97 24.54 56.49 24.54 36.68 36.92"/><polygon points="35.97 35.78 35.26 34.65 51.45 24.54 53.97 24.54 35.97 35.78"/><polygon points="35.26 34.65 34.55 33.52 48.93 24.54 51.45 24.54 35.26 34.65"/><polygon points="34.55 33.52 33.84 32.38 46.4 24.54 48.93 24.54 34.55 33.52"/><polygon points="33.84 32.38 33.55 31.91 33.55 30.99 43.87 24.54 46.4 24.54 33.84 32.38"/><polygon points="33.55 29.42 41.35 24.54 43.87 24.54 33.55 30.99 33.55 29.42"/><polygon points="41.35 24.54 33.55 29.42 33.55 24.54 41.35 24.54"/><polygon points="116.09 80.91 117.89 79.78 117.89 80.91 116.09 80.91"/><polygon points="113.68 80.91 117.89 78.28 117.89 79.78 116.09 80.91 113.68 80.91"/><polygon points="111.28 80.91 117.89 76.78 117.89 78.28 113.68 80.91 111.28 80.91"/><polygon points="108.88 80.91 117.89 75.28 117.89 76.78 111.28 80.91 108.88 80.91"/><polygon points="106.48 80.91 117.89 73.78 117.89 75.28 108.88 80.91 106.48 80.91"/><polygon points="104.07 80.91 117.89 72.29 117.89 73.78 106.48 80.91 104.07 80.91"/><polygon points="102.28 80.53 117.89 70.79 117.89 72.29 104.07 80.91 102.28 80.91 102.28 80.53"/><polygon points="102.28 79.03 117.89 69.29 117.89 70.79 102.28 80.53 102.28 79.03"/><polygon points="102.28 77.53 117.89 67.79 117.89 69.29 102.28 79.03 102.28 77.53"/><polygon points="102.28 76.03 117.89 66.3 117.89 67.79 102.28 77.53 102.28 76.03"/><polygon points="102.28 74.53 117.89 64.8 117.89 66.3 102.28 76.03 102.28 74.53"/><polygon points="102.28 73.04 117.89 63.29 117.89 64.8 102.28 74.53 102.28 73.04"/><polygon points="102.28 71.54 117.89 61.8 117.89 63.29 102.28 73.04 102.28 71.54"/><polygon points="102.28 70.04 117.89 60.3 117.89 61.8 102.28 71.54 102.28 70.04"/><polygon points="102.28 68.46 117.89 58.72 117.89 60.3 102.28 70.04 102.28 68.46"/><polygon points="102.28 66.88 115.47 58.65 117.89 58.65 117.89 58.72 102.28 68.46 102.28 66.88"/><polygon points="102.28 65.31 112.94 58.65 115.47 58.65 102.28 66.88 102.28 65.31"/><polygon points="102.28 63.73 110.41 58.65 112.94 58.65 102.28 65.31 102.28 63.73"/><polygon points="102.28 62.16 107.89 58.65 110.41 58.65 102.28 63.73 102.28 62.16"/><polygon points="102.28 60.58 105.37 58.65 107.89 58.65 102.28 62.16 102.28 60.58"/><polygon points="102.28 59 102.85 58.65 105.37 58.65 102.28 60.58 102.28 59"/><polygon points="102.85 58.65 102.28 59 102.28 58.65 102.85 58.65"/><polygon points="102.8 149.19 120.28 138.27 120.28 149.19 102.8 149.19"/><polygon points="100.4 149.19 120.28 136.77 120.28 138.27 102.8 149.19 100.4 149.19"/><polygon points="98 149.19 120.28 135.27 120.28 136.77 100.4 149.19 98 149.19"/><polygon points="95.59 149.19 120.28 133.77 120.28 135.27 98 149.19 95.59 149.19"/><polygon points="93.19 149.19 120.28 132.27 120.28 133.77 95.59 149.19 93.19 149.19"/><polygon points="90.79 149.19 120.28 130.77 120.28 132.27 93.19 149.19 90.79 149.19"/><polygon points="88.39 149.19 120.28 129.27 120.28 130.77 90.79 149.19 88.39 149.19"/><polygon points="85.98 149.19 120.28 127.77 120.28 129.27 88.39 149.19 85.98 149.19"/><polygon points="83.58 149.19 120.28 126.27 120.28 127.77 85.98 149.19 83.58 149.19"/><polygon points="81.18 149.19 120.28 124.77 120.28 126.27 83.58 149.19 81.18 149.19"/><polygon points="78.77 149.19 120.28 123.28 120.28 124.77 81.18 149.19 78.77 149.19"/><polygon points="76.38 149.19 120.28 121.78 120.28 123.28 78.77 149.19 76.38 149.19"/><polygon points="73.98 149.19 120.28 120.28 120.28 121.78 76.38 149.19 73.98 149.19"/><polygon points="71.57 149.19 120.28 118.78 120.28 120.28 73.98 149.19 71.57 149.19"/><polygon points="69.17 149.19 120.28 117.28 120.28 118.78 71.57 149.19 69.17 149.19"/><polygon points="66.77 149.19 120.28 115.78 120.28 117.28 69.17 149.19 66.77 149.19"/><polygon points="64.37 149.19 120.28 114.28 120.28 115.78 66.77 149.19 64.37 149.19"/><polygon points="61.96 149.19 120.28 112.78 120.28 114.28 64.37 149.19 61.96 149.19"/><polygon points="59.56 149.19 120.28 111.28 120.28 112.78 61.96 149.19 59.56 149.19"/><polygon points="57.16 149.19 120.28 109.78 120.28 111.28 59.56 149.19 57.16 149.19"/><polygon points="54.75 149.19 120.28 108.28 120.28 109.78 57.16 149.19 54.75 149.19"/><polygon points="52.35 149.19 120.28 106.78 120.28 108.28 54.75 149.19 52.35 149.19"/><polygon points="50.3 149.19 50.2 149.03 120.28 105.28 120.28 106.78 52.35 149.19 50.3 149.19"/><polygon points="50.2 149.03 49.53 147.96 120.28 103.78 120.28 105.28 50.2 149.03"/><polygon points="49.53 147.96 48.85 146.88 120.28 102.28 120.28 103.78 49.53 147.96"/><polygon points="48.85 146.88 48.18 145.8 120.28 100.78 120.28 102.28 48.85 146.88"/><polygon points="48.18 145.8 47.5 144.72 120.28 99.28 120.28 100.78 48.18 145.8"/><polygon points="47.5 144.72 46.83 143.64 120.28 97.79 120.28 99.28 47.5 144.72"/><polygon points="46.83 143.64 46.15 142.57 120.28 96.28 120.28 97.79 46.83 143.64"/><polygon points="46.15 142.57 45.48 141.48 120.28 94.79 120.28 96.28 46.15 142.57"/><polygon points="45.48 141.48 44.8 140.41 120.28 93.28 120.28 94.79 45.48 141.48"/><polygon points="44.8 140.41 44.13 139.33 120.28 91.78 120.28 93.28 44.8 140.41"/><polygon points="44.13 139.33 43.45 138.25 120.28 90.29 120.28 91.78 44.13 139.33"/><polygon points="43.45 138.25 42.77 137.17 120.28 88.78 120.28 90.29 43.45 138.25"/><polygon points="42.77 137.17 42.1 136.1 120.28 87.28 120.28 88.78 42.77 137.17"/><polygon points="42.1 136.1 41.43 135.02 120.28 85.79 120.28 87.28 42.1 136.1"/><polygon points="41.43 135.02 40.75 133.94 120.28 84.28 120.28 85.79 41.43 135.02"/><polygon points="40.75 133.94 40.07 132.86 120.28 82.79 120.28 84.28 40.75 133.94"/><polygon points="40.07 132.86 39.4 131.79 120.28 81.29 120.28 82.79 40.07 132.86"/><polygon points="39.4 131.79 38.73 130.71 120.28 79.78 120.28 81.29 39.4 131.79"/><polygon points="38.73 130.71 38.05 129.63 120.28 78.29 120.28 79.78 38.73 130.71"/><polygon points="38.05 129.63 37.37 128.55 120.28 76.79 120.28 78.29 38.05 129.63"/><polygon points="37.37 128.55 36.7 127.47 120.28 75.28 120.28 76.79 37.37 128.55"/><polygon points="36.7 127.47 36.02 126.39 120.28 73.79 120.28 75.28 36.7 127.47"/><polygon points="36.02 126.39 35.35 125.31 120.28 72.29 120.28 73.79 36.02 126.39"/><polygon points="35.35 125.31 34.67 124.24 120.28 70.79 120.28 72.29 35.35 125.31"/><polygon points="34.67 124.24 34 123.16 120.28 69.3 120.28 70.79 34.67 124.24"/><polygon points="34 123.16 33.32 122.08 120.28 67.79 120.28 69.3 34 123.16"/><polygon points="33.32 122.08 32.65 121 120.28 66.3 120.28 67.79 33.32 122.08"/><polygon points="32.65 121 31.98 119.93 120.28 64.8 120.28 66.3 32.65 121"/><polygon points="31.98 119.93 31.3 118.84 120.28 63.3 120.28 64.8 31.98 119.93"/><polygon points="31.3 118.84 30.62 117.77 120.28 61.8 120.28 63.3 31.3 118.84"/><polygon points="30.62 117.77 29.95 116.69 120.28 60.3 120.28 61.8 30.62 117.77"/><polygon points="29.95 116.69 29.46 115.9 29.46 115.5 120.28 58.8 120.28 60.3 29.95 116.69"/><polygon points="29.46 113.92 120.28 57.22 120.28 58.8 29.46 115.5 29.46 113.92"/><polygon points="29.46 112.34 120.28 55.65 120.28 57.22 29.46 113.92 29.46 112.34"/><polygon points="29.46 110.77 119.68 54.44 120.28 55.4 120.28 55.65 29.46 112.34 29.46 110.77"/><polygon points="29.46 109.19 118.98 53.31 119.68 54.44 29.46 110.77 29.46 109.19"/><polygon points="29.46 107.61 118.27 52.18 118.98 53.31 29.46 109.19 29.46 107.61"/><polygon points="29.46 106.04 117.55 51.04 118.27 52.18 29.46 107.61 29.46 106.04"/><polygon points="29.46 104.47 116.85 49.91 117.55 51.04 29.46 106.04 29.46 104.47"/><polygon points="29.46 102.88 116.14 48.78 116.85 49.91 29.46 104.47 29.46 102.88"/><polygon points="29.46 101.32 115.42 47.64 116.14 48.78 29.46 102.88 29.46 101.32"/><polygon points="29.46 99.74 114.72 46.51 115.42 47.64 29.46 101.32 29.46 99.74"/><polygon points="29.46 98.16 114.01 45.38 114.72 46.51 29.46 99.74 29.46 98.16"/><polygon points="29.46 96.59 113.3 44.24 114.01 45.38 29.46 98.16 29.46 96.59"/><polygon points="29.46 95.01 112.58 43.11 113.3 44.24 29.46 96.59 29.46 95.01"/><polygon points="29.46 93.44 111.88 41.98 112.58 43.11 29.46 95.01 29.46 93.44"/><polygon points="29.46 91.86 111.17 40.84 111.88 41.98 29.46 93.44 29.46 91.86"/><polygon points="29.46 90.28 110.46 39.71 111.17 40.84 29.46 91.86 29.46 90.28"/><polygon points="29.46 88.7 109.75 38.58 110.46 39.71 29.46 90.28 29.46 88.7"/><polygon points="29.46 87.13 109.04 37.44 109.75 38.58 29.46 88.7 29.46 87.13"/><polygon points="29.46 85.55 108.33 36.31 109.04 37.44 29.46 87.13 29.46 85.55"/><polygon points="29.46 83.98 107.63 35.18 108.33 36.31 29.46 85.55 29.46 83.98"/><polygon points="29.46 82.4 106.91 34.04 107.63 35.18 29.46 83.98 29.46 82.4"/><polygon points="29.46 80.82 106.2 32.91 106.91 34.04 29.46 82.4 29.46 80.82"/><polygon points="29.46 79.25 105.5 31.78 106.2 32.91 29.46 80.82 29.46 79.25"/><polygon points="29.46 77.67 104.78 30.64 105.5 31.78 29.46 79.25 29.46 77.67"/><polygon points="29.46 76.09 104.07 29.51 104.78 30.64 29.46 77.67 29.46 76.09"/><polygon points="29.46 74.52 103.37 28.38 104.07 29.51 29.46 76.09 29.46 74.52"/><polygon points="29.46 72.94 102.66 27.25 103.37 28.38 29.46 74.52 29.46 72.94"/><polygon points="29.46 71.37 101.94 26.11 102.66 27.25 29.46 72.94 29.46 71.37"/><polygon points="29.46 69.8 101.23 24.98 101.94 26.11 29.46 71.37 29.46 69.8"/><polygon points="29.46 68.22 100.53 23.84 101.23 24.98 29.46 69.8 29.46 68.22"/><polygon points="29.46 66.64 99.82 22.71 100.53 23.84 29.46 68.22 29.46 66.64"/><polygon points="29.46 65.07 98.58 21.91 99.32 21.91 99.82 22.71 29.46 66.64 29.46 65.07"/><polygon points="29.46 63.49 96.06 21.91 98.58 21.91 29.46 65.07 29.46 63.49"/><polygon points="29.46 61.92 93.53 21.91 96.06 21.91 29.46 63.49 29.46 61.92"/><polygon points="29.46 60.34 91.01 21.91 93.53 21.91 29.46 61.92 29.46 60.34"/><polygon points="29.46 58.76 88.49 21.91 91.01 21.91 29.46 60.34 29.46 58.76"/><polygon points="29.46 57.19 85.96 21.91 88.49 21.91 29.46 58.76 29.46 57.19"/><polygon points="29.46 55.61 83.44 21.91 85.96 21.91 29.46 57.19 29.46 55.61"/><polygon points="29.46 54.03 80.91 21.91 83.44 21.91 29.46 55.61 29.46 54.03"/><polygon points="29.46 52.46 78.39 21.91 80.91 21.91 29.46 54.03 29.46 52.46"/><polygon points="29.46 50.88 75.86 21.91 78.39 21.91 29.46 52.46 29.46 50.88"/><polygon points="29.46 49.3 73.34 21.91 75.86 21.91 29.46 50.88 29.46 49.3"/><polygon points="29.46 47.73 70.82 21.91 73.34 21.91 29.46 49.3 29.46 47.73"/><polygon points="29.46 46.15 68.29 21.91 70.82 21.91 29.46 47.73 29.46 46.15"/><polygon points="29.46 44.58 65.76 21.91 68.29 21.91 29.46 46.15 29.46 44.58"/><polygon points="29.46 43 63.24 21.91 65.76 21.91 29.46 44.58 29.46 43"/><polygon points="29.46 41.42 60.72 21.91 63.24 21.91 29.46 43 29.46 41.42"/><polygon points="29.46 39.85 58.2 21.91 60.72 21.91 29.46 41.42 29.46 39.85"/><polygon points="29.46 38.27 55.67 21.91 58.2 21.91 29.46 39.85 29.46 38.27"/><polygon points="29.46 36.7 53.14 21.91 55.67 21.91 29.46 38.27 29.46 36.7"/><polygon points="29.46 35.13 50.62 21.91 53.14 21.91 29.46 36.7 29.46 35.13"/><polygon points="29.46 33.55 48.1 21.91 50.62 21.91 29.46 35.13 29.46 33.55"/><polygon points="29.46 31.97 45.57 21.91 48.1 21.91 29.46 33.55 29.46 31.97"/><polygon points="45.57 21.91 29.46 31.97 29.46 21.91 45.57 21.91"/></g></svg>