<?xml version="1.0" encoding="utf-8"?>
<!-- Generator: Adobe Illustrator 16.0.0, SVG Export Plug-In . SVG Version: 6.00 Build 0)  -->
<!DOCTYPE svg PUBLIC "-//W3C//DTD SVG 1.1//EN" "http://www.w3.org/Graphics/SVG/1.1/DTD/svg11.dtd">
<svg version="1.1" xmlns="http://www.w3.org/2000/svg" xmlns:xlink="http://www.w3.org/1999/xlink" x="0px" y="0px" width="196.3px"
	 height="116.6px" viewBox="0 0 196.3 116.6" style="enable-background:new 0 0 196.3 116.6;" xml:space="preserve">
<style type="text/css">
<![CDATA[
	.st0{fill:#555555;}
	.st1{fill:#231F20;}
	.st2{fill:#242828;}
	.st3{fill:#299197;}
	.st4{fill:#29CCC4;}
	.st5{clip-path:url(#SVGID_2_);}
	.st6{clip-path:url(#SVGID_4_);}
	.st7{clip-path:url(#SVGID_6_);}
	.st8{fill:#C5C5C5;}
	.st9{fill:#FFFFFF;}
	.st10{fill:none;}
	.st11{display:inline;}
	.st12{fill:#6F6F6F;}
	.st13{fill:#036F7D;}
	.st14{display:none;}
]]>
</style>
<g id="Laag_1">
	<g>
		<path class="st12" d="M29.3,67.4l15.4-16.6H30.1v-5.7h23.3v6.3L37.8,67.9H54v5.8H29.3V67.4z"/>
		<path class="st12" d="M56.5,35.4c0-1.2,0.4-2.2,1.3-3c0.9-0.9,1.9-1.3,3.2-1.3s2.4,0.4,3.3,1.2s1.3,1.8,1.3,3.1
			c0,1.2-0.4,2.3-1.3,3.1c-0.9,0.8-2,1.2-3.3,1.2s-2.4-0.4-3.2-1.3C56.9,37.5,56.5,36.5,56.5,35.4z M57.5,45.1h7.2v28.6h-7.2V45.1z"
			/>
		<path class="st12" d="M70.5,28.6h7.2v45.1h-7.2V28.6z"/>
		<path class="st12" d="M83.5,28.6h7.2v45.1h-7.2V28.6z"/>
		<path class="st12" d="M95.5,35.4c0-1.2,0.4-2.2,1.3-3c0.9-0.9,1.9-1.3,3.2-1.3s2.4,0.4,3.3,1.2c0.9,0.8,1.3,1.8,1.3,3.1
			c0,1.2-0.4,2.3-1.3,3.1c-0.9,0.8-2,1.2-3.3,1.2s-2.4-0.4-3.2-1.3C95.9,37.5,95.5,36.5,95.5,35.4z M96.5,45.1h7.2v28.6h-7.2V45.1z"
			/>
		<path class="st12" d="M138.4,88h-7.2V69.9h-0.1c-0.9,1.4-2.2,2.6-3.9,3.4c-1.7,0.8-3.5,1.3-5.6,1.3c-2.2,0-4.1-0.4-5.9-1.2
			c-1.7-0.8-3.2-1.9-4.4-3.3c-1.2-1.4-2.1-3-2.8-4.8c-0.7-1.8-1-3.8-1-5.9s0.3-4.1,1-5.9c0.7-1.8,1.6-3.4,2.9-4.8
			c1.2-1.4,2.7-2.4,4.4-3.2c1.7-0.8,3.6-1.2,5.6-1.2c1.3,0,2.5,0.1,3.5,0.4s2,0.7,2.8,1.1c0.8,0.5,1.5,1,2.1,1.5s1,1.1,1.4,1.7h0.2
			v-4h6.9V88z M114.9,59.3c0,1.1,0.2,2.2,0.5,3.3c0.3,1.1,0.8,2.1,1.5,3c0.7,0.9,1.5,1.6,2.6,2.1c1,0.6,2.2,0.8,3.6,0.8
			c1.3,0,2.5-0.3,3.5-0.8c1-0.5,1.9-1.2,2.7-2.1c0.7-0.9,1.3-1.9,1.7-3c0.4-1.1,0.6-2.2,0.6-3.3c0-1.1-0.2-2.2-0.6-3.3
			c-0.4-1.1-0.9-2.1-1.7-3c-0.7-0.9-1.6-1.6-2.7-2.1c-1-0.6-2.2-0.8-3.5-0.8c-1.4,0-2.6,0.3-3.6,0.8c-1,0.5-1.9,1.2-2.6,2.1
			c-0.7,0.9-1.2,1.9-1.5,3C115.1,57.1,114.9,58.2,114.9,59.3z"/>
		<path class="st12" d="M161.8,70.1h-0.2c-0.7,1.3-1.9,2.3-3.5,3.1c-1.6,0.8-3.4,1.2-5.4,1.2c-1.2,0-2.4-0.1-3.6-0.4
			c-1.3-0.3-2.4-0.8-3.5-1.5c-1.1-0.7-1.9-1.6-2.6-2.7c-0.7-1.1-1-2.5-1-4.2c0-2.1,0.6-3.9,1.8-5.1c1.2-1.3,2.8-2.2,4.7-2.9
			c1.9-0.7,4-1.1,6.3-1.3c2.3-0.2,4.6-0.3,6.8-0.3v-0.7c0-1.8-0.6-3.1-1.9-4c-1.3-0.9-2.8-1.3-4.6-1.3c-1.5,0-3,0.3-4.4,1
			c-1.4,0.6-2.5,1.4-3.5,2.3l-3.7-4.4c1.6-1.5,3.5-2.6,5.6-3.4c2.1-0.8,4.3-1.1,6.5-1.1c2.5,0,4.6,0.4,6.3,1.1
			c1.6,0.7,3,1.6,3.9,2.8c1,1.2,1.6,2.4,2,3.9c0.4,1.4,0.6,2.9,0.6,4.3v17.4h-6.7V70.1z M161.7,60.7h-1.6c-1.2,0-2.4,0.1-3.6,0.1
			c-1.3,0.1-2.4,0.3-3.5,0.7c-1.1,0.3-2,0.8-2.7,1.4c-0.7,0.6-1.1,1.5-1.1,2.5c0,0.7,0.2,1.2,0.4,1.7c0.3,0.5,0.7,0.8,1.2,1.1
			c0.5,0.3,1,0.5,1.6,0.6c0.6,0.1,1.2,0.2,1.8,0.2c2.5,0,4.3-0.7,5.6-2c1.3-1.3,1.9-3.1,1.9-5.4V60.7z"/>
	</g>
	<path class="st10" d="M174.7,46l16.6,15.4V46.7h5.7V70h-6.3l-16.5-15.5v16.2h-5.8V46H174.7z"/>
	<path class="st10" d="M111.3,94.3l-15.4,16.6h14.7v5.7H87.3v-6.3l15.5-16.5H86.6V88h24.7V94.3z"/>
	<path class="st10" d="M23,70.7L6.4,55.2V70H0.7V46.7H7l16.5,15.5V46h5.8v24.7H23z"/>
	<path class="st10" d="M86.6,22.3L102,5.7H87.3V0h23.3v6.3L95,22.8h16.2v5.8H86.6V22.3z"/>
	<path class="st10" d="M174.7,46l16.6,15.4V46.7h5.7V70h-6.3l-16.5-15.5v16.2h-5.8V46H174.7z"/>
	<path class="st10" d="M17.6,62.6L2.1,79.1h14.7v5.7H-6.4v-6.3L9.1,62.1H-7.1v-5.8h24.7V62.6z"/>
	<path class="st10" d="M30,66.2 M30.1,84.9 M29.9,79.1 M30,75.8l-3.2,3.3l3,0l0.1,5.7l-11.8-0.2l0.1-6.3l11.8-12.2L30,75.8 M30,56.2
		v5.8H17.7v-5.8H30"/>
	<path class="st10" d="M17.9,91.5"/>
</g>
<g id="guide_1" class="st14">
</g>
<g id="guide_2" class="st14">
</g>
<g id="guide_3" class="st14">
</g>
<g id="guide_4" class="st14">
</g>
</svg>
