<svg id="Laag_1" data-name="Laag 1" xmlns="http://www.w3.org/2000/svg" viewBox="0 0 196.31 116.62"><defs><style>.cls-1{fill:none;}</style></defs><title>Zilliqa wordmark_black_white Bg</title><path d="M28.62,67.37,44.06,50.8H29.33V45.07H52.59v6.32L37.08,67.85H53.3v5.84H28.62Z"/><path d="M55.75,35.36a4.12,4.12,0,0,1,1.28-3,4.4,4.4,0,0,1,3.25-1.28,4.73,4.73,0,0,1,3.31,1.22,4.18,4.18,0,0,1,0,6.14,4.73,4.73,0,0,1-3.31,1.22A4.4,4.4,0,0,1,57,38.37,4.12,4.12,0,0,1,55.75,35.36Zm1,9.72h7.15V73.69H56.76Z"/><path d="M69.75,28.62h7.15V73.69H69.75Z"/><path d="M82.75,28.62h7.15V73.69H82.75Z"/><path d="M94.74,35.36a4.12,4.12,0,0,1,1.28-3,4.4,4.4,0,0,1,3.25-1.28,4.73,4.73,0,0,1,3.31,1.22,4.18,4.18,0,0,1,0,6.14,4.73,4.73,0,0,1-3.31,1.22A4.4,4.4,0,0,1,96,38.37,4.12,4.12,0,0,1,94.74,35.36Zm1,9.72h7.15V73.69H95.75Z"/><path d="M137.72,88h-7.15V69.88h-.12a9.51,9.51,0,0,1-3.91,3.4A12.41,12.41,0,0,1,121,74.53a13.61,13.61,0,0,1-5.87-1.22A13.46,13.46,0,0,1,110.68,70a14.52,14.52,0,0,1-2.8-4.83,17.58,17.58,0,0,1-1-5.93,16.86,16.86,0,0,1,1-5.9,14.4,14.4,0,0,1,2.86-4.77,13.35,13.35,0,0,1,10-4.35,13,13,0,0,1,3.55.45,13.6,13.6,0,0,1,2.83,1.13,9.31,9.31,0,0,1,2.12,1.55,10.27,10.27,0,0,1,1.4,1.7h.18v-4h6.86ZM114.17,59.26a11.44,11.44,0,0,0,.51,3.34,9.19,9.19,0,0,0,1.52,3,7.94,7.94,0,0,0,2.56,2.15,8.22,8.22,0,0,0,7.15,0,8.64,8.64,0,0,0,2.65-2.12,9.2,9.2,0,0,0,1.67-3,10.05,10.05,0,0,0,.57-3.31,10.32,10.32,0,0,0-.57-3.34,9.17,9.17,0,0,0-1.67-3,9,9,0,0,0-2.65-2.15,7.31,7.31,0,0,0-3.52-.83,7.78,7.78,0,0,0-3.64.81A7.63,7.63,0,0,0,116.2,53a9.26,9.26,0,0,0-1.52,3A11.16,11.16,0,0,0,114.17,59.26Z"/><path d="M161.09,70.06h-.18a8,8,0,0,1-3.46,3.13A11.74,11.74,0,0,1,152,74.41a15.54,15.54,0,0,1-3.61-.45A10.73,10.73,0,0,1,145,72.47a8.66,8.66,0,0,1-2.62-2.74,7.89,7.89,0,0,1-1-4.2,7.13,7.13,0,0,1,1.82-5.13,11.78,11.78,0,0,1,4.68-2.92,26.41,26.41,0,0,1,6.35-1.34q3.49-.33,6.83-.33v-.72a4.42,4.42,0,0,0-1.94-4,8.19,8.19,0,0,0-4.62-1.28,10.35,10.35,0,0,0-4.35,1,11.74,11.74,0,0,0-3.46,2.32l-3.7-4.35a16.14,16.14,0,0,1,5.63-3.4A19.23,19.23,0,0,1,155,44.24a15.91,15.91,0,0,1,6.29,1.07,10.25,10.25,0,0,1,3.9,2.8,10,10,0,0,1,2,3.88,16.81,16.81,0,0,1,.57,4.29V73.69h-6.68ZM161,60.63h-1.61q-1.73,0-3.64.15a15.84,15.84,0,0,0-3.52.65,7.5,7.5,0,0,0-2.68,1.43,3.17,3.17,0,0,0-1.07,2.53,3.06,3.06,0,0,0,.45,1.7,3.44,3.44,0,0,0,1.16,1.1,5.17,5.17,0,0,0,1.61.6,9.08,9.08,0,0,0,1.79.18,7.46,7.46,0,0,0,5.61-2A7.39,7.39,0,0,0,161,61.65Z"/><path class="cls-1" d="M174,46l16.57,15.44V46.68h5.72V69.94H190l-16.46-15.5V70.65h-5.84V46Z"/><path class="cls-1" d="M110.53,94.32,95.09,110.9h14.73v5.72H86.57V110.3l15.5-16.46H85.85V88h24.68Z"/><path class="cls-1" d="M22.3,70.65,5.72,55.21V69.94H0V46.68H6.32l16.46,15.5V46h5.84V70.65Z"/><path class="cls-1" d="M85.85,22.3,101.29,5.72H86.57V0h23.25V6.32L94.32,22.77h16.22v5.84H85.85Z"/></svg>