<svg id="Laag_1" data-name="Laag 1" xmlns="http://www.w3.org/2000/svg" viewBox="0 0 163.55 206.47"><defs><style>.cls-1{fill:#242828;}.cls-2{fill:#c5c5c5;}.cls-3{fill:#555;}.cls-4{fill:#6f6f6f;}.cls-5{fill:none;}</style></defs><title>zilliqa symbol_grey_dark BG</title><rect class="cls-1" y="-0.02" width="163.55" height="206.51"/><polygon class="cls-2" points="112.85 99.99 55.08 128.41 112.85 155.8 112.85 177.89 28.7 137.99 28.65 116.24 87.2 87.46 28.7 59.72 28.7 37.63 112.85 77.53 112.85 99.99"/><polygon class="cls-3" points="28.7 37.63 50.94 28.62 135.09 68.51 112.85 77.53 28.7 37.63"/><polygon class="cls-4" points="112.85 99.99 135.09 90.97 135.09 68.51 112.85 77.53 112.85 99.99"/><polygon class="cls-4" points="112.85 155.8 112.85 111.64 135.09 101.42 135.09 168.87 112.85 177.89 112.85 155.8"/><path class="cls-5" d="M94.58,6.32,79.14,22.89H93.87v5.72H70.61V22.3L86.11,5.84H69.9V0H94.58Z"/><path class="cls-5" d="M94.58,184.21,79.14,200.78H93.87v5.72H70.61v-6.32l15.5-16.46H69.9v-5.84H94.58Z"/><path class="cls-5" d="M22.3,115.43,5.72,100v14.73H0V91.46H6.32L22.77,107V90.75h5.84v24.68Z"/><path class="cls-5" d="M157.23,115.43,140.65,100v14.73h-5.72V91.46h6.32L157.7,107V90.75h5.84v24.68Z"/></svg>