<svg id="Laag_1" data-name="Laag 1" xmlns="http://www.w3.org/2000/svg" xmlns:xlink="http://www.w3.org/1999/xlink" viewBox="0 0 163.84 206.81"><defs><style>.cls-1{clip-path:url(#clip-path);}.cls-2{fill:none;}</style><clipPath id="clip-path"><path d="M135.83,91.66V68.56L51.54,28.16,28.3,38.25V61.6l56,26.79-56,27.25V138.7l84.78,40.16,22.76-10.1V99.44l-24.16,10.72V154l-52-25,54-27.53ZM114.52,98v-18L133,71.66V89.82Zm16.54-28.6-17.95,8.16-80-38.34,18.34-8ZM114.52,112,133,103.8v63.11l-18.48,8.2V112Zm-2.84,45.14v17.91L31.14,136.91v-19.5l59.64-29L31.14,59.81V41.44L111.67,80V99.33L53.29,129.09Z"/></clipPath></defs><title>zilliqa symbol_white_white BG</title><path d="M135.83,91.66V68.56L51.54,28.16,28.3,38.25V61.6l56,26.79-56,27.25V138.7l84.78,40.16,22.76-10.1V99.44l-24.16,10.72V154l-52-25,54-27.53ZM114.52,98v-18L133,71.66V89.82Zm16.54-28.6-17.95,8.16-80-38.34,18.34-8ZM114.52,112,133,103.8v63.11l-18.48,8.2V112Zm-2.84,45.14v17.91L31.14,136.91v-19.5l59.64-29L31.14,59.81V41.44L111.67,80V99.33L53.29,129.09Z"/><g class="cls-1"><polygon points="109.85 175.06 111.67 173.92 111.67 175.06 109.85 175.06"/><polygon points="107.01 175.06 111.67 172.14 111.67 173.92 109.85 175.06 107.01 175.06"/><polygon points="104.17 175.06 111.67 170.37 111.67 172.14 107.01 175.06 104.17 175.06"/><polygon points="101.32 175.06 111.67 168.59 111.67 170.37 104.17 175.06 101.32 175.06"/><polygon points="98.48 175.06 111.67 166.82 111.67 168.59 101.32 175.06 98.48 175.06"/><polygon points="95.63 175.06 111.67 165.04 111.67 166.82 98.48 175.06 95.63 175.06"/><polygon points="92.79 175.06 111.67 163.27 111.67 165.04 95.63 175.06 92.79 175.06"/><polygon points="89.94 175.06 111.67 161.49 111.67 163.27 92.79 175.06 89.94 175.06"/><polygon points="87.1 175.06 111.67 159.72 111.67 161.49 89.94 175.06 87.1 175.06"/><polygon points="84.26 175.06 111.67 157.94 111.67 159.72 87.1 175.06 84.26 175.06"/><polygon points="81.41 175.06 111.67 156.16 111.67 157.94 84.26 175.06 81.41 175.06"/><polygon points="78.57 175.06 111.67 154.39 111.67 156.16 81.41 175.06 78.57 175.06"/><polygon points="75.72 175.06 111.67 152.61 111.67 154.39 78.57 175.06 75.72 175.06"/><polygon points="72.88 175.06 111.67 150.84 111.67 152.61 75.72 175.06 72.88 175.06"/><polygon points="70.04 175.06 111.67 149.06 111.67 150.84 72.88 175.06 70.04 175.06"/><polygon points="67.19 175.06 111.67 147.29 111.67 149.06 70.04 175.06 67.19 175.06"/><polygon points="64.35 175.06 111.67 145.51 111.67 147.29 67.19 175.06 64.35 175.06"/><polygon points="61.51 175.06 111.67 143.74 111.67 145.51 64.35 175.06 61.51 175.06"/><polygon points="58.66 175.06 111.67 141.96 111.67 143.74 61.51 175.06 58.66 175.06"/><polygon points="55.82 175.06 111.67 140.18 111.67 141.96 58.66 175.06 55.82 175.06"/><polygon points="54.56 175.06 54.11 174.34 111.67 138.41 111.67 140.18 55.82 175.06 54.56 175.06"/><polygon points="54.11 174.34 53.31 173.07 111.67 136.63 111.67 138.41 54.11 174.34"/><polygon points="53.31 173.07 52.52 171.79 111.67 134.86 111.67 136.63 53.31 173.07"/><polygon points="52.52 171.79 51.72 170.51 111.67 133.08 111.67 134.86 52.52 171.79"/><polygon points="51.72 170.51 50.92 169.24 111.67 131.31 111.67 133.08 51.72 170.51"/><polygon points="50.92 169.24 50.12 167.96 111.67 129.53 111.67 131.31 50.92 169.24"/><polygon points="50.12 167.96 49.32 166.69 111.67 127.75 111.67 129.53 50.12 167.96"/><polygon points="49.32 166.69 48.52 165.41 111.67 125.98 111.67 127.75 49.32 166.69"/><polygon points="48.52 165.41 47.72 164.13 111.67 124.2 111.67 125.98 48.52 165.41"/><polygon points="47.72 164.13 46.92 162.86 111.67 122.43 111.67 124.2 47.72 164.13"/><polygon points="46.92 162.86 46.12 161.58 111.67 120.65 111.67 122.43 46.92 162.86"/><polygon points="46.12 161.58 45.32 160.3 111.67 118.88 111.67 120.65 46.12 161.58"/><polygon points="45.32 160.3 44.52 159.03 111.67 117.1 111.67 118.88 45.32 160.3"/><polygon points="44.52 159.03 43.72 157.75 111.67 115.33 111.67 117.1 44.52 159.03"/><polygon points="43.72 157.75 42.92 156.47 111.67 113.55 111.67 115.33 43.72 157.75"/><polygon points="42.92 156.47 42.12 155.2 111.67 111.77 111.67 113.55 42.92 156.47"/><polygon points="42.12 155.2 41.32 153.92 111.67 110 111.67 111.77 42.12 155.2"/><polygon points="41.32 153.92 40.52 152.64 111.67 108.22 111.67 110 41.32 153.92"/><polygon points="40.52 152.64 39.73 151.37 111.67 106.45 111.67 108.22 40.52 152.64"/><polygon points="39.73 151.37 38.92 150.09 111.67 104.67 111.67 106.45 39.73 151.37"/><polygon points="38.92 150.09 38.13 148.81 111.67 102.9 111.67 104.67 38.92 150.09"/><polygon points="38.13 148.81 37.33 147.54 111.67 101.12 111.67 102.9 38.13 148.81"/><polygon points="37.33 147.54 36.53 146.26 111.67 99.35 111.67 101.12 37.33 147.54"/><polygon points="36.53 146.26 35.73 144.99 111.67 97.57 111.67 99.35 36.53 146.26"/><polygon points="35.73 144.99 34.93 143.71 111.67 95.79 111.67 97.57 35.73 144.99"/><polygon points="34.93 143.71 34.13 142.43 111.67 94.02 111.67 95.79 34.93 143.71"/><polygon points="34.13 142.43 33.33 141.16 111.67 92.24 111.67 94.02 34.13 142.43"/><polygon points="33.33 141.16 32.53 139.88 111.67 90.47 111.67 92.24 33.33 141.16"/><polygon points="32.53 139.88 31.73 138.6 111.67 88.69 111.67 90.47 32.53 139.88"/><polygon points="31.73 138.6 31.14 137.66 31.14 137.19 111.67 86.92 111.67 88.69 31.73 138.6"/><polygon points="31.14 135.33 111.67 85.05 111.67 86.92 31.14 137.19 31.14 135.33"/><polygon points="31.14 133.46 111.67 83.19 111.67 85.05 31.14 135.33 31.14 133.46"/><polygon points="31.14 131.6 111.67 81.32 111.67 83.19 31.14 133.46 31.14 131.6"/><polygon points="31.14 129.73 111.67 79.45 111.67 81.32 31.14 131.6 31.14 129.73"/><polygon points="31.14 127.86 110.91 78.07 111.67 79.29 111.67 79.45 31.14 129.73 31.14 127.86"/><polygon points="31.14 126 110.07 76.72 110.91 78.07 31.14 127.86 31.14 126"/><polygon points="31.14 124.13 109.23 75.38 110.07 76.72 31.14 126 31.14 124.13"/><polygon points="31.14 122.27 108.39 74.04 109.23 75.38 31.14 124.13 31.14 122.27"/><polygon points="31.14 120.4 107.55 72.7 108.39 74.04 31.14 122.27 31.14 120.4"/><polygon points="31.14 118.53 106.71 71.36 107.55 72.7 31.14 120.4 31.14 118.53"/><polygon points="31.14 116.67 105.87 70.02 106.71 71.36 31.14 118.53 31.14 116.67"/><polygon points="31.14 114.8 105.03 68.67 105.87 70.02 31.14 116.67 31.14 114.8"/><polygon points="31.14 112.94 104.19 67.33 105.03 68.67 31.14 114.8 31.14 112.94"/><polygon points="31.14 111.07 103.35 65.99 104.19 67.33 31.14 112.94 31.14 111.07"/><polygon points="31.14 109.21 102.51 64.65 103.35 65.99 31.14 111.07 31.14 109.21"/><polygon points="31.14 107.34 101.67 63.31 102.51 64.65 31.14 109.21 31.14 107.34"/><polygon points="31.14 105.47 100.83 61.97 101.67 63.31 31.14 107.34 31.14 105.47"/><polygon points="31.14 103.61 99.99 60.63 100.83 61.97 31.14 105.47 31.14 103.61"/><polygon points="31.14 101.74 99.15 59.28 99.99 60.63 31.14 103.61 31.14 101.74"/><polygon points="31.14 99.88 98.31 57.94 99.15 59.28 31.14 101.74 31.14 99.88"/><polygon points="31.14 98.01 97.47 56.6 98.31 57.94 31.14 99.88 31.14 98.01"/><polygon points="31.14 96.14 96.63 55.26 97.47 56.6 31.14 98.01 31.14 96.14"/><polygon points="31.14 94.28 95.79 53.92 96.63 55.26 31.14 96.14 31.14 94.28"/><polygon points="31.14 92.41 94.95 52.58 95.79 53.92 31.14 94.28 31.14 92.41"/><polygon points="31.14 90.55 94.11 51.24 94.95 52.58 31.14 92.41 31.14 90.55"/><polygon points="31.14 88.68 93.27 49.9 94.11 51.24 31.14 90.55 31.14 88.68"/><polygon points="31.14 86.81 92.43 48.55 93.27 49.9 31.14 88.68 31.14 86.81"/><polygon points="31.14 84.95 91.59 47.21 92.43 48.55 31.14 86.81 31.14 84.95"/><polygon points="31.14 83.08 90.75 45.87 91.59 47.21 31.14 84.95 31.14 83.08"/><polygon points="31.14 81.22 89.91 44.53 90.75 45.87 31.14 83.08 31.14 81.22"/><polygon points="31.14 79.35 89.07 43.19 89.91 44.53 31.14 81.22 31.14 79.35"/><polygon points="31.14 77.48 88.23 41.85 89.07 43.19 31.14 79.35 31.14 77.48"/><polygon points="31.14 75.62 85.89 41.44 87.97 41.44 88.23 41.85 31.14 77.48 31.14 75.62"/><polygon points="31.14 73.75 82.9 41.44 85.89 41.44 31.14 75.62 31.14 73.75"/><polygon points="31.14 71.89 79.91 41.44 82.9 41.44 31.14 73.75 31.14 71.89"/><polygon points="31.14 70.02 76.92 41.44 79.91 41.44 31.14 71.89 31.14 70.02"/><polygon points="31.14 68.16 73.94 41.44 76.92 41.44 31.14 70.02 31.14 68.16"/><polygon points="31.14 66.29 70.95 41.44 73.94 41.44 31.14 68.16 31.14 66.29"/><polygon points="31.14 64.42 67.96 41.44 70.95 41.44 31.14 66.29 31.14 64.42"/><polygon points="31.14 62.56 64.97 41.44 67.96 41.44 31.14 64.42 31.14 62.56"/><polygon points="31.14 60.69 61.98 41.44 64.97 41.44 31.14 62.56 31.14 60.69"/><polygon points="31.14 58.83 58.99 41.44 61.98 41.44 31.14 60.69 31.14 58.83"/><polygon points="31.14 56.96 56 41.44 58.99 41.44 31.14 58.83 31.14 56.96"/><polygon points="31.14 55.09 53.01 41.44 56 41.44 31.14 56.96 31.14 55.09"/><polygon points="31.14 53.23 50.02 41.44 53.01 41.44 31.14 55.09 31.14 53.23"/><polygon points="31.14 51.36 47.04 41.44 50.02 41.44 31.14 53.23 31.14 51.36"/><polygon points="31.14 49.5 44.05 41.44 47.04 41.44 31.14 51.36 31.14 49.5"/><polygon points="31.14 47.63 41.06 41.44 44.05 41.44 31.14 49.5 31.14 47.63"/><polygon points="31.14 45.76 38.07 41.44 41.06 41.44 31.14 47.63 31.14 45.76"/><polygon points="31.14 43.9 35.08 41.44 38.07 41.44 31.14 45.76 31.14 43.9"/><polygon points="31.14 42.03 32.09 41.44 35.08 41.44 31.14 43.9 31.14 42.03"/><polygon points="32.09 41.44 31.14 42.03 31.14 41.44 32.09 41.44"/><polygon points="121.13 175.12 132.99 167.71 132.99 175.12 121.13 175.12"/><polygon points="118.29 175.12 132.99 165.94 132.99 167.71 121.13 175.12 118.29 175.12"/><polygon points="115.44 175.12 132.99 164.16 132.99 165.94 118.29 175.12 115.44 175.12"/><polygon points="114.52 173.92 132.99 162.39 132.99 164.16 115.44 175.12 114.52 175.12 114.52 173.92"/><polygon points="114.52 172.15 132.99 160.61 132.99 162.39 114.52 173.92 114.52 172.15"/><polygon points="114.52 170.37 132.99 158.84 132.99 160.61 114.52 172.15 114.52 170.37"/><polygon points="114.52 168.59 132.99 157.06 132.99 158.84 114.52 170.37 114.52 168.59"/><polygon points="114.52 166.82 132.99 155.28 132.99 157.06 114.52 168.59 114.52 166.82"/><polygon points="114.52 165.04 132.99 153.51 132.99 155.28 114.52 166.82 114.52 165.04"/><polygon points="114.52 163.27 132.99 151.73 132.99 153.51 114.52 165.04 114.52 163.27"/><polygon points="114.52 161.49 132.99 149.96 132.99 151.73 114.52 163.27 114.52 161.49"/><polygon points="114.52 159.72 132.99 148.18 132.99 149.96 114.52 161.49 114.52 159.72"/><polygon points="114.52 157.94 132.99 146.41 132.99 148.18 114.52 159.72 114.52 157.94"/><polygon points="114.52 156.16 132.99 144.63 132.99 146.41 114.52 157.94 114.52 156.16"/><polygon points="114.52 154.39 132.99 142.85 132.99 144.63 114.52 156.16 114.52 154.39"/><polygon points="114.52 152.61 132.99 141.08 132.99 142.85 114.52 154.39 114.52 152.61"/><polygon points="114.52 150.84 132.99 139.3 132.99 141.08 114.52 152.61 114.52 150.84"/><polygon points="114.52 149.06 132.99 137.53 132.99 139.3 114.52 150.84 114.52 149.06"/><polygon points="114.52 147.29 132.99 135.75 132.99 137.53 114.52 149.06 114.52 147.29"/><polygon points="114.52 145.51 132.99 133.98 132.99 135.75 114.52 147.29 114.52 145.51"/><polygon points="114.52 143.74 132.99 132.2 132.99 133.98 114.52 145.51 114.52 143.74"/><polygon points="114.52 141.96 132.99 130.43 132.99 132.2 114.52 143.74 114.52 141.96"/><polygon points="114.52 140.18 132.99 128.65 132.99 130.43 114.52 141.96 114.52 140.18"/><polygon points="114.52 138.41 132.99 126.88 132.99 128.65 114.52 140.18 114.52 138.41"/><polygon points="114.52 136.63 132.99 125.1 132.99 126.88 114.52 138.41 114.52 136.63"/><polygon points="114.52 134.86 132.99 123.32 132.99 125.1 114.52 136.63 114.52 134.86"/><polygon points="114.52 133.08 132.99 121.55 132.99 123.32 114.52 134.86 114.52 133.08"/><polygon points="114.52 131.31 132.99 119.77 132.99 121.55 114.52 133.08 114.52 131.31"/><polygon points="114.52 129.53 132.99 118 132.99 119.77 114.52 131.31 114.52 129.53"/><polygon points="114.52 127.76 132.99 116.22 132.99 118 114.52 129.53 114.52 127.76"/><polygon points="114.52 125.98 132.99 114.45 132.99 116.22 114.52 127.76 114.52 125.98"/><polygon points="114.52 124.2 132.99 112.67 132.99 114.45 114.52 125.98 114.52 124.2"/><polygon points="114.52 122.43 132.99 110.89 132.99 112.67 114.52 124.2 114.52 122.43"/><polygon points="114.52 120.65 132.99 109.12 132.99 110.89 114.52 122.43 114.52 120.65"/><polygon points="114.52 118.88 132.99 107.34 132.99 109.12 114.52 120.65 114.52 118.88"/><polygon points="114.52 117.1 132.99 105.57 132.99 107.34 114.52 118.88 114.52 117.1"/><polygon points="114.52 115.33 132.97 103.8 132.99 103.8 132.99 105.57 114.52 117.1 114.52 115.33"/><polygon points="114.52 113.55 130.13 103.8 132.97 103.8 114.52 115.33 114.52 113.55"/><polygon points="114.52 111.78 127.29 103.8 130.13 103.8 114.52 113.55 114.52 111.78"/><polygon points="114.52 110 124.44 103.8 127.29 103.8 114.52 111.78 114.52 110"/><polygon points="114.52 108.22 121.6 103.8 124.44 103.8 114.52 110 114.52 108.22"/><polygon points="114.52 106.45 118.75 103.8 121.6 103.8 114.52 108.22 114.52 106.45"/><polygon points="114.52 104.67 115.91 103.8 118.75 103.8 114.52 106.45 114.52 104.67"/><polygon points="115.91 103.8 114.52 104.67 114.52 103.8 115.91 103.8"/><polygon points="129.46 77.59 131.06 76.59 131.06 77.59 129.46 77.59"/><polygon points="126.62 77.59 131.06 74.81 131.06 76.59 129.46 77.59 126.62 77.59"/><polygon points="123.63 77.59 131.06 72.95 131.06 74.81 126.62 77.59 123.63 77.59"/><polygon points="120.64 77.59 131.06 71.08 131.06 72.95 123.63 77.59 120.64 77.59"/><polygon points="117.65 77.59 131.06 69.22 131.06 71.08 120.64 77.59 117.65 77.59"/><polygon points="114.67 77.59 130.47 67.72 131.06 68.67 131.06 69.22 117.65 77.59 114.67 77.59"/><polygon points="111.68 77.59 129.63 66.38 130.47 67.72 114.67 77.59 111.68 77.59"/><polygon points="108.69 77.59 128.79 65.04 129.63 66.38 111.68 77.59 108.69 77.59"/><polygon points="105.7 77.59 127.95 63.7 128.79 65.04 108.69 77.59 105.7 77.59"/><polygon points="102.71 77.59 127.11 62.35 127.95 63.7 105.7 77.59 102.71 77.59"/><polygon points="99.72 77.59 126.27 61.01 127.11 62.35 102.71 77.59 99.72 77.59"/><polygon points="96.73 77.59 125.43 59.67 126.27 61.01 99.72 77.59 96.73 77.59"/><polygon points="93.74 77.59 124.59 58.33 125.43 59.67 96.73 77.59 93.74 77.59"/><polygon points="90.75 77.59 123.75 56.99 124.59 58.33 93.74 77.59 90.75 77.59"/><polygon points="87.77 77.59 122.91 55.65 123.75 56.99 90.75 77.59 87.77 77.59"/><polygon points="84.78 77.59 122.07 54.31 122.91 55.65 87.77 77.59 84.78 77.59"/><polygon points="81.79 77.59 121.23 52.97 122.07 54.31 84.78 77.59 81.79 77.59"/><polygon points="78.8 77.59 120.39 51.62 121.23 52.97 81.79 77.59 78.8 77.59"/><polygon points="75.81 77.59 119.55 50.28 120.39 51.62 78.8 77.59 75.81 77.59"/><polygon points="72.82 77.59 118.71 48.94 119.55 50.28 75.81 77.59 72.82 77.59"/><polygon points="69.83 77.59 117.87 47.6 118.71 48.94 72.82 77.59 69.83 77.59"/><polygon points="66.84 77.59 117.03 46.26 117.87 47.6 69.83 77.59 66.84 77.59"/><polygon points="63.86 77.59 116.19 44.92 117.03 46.26 66.84 77.59 63.86 77.59"/><polygon points="60.87 77.59 115.35 43.58 116.19 44.92 63.86 77.59 60.87 77.59"/><polygon points="57.88 77.59 114.51 42.23 115.35 43.58 60.87 77.59 57.88 77.59"/><polygon points="56.67 77.59 56.17 76.79 113.67 40.89 114.51 42.23 57.88 77.59 56.67 77.59"/><polygon points="56.17 76.79 55.33 75.44 112.83 39.55 113.67 40.89 56.17 76.79"/><polygon points="55.33 75.44 54.49 74.1 111.99 38.21 112.83 39.55 55.33 75.44"/><polygon points="54.49 74.1 53.65 72.76 111.15 36.87 111.99 38.21 54.49 74.1"/><polygon points="53.65 72.76 52.81 71.42 110.31 35.53 111.15 36.87 53.65 72.76"/><polygon points="52.81 71.42 51.97 70.08 109.47 34.18 110.31 35.53 52.81 71.42"/><polygon points="51.97 70.08 51.13 68.74 108.63 32.84 109.47 34.18 51.97 70.08"/><polygon points="51.13 68.74 50.29 67.39 107.78 31.5 108.63 32.84 51.13 68.74"/><polygon points="50.29 67.39 49.45 66.05 105.14 31.28 107.65 31.28 107.78 31.5 50.29 67.39"/><polygon points="49.45 66.05 48.61 64.71 102.16 31.28 105.14 31.28 49.45 66.05"/><polygon points="48.61 64.71 47.77 63.37 99.17 31.28 102.16 31.28 48.61 64.71"/><polygon points="47.77 63.37 46.93 62.03 96.18 31.28 99.17 31.28 47.77 63.37"/><polygon points="46.93 62.03 46.09 60.69 93.19 31.28 96.18 31.28 46.93 62.03"/><polygon points="46.09 60.69 45.25 59.35 90.2 31.28 93.19 31.28 46.09 60.69"/><polygon points="45.25 59.35 44.41 58.01 87.21 31.28 90.2 31.28 45.25 59.35"/><polygon points="44.41 58.01 43.57 56.66 84.22 31.28 87.21 31.28 44.41 58.01"/><polygon points="43.57 56.66 42.73 55.32 81.23 31.28 84.22 31.28 43.57 56.66"/><polygon points="42.73 55.32 41.89 53.98 78.25 31.28 81.23 31.28 42.73 55.32"/><polygon points="41.89 53.98 41.05 52.64 75.26 31.28 78.25 31.28 41.89 53.98"/><polygon points="41.05 52.64 40.21 51.3 72.27 31.28 75.26 31.28 41.05 52.64"/><polygon points="40.21 51.3 39.37 49.96 69.28 31.28 72.27 31.28 40.21 51.3"/><polygon points="39.37 49.96 38.53 48.62 66.29 31.28 69.28 31.28 39.37 49.96"/><polygon points="38.53 48.62 37.69 47.27 63.3 31.28 66.29 31.28 38.53 48.62"/><polygon points="37.69 47.27 36.85 45.93 60.31 31.28 63.3 31.28 37.69 47.27"/><polygon points="36.85 45.93 36.01 44.59 57.33 31.28 60.31 31.28 36.85 45.93"/><polygon points="36.01 44.59 35.17 43.25 54.34 31.28 57.33 31.28 36.01 44.59"/><polygon points="35.17 43.25 34.33 41.91 51.35 31.28 54.34 31.28 35.17 43.25"/><polygon points="34.33 41.91 33.49 40.57 48.36 31.28 51.35 31.28 34.33 41.91"/><polygon points="33.49 40.57 33.14 40 33.14 38.92 45.37 31.28 48.36 31.28 33.49 40.57"/><polygon points="33.14 37.05 42.38 31.28 45.37 31.28 33.14 38.92 33.14 37.05"/><polygon points="42.38 31.28 33.14 37.05 33.14 31.28 42.38 31.28"/><polygon points="130.87 98.02 132.99 96.69 132.99 98.02 130.87 98.02"/><polygon points="128.02 98.02 132.99 94.91 132.99 96.69 130.87 98.02 128.02 98.02"/><polygon points="125.18 98.02 132.99 93.14 132.99 94.91 128.02 98.02 125.18 98.02"/><polygon points="122.33 98.02 132.99 91.36 132.99 93.14 125.18 98.02 122.33 98.02"/><polygon points="119.49 98.02 132.99 89.59 132.99 91.36 122.33 98.02 119.49 98.02"/><polygon points="116.65 98.02 132.99 87.81 132.99 89.59 119.49 98.02 116.65 98.02"/><polygon points="114.52 97.57 132.99 86.04 132.99 87.81 116.65 98.02 114.52 98.02 114.52 97.57"/><polygon points="114.52 95.8 132.99 84.26 132.99 86.04 114.52 97.57 114.52 95.8"/><polygon points="114.52 94.02 132.99 82.49 132.99 84.26 114.52 95.8 114.52 94.02"/><polygon points="114.52 92.24 132.99 80.71 132.99 82.49 114.52 94.02 114.52 92.24"/><polygon points="114.52 90.47 132.99 78.93 132.99 80.71 114.52 92.24 114.52 90.47"/><polygon points="114.52 88.69 132.99 77.16 132.99 78.93 114.52 90.47 114.52 88.69"/><polygon points="114.52 86.92 132.99 75.38 132.99 77.16 114.52 88.69 114.52 86.92"/><polygon points="114.52 85.14 132.99 73.61 132.99 75.38 114.52 86.92 114.52 85.14"/><polygon points="114.52 83.28 132.99 71.74 132.99 73.61 114.52 85.14 114.52 83.28"/><polygon points="114.52 81.41 130.13 71.66 132.99 71.66 132.99 71.74 114.52 83.28 114.52 81.41"/><polygon points="114.52 79.54 127.14 71.66 130.13 71.66 114.52 81.41 114.52 79.54"/><polygon points="114.52 77.68 124.16 71.66 127.14 71.66 114.52 79.54 114.52 77.68"/><polygon points="114.52 75.81 121.17 71.66 124.16 71.66 114.52 77.68 114.52 75.81"/><polygon points="114.52 73.95 118.18 71.66 121.17 71.66 114.52 75.81 114.52 73.95"/><polygon points="114.52 72.08 115.19 71.66 118.18 71.66 114.52 73.95 114.52 72.08"/><polygon points="115.19 71.66 114.52 72.08 114.52 71.66 115.19 71.66"/><polygon points="115.14 178.86 135.84 165.94 135.84 178.86 115.14 178.86"/><polygon points="112.29 178.86 135.84 164.16 135.84 165.94 115.14 178.86 112.29 178.86"/><polygon points="109.45 178.86 135.84 162.39 135.84 164.16 112.29 178.86 109.45 178.86"/><polygon points="106.6 178.86 135.84 160.61 135.84 162.39 109.45 178.86 106.6 178.86"/><polygon points="103.76 178.86 135.84 158.84 135.84 160.61 106.6 178.86 103.76 178.86"/><polygon points="100.92 178.86 135.84 157.06 135.84 158.84 103.76 178.86 100.92 178.86"/><polygon points="98.07 178.86 135.84 155.28 135.84 157.06 100.92 178.86 98.07 178.86"/><polygon points="95.23 178.86 135.84 153.51 135.84 155.28 98.07 178.86 95.23 178.86"/><polygon points="92.38 178.86 135.84 151.73 135.84 153.51 95.23 178.86 92.38 178.86"/><polygon points="89.54 178.86 135.84 149.96 135.84 151.73 92.38 178.86 89.54 178.86"/><polygon points="86.69 178.86 135.84 148.18 135.84 149.96 89.54 178.86 86.69 178.86"/><polygon points="83.85 178.86 135.84 146.41 135.84 148.18 86.69 178.86 83.85 178.86"/><polygon points="81.01 178.86 135.84 144.63 135.84 146.41 83.85 178.86 81.01 178.86"/><polygon points="78.16 178.86 135.84 142.86 135.84 144.63 81.01 178.86 78.16 178.86"/><polygon points="75.32 178.86 135.84 141.08 135.84 142.86 78.16 178.86 75.32 178.86"/><polygon points="72.47 178.86 135.84 139.31 135.84 141.08 75.32 178.86 72.47 178.86"/><polygon points="69.63 178.86 135.84 137.53 135.84 139.31 72.47 178.86 69.63 178.86"/><polygon points="66.79 178.86 135.84 135.75 135.84 137.53 69.63 178.86 66.79 178.86"/><polygon points="63.94 178.86 135.84 133.98 135.84 135.75 66.79 178.86 63.94 178.86"/><polygon points="61.1 178.86 135.84 132.2 135.84 133.98 63.94 178.86 61.1 178.86"/><polygon points="58.25 178.86 135.84 130.43 135.84 132.2 61.1 178.86 58.25 178.86"/><polygon points="55.41 178.86 135.84 128.65 135.84 130.43 58.25 178.86 55.41 178.86"/><polygon points="52.98 178.86 52.86 178.68 135.84 126.88 135.84 128.65 55.41 178.86 52.98 178.86"/><polygon points="52.86 178.68 52.06 177.4 135.84 125.1 135.84 126.88 52.86 178.68"/><polygon points="52.06 177.4 51.26 176.13 135.84 123.33 135.84 125.1 52.06 177.4"/><polygon points="51.26 176.13 50.46 174.85 135.84 121.55 135.84 123.33 51.26 176.13"/><polygon points="50.46 174.85 49.66 173.57 135.84 119.77 135.84 121.55 50.46 174.85"/><polygon points="49.66 173.57 48.86 172.29 135.84 118 135.84 119.77 49.66 173.57"/><polygon points="48.86 172.29 48.06 171.02 135.84 116.22 135.84 118 48.86 172.29"/><polygon points="48.06 171.02 47.27 169.74 135.84 114.45 135.84 116.22 48.06 171.02"/><polygon points="47.27 169.74 46.47 168.47 135.84 112.67 135.84 114.45 47.27 169.74"/><polygon points="46.47 168.47 45.67 167.19 135.84 110.9 135.84 112.67 46.47 168.47"/><polygon points="45.67 167.19 44.87 165.91 135.84 109.12 135.84 110.9 45.67 167.19"/><polygon points="44.87 165.91 44.07 164.64 135.84 107.34 135.84 109.12 44.87 165.91"/><polygon points="44.07 164.64 43.27 163.36 135.84 105.57 135.84 107.34 44.07 164.64"/><polygon points="43.27 163.36 42.47 162.08 135.84 103.79 135.84 105.57 43.27 163.36"/><polygon points="42.47 162.08 41.67 160.81 135.84 102.02 135.84 103.79 42.47 162.08"/><polygon points="41.67 160.81 40.87 159.53 135.84 100.24 135.84 102.02 41.67 160.81"/><polygon points="40.87 159.53 40.07 158.25 135.84 98.47 135.84 100.24 40.87 159.53"/><polygon points="40.07 158.25 39.27 156.98 135.84 96.69 135.84 98.47 40.07 158.25"/><polygon points="39.27 156.98 38.47 155.7 135.84 94.92 135.84 96.69 39.27 156.98"/><polygon points="38.47 155.7 37.67 154.42 135.84 93.14 135.84 94.92 38.47 155.7"/><polygon points="37.67 154.42 36.87 153.15 135.84 91.36 135.84 93.14 37.67 154.42"/><polygon points="36.87 153.15 36.07 151.87 135.84 89.59 135.84 91.36 36.87 153.15"/><polygon points="36.07 151.87 35.27 150.59 135.84 87.81 135.84 89.59 36.07 151.87"/><polygon points="35.27 150.59 34.48 149.32 135.84 86.04 135.84 87.81 35.27 150.59"/><polygon points="34.48 149.32 33.68 148.04 135.84 84.26 135.84 86.04 34.48 149.32"/><polygon points="33.68 148.04 32.88 146.76 135.84 82.49 135.84 84.26 33.68 148.04"/><polygon points="32.88 146.76 32.08 145.49 135.84 80.71 135.84 82.49 32.88 146.76"/><polygon points="32.08 145.49 31.28 144.21 135.84 78.94 135.84 80.71 32.08 145.49"/><polygon points="31.28 144.21 30.48 142.94 135.84 77.16 135.84 78.94 31.28 144.21"/><polygon points="30.48 142.94 29.68 141.66 135.84 75.38 135.84 77.16 30.48 142.94"/><polygon points="29.68 141.66 28.88 140.38 135.84 73.61 135.84 75.38 29.68 141.66"/><polygon points="28.88 140.38 28.3 139.46 28.3 138.97 135.84 71.83 135.84 73.61 28.88 140.38"/><polygon points="28.3 137.1 135.84 69.97 135.84 71.83 28.3 138.97 28.3 137.1"/><polygon points="28.3 135.24 135.84 68.1 135.84 69.97 28.3 137.1 28.3 135.24"/><polygon points="28.3 133.37 135.13 66.68 135.84 67.81 135.84 68.1 28.3 135.24 28.3 133.37"/><polygon points="28.3 131.5 134.29 65.34 135.13 66.68 28.3 133.37 28.3 131.5"/><polygon points="28.3 129.64 133.45 63.99 134.29 65.34 28.3 131.5 28.3 129.64"/><polygon points="28.3 127.77 132.61 62.65 133.45 63.99 28.3 129.64 28.3 127.77"/><polygon points="28.3 125.91 131.77 61.31 132.61 62.65 28.3 127.77 28.3 125.91"/><polygon points="28.3 124.04 130.93 59.97 131.77 61.31 28.3 125.91 28.3 124.04"/><polygon points="28.3 122.18 130.09 58.63 130.93 59.97 28.3 124.04 28.3 122.18"/><polygon points="28.3 120.31 129.25 57.29 130.09 58.63 28.3 122.18 28.3 120.31"/><polygon points="28.3 118.44 128.41 55.95 129.25 57.29 28.3 120.31 28.3 118.44"/><polygon points="28.3 116.58 127.57 54.6 128.41 55.95 28.3 118.44 28.3 116.58"/><polygon points="28.3 114.71 126.73 53.26 127.57 54.6 28.3 116.58 28.3 114.71"/><polygon points="28.3 112.85 125.89 51.92 126.73 53.26 28.3 114.71 28.3 112.85"/><polygon points="28.3 110.98 125.05 50.58 125.89 51.92 28.3 112.85 28.3 110.98"/><polygon points="28.3 109.11 124.21 49.24 125.05 50.58 28.3 110.98 28.3 109.11"/><polygon points="28.3 107.25 123.37 47.9 124.21 49.24 28.3 109.11 28.3 107.25"/><polygon points="28.3 105.38 122.53 46.55 123.37 47.9 28.3 107.25 28.3 105.38"/><polygon points="28.3 103.52 121.69 45.21 122.53 46.55 28.3 105.38 28.3 103.52"/><polygon points="28.3 101.65 120.85 43.87 121.69 45.21 28.3 103.52 28.3 101.65"/><polygon points="28.3 99.78 120.01 42.53 120.85 43.87 28.3 101.65 28.3 99.78"/><polygon points="28.3 97.92 119.17 41.19 120.01 42.53 28.3 99.78 28.3 97.92"/><polygon points="28.3 96.05 118.33 39.85 119.17 41.19 28.3 97.92 28.3 96.05"/><polygon points="28.3 94.19 117.49 38.51 118.33 39.85 28.3 96.05 28.3 94.19"/><polygon points="28.3 92.32 116.65 37.16 117.49 38.51 28.3 94.19 28.3 92.32"/><polygon points="28.3 90.45 115.81 35.82 116.65 37.16 28.3 92.32 28.3 90.45"/><polygon points="28.3 88.59 114.97 34.48 115.81 35.82 28.3 90.45 28.3 88.59"/><polygon points="28.3 86.72 114.13 33.14 114.97 34.48 28.3 88.59 28.3 86.72"/><polygon points="28.3 84.86 113.28 31.8 114.13 33.14 28.3 86.72 28.3 84.86"/><polygon points="28.3 82.99 112.44 30.46 113.28 31.8 28.3 84.86 28.3 82.99"/><polygon points="28.3 81.13 111.61 29.12 112.44 30.46 28.3 82.99 28.3 81.13"/><polygon points="28.3 79.26 110.14 28.16 111.01 28.16 111.61 29.12 28.3 81.13 28.3 79.26"/><polygon points="28.3 77.39 107.15 28.16 110.14 28.16 28.3 79.26 28.3 77.39"/><polygon points="28.3 75.53 104.17 28.16 107.15 28.16 28.3 77.39 28.3 75.53"/><polygon points="28.3 73.66 101.18 28.16 104.17 28.16 28.3 75.53 28.3 73.66"/><polygon points="28.3 71.8 98.19 28.16 101.18 28.16 28.3 73.66 28.3 71.8"/><polygon points="28.3 69.93 95.2 28.16 98.19 28.16 28.3 71.8 28.3 69.93"/><polygon points="28.3 68.06 92.21 28.16 95.2 28.16 28.3 69.93 28.3 68.06"/><polygon points="28.3 66.2 89.22 28.16 92.21 28.16 28.3 68.06 28.3 66.2"/><polygon points="28.3 64.33 86.23 28.16 89.22 28.16 28.3 66.2 28.3 64.33"/><polygon points="28.3 62.47 83.24 28.16 86.23 28.16 28.3 64.33 28.3 62.47"/><polygon points="28.3 60.6 80.25 28.16 83.24 28.16 28.3 62.47 28.3 60.6"/><polygon points="28.3 58.73 77.27 28.16 80.25 28.16 28.3 60.6 28.3 58.73"/><polygon points="28.3 56.87 74.28 28.16 77.27 28.16 28.3 58.73 28.3 56.87"/><polygon points="28.3 55 71.29 28.16 74.28 28.16 28.3 56.87 28.3 55"/><polygon points="28.3 53.14 68.3 28.16 71.29 28.16 28.3 55 28.3 53.14"/><polygon points="28.3 51.27 65.31 28.16 68.3 28.16 28.3 53.14 28.3 51.27"/><polygon points="28.3 49.41 62.32 28.16 65.31 28.16 28.3 51.27 28.3 49.41"/><polygon points="28.3 47.54 59.33 28.16 62.32 28.16 28.3 49.41 28.3 47.54"/><polygon points="28.3 45.67 56.34 28.16 59.33 28.16 28.3 47.54 28.3 45.67"/><polygon points="28.3 43.81 53.36 28.16 56.34 28.16 28.3 45.67 28.3 43.81"/><polygon points="28.3 41.94 50.37 28.16 53.36 28.16 28.3 43.81 28.3 41.94"/><polygon points="28.3 40.08 47.38 28.16 50.37 28.16 28.3 41.94 28.3 40.08"/><polygon points="47.38 28.16 28.3 40.08 28.3 28.16 47.38 28.16"/></g><path class="cls-2" d="M94.58,6.32,79.14,22.89H93.87v5.72H70.61V22.3L86.11,5.84H69.9V0H94.58Z"/><path class="cls-2" d="M94.58,184.21,79.14,200.78H93.87v5.72H70.61v-6.32l15.5-16.46H69.9v-5.84H94.58Z"/><path class="cls-2" d="M22.3,115.43,5.72,100v14.73H0V91.46H6.32L22.77,107V90.75h5.84v24.68Z"/><path class="cls-2" d="M157.23,115.43,140.65,100v14.73h-5.72V91.46h6.32L157.7,107V90.75h5.84v24.68Z"/></svg>