<svg id="Laag_1" data-name="Laag 1" xmlns="http://www.w3.org/2000/svg" viewBox="0 0 163.86 206.51"><defs><style>.cls-1{fill:#29ccc4;}.cls-2{fill:#036f7d;}.cls-3{fill:#299197;}.cls-4{fill:none;}</style></defs><title>zilliqa symbol_turqoise_white BG</title><polygon class="cls-1" points="113.13 99.99 55.36 128.41 113.13 155.8 113.13 177.89 28.98 137.99 28.93 116.24 87.48 87.46 28.98 59.72 28.98 37.63 113.13 77.53 113.13 99.99"/><polygon class="cls-2" points="28.98 37.63 51.22 28.62 135.37 68.51 113.13 77.53 28.98 37.63"/><polygon class="cls-3" points="113.13 99.99 135.37 90.97 135.37 68.51 113.13 77.53 113.13 99.99"/><polygon class="cls-3" points="113.13 155.8 113.13 111.64 135.37 101.42 135.37 168.87 113.13 177.89 113.13 155.8"/><path class="cls-4" d="M94.58,6.32,79.14,22.89H93.87v5.72H70.61V22.3L86.11,5.84H69.9V0H94.58Z"/><path class="cls-4" d="M94.58,184.21,79.14,200.78H93.87v5.72H70.61v-6.32l15.5-16.46H69.9v-5.84H94.58Z"/><path class="cls-4" d="M22.3,115.43,5.72,100v14.73H0V91.46H6.32L22.77,107V90.75h5.84v24.68Z"/><path class="cls-4" d="M157.23,115.43,140.65,100v14.73h-5.72V91.46h6.32L157.7,107V90.75h5.84v24.68Z"/></svg>