<svg id="Laag_1" data-name="Laag 1" xmlns="http://www.w3.org/2000/svg" viewBox="0 0 163.84 206.81"><defs><style>.cls-1{fill:#fff;}.cls-2{fill:none;}</style></defs><title>zilliqa symbol_black_white BG</title><polygon points="111.82 77.61 28.22 37.98 28.22 59.92 86.33 87.47 28.17 116.06 28.22 137.68 111.82 177.31 111.82 155.37 54.43 128.16 111.82 99.92 111.82 77.61"/><path class="cls-1" d="M112.57,178.5l-85.1-40.35-.06-22.56L84.6,87.49,27.47,60.4V36.79l85.1,40.35v23.26L56.16,128.15l56.41,26.75ZM29,137.2l82.09,38.92V155.85L52.7,128.17l58.37-28.71V78.09L29,39.17V59.45l59.09,28L28.92,116.53Z"/><path d="M133.91,68.66,50.31,29,28.22,38l83.6,39.63ZM109,76.3h0Z"/><path class="cls-1" d="M111.79,78.43l-.3-.14L26.35,37.92l24-9.73.3.14,85.14,40.37ZM30.09,38l81.75,38.76L132,68.6,50.29,29.84Z"/><polygon points="111.82 99.92 133.91 90.97 133.91 68.66 111.82 77.61 111.82 99.92"/><path class="cls-1" d="M111.06,101V77.11l23.6-9.57V91.47Zm1.51-22.92V98.81l20.59-8.35V69.77Z"/><polygon points="133.91 168.36 133.91 101.35 111.82 111.5 111.82 155.37 111.82 177.31 133.91 168.36"/><path class="cls-1" d="M111.06,178.43V111l23.6-10.84v68.69ZM112.57,112V176.2l20.59-8.35V102.52Z"/><path class="cls-2" d="M94.58,6.39,79.14,23H93.87v5.72H70.61V22.37L86.11,5.91H69.9V.07H94.58Z"/><path class="cls-2" d="M94.58,184.28,79.14,200.86H93.87v5.72H70.61v-6.32l15.5-16.46H69.9V178H94.58Z"/><path class="cls-2" d="M22.3,115.5,5.72,100.06v14.73H0V91.54H6.32L22.77,107V90.82h5.84V115.5Z"/><path class="cls-2" d="M157.23,115.5l-16.57-15.44v14.73h-5.72V91.54h6.32L157.7,107V90.82h5.84V115.5Z"/></svg>