<?xml version="1.0" encoding="utf-8"?>
<!-- Generator: Adobe Illustrator 16.0.0, SVG Export Plug-In . SVG Version: 6.00 Build 0)  -->
<!DOCTYPE svg PUBLIC "-//W3C//DTD SVG 1.1//EN" "http://www.w3.org/Graphics/SVG/1.1/DTD/svg11.dtd">
<svg version="1.1" xmlns="http://www.w3.org/2000/svg" xmlns:xlink="http://www.w3.org/1999/xlink" x="0px" y="0px" width="191.8px"
	 height="287.8px" viewBox="0 0 191.8 287.8" style="enable-background:new 0 0 191.8 287.8;" xml:space="preserve">
<style type="text/css">
<![CDATA[
	.st0{fill:#555555;}
	.st1{fill:#231F20;}
	.st2{fill:#242828;}
	.st3{fill:#299197;}
	.st4{fill:#29CCC4;}
	.st5{clip-path:url(#SVGID_2_);}
	.st6{clip-path:url(#SVGID_4_);}
	.st7{clip-path:url(#SVGID_6_);}
	.st8{fill:#C5C5C5;}
	.st9{fill:#FFFFFF;}
	.st10{fill:none;}
	.st11{display:inline;}
	.st12{fill:#6F6F6F;}
	.st13{fill:#036F7D;}
	.st14{display:none;}
]]>
</style>
<g id="Laag_1">
	<line class="st1" x1="125.8" y1="76.8" x2="125.8" y2="76.8"/>
	<g>
		<path class="st12" d="M29.1,239.9l15-16.1H29.8v-5.5h22.5v6.1l-15,15.9H53v5.7H29.1V239.9z"/>
		<path class="st12" d="M55.4,208.9c0-1.1,0.4-2.1,1.2-2.9c0.8-0.8,1.9-1.2,3.1-1.2c1.3,0,2.3,0.4,3.2,1.2c0.9,0.8,1.3,1.8,1.3,3
			c0,1.2-0.4,2.2-1.3,3c-0.9,0.8-1.9,1.2-3.2,1.2c-1.3,0-2.3-0.4-3.1-1.2C55.8,211,55.4,210,55.4,208.9z M56.4,218.3h6.9V246h-6.9
			V218.3z"/>
		<path class="st12" d="M69,202.3h6.9V246H69V202.3z"/>
		<path class="st12" d="M81.5,202.3h6.9V246h-6.9V202.3z"/>
		<path class="st12" d="M93.2,208.9c0-1.1,0.4-2.1,1.2-2.9c0.8-0.8,1.9-1.2,3.1-1.2s2.3,0.4,3.2,1.2c0.9,0.8,1.3,1.8,1.3,3
			c0,1.2-0.4,2.2-1.3,3c-0.9,0.8-1.9,1.2-3.2,1.2s-2.3-0.4-3.1-1.2C93.6,211,93.2,210,93.2,208.9z M94.1,218.3h6.9V246h-6.9V218.3z"
			/>
		<path class="st12" d="M134.8,259.8h-6.9v-17.6h-0.1c-0.9,1.4-2.1,2.5-3.8,3.3c-1.6,0.8-3.4,1.2-5.4,1.2c-2.1,0-4-0.4-5.7-1.2
			c-1.7-0.8-3.1-1.8-4.3-3.2s-2.1-2.9-2.7-4.7c-0.6-1.8-1-3.7-1-5.7s0.3-3.9,1-5.7c0.7-1.8,1.6-3.3,2.8-4.6c1.2-1.3,2.6-2.3,4.3-3.1
			c1.7-0.8,3.5-1.1,5.4-1.1c1.3,0,2.4,0.1,3.4,0.4c1,0.3,1.9,0.7,2.7,1.1c0.8,0.4,1.5,0.9,2,1.5c0.6,0.6,1,1.1,1.4,1.6h0.2v-3.9h6.6
			V259.8z M112,232c0,1.1,0.2,2.2,0.5,3.2c0.3,1.1,0.8,2,1.5,2.9c0.7,0.8,1.5,1.5,2.5,2.1c1,0.5,2.2,0.8,3.5,0.8
			c1.3,0,2.4-0.3,3.4-0.8c1-0.5,1.9-1.2,2.6-2c0.7-0.8,1.3-1.8,1.6-2.9c0.4-1.1,0.5-2.1,0.5-3.2c0-1.1-0.2-2.2-0.5-3.2
			c-0.4-1.1-0.9-2-1.6-2.9c-0.7-0.8-1.6-1.5-2.6-2.1c-1-0.5-2.1-0.8-3.4-0.8c-1.3,0-2.5,0.3-3.5,0.8c-1,0.5-1.8,1.2-2.5,2
			c-0.7,0.8-1.1,1.8-1.5,2.9C112.1,229.9,112,230.9,112,232z"/>
		<path class="st12" d="M157.4,242.5h-0.2c-0.7,1.2-1.8,2.2-3.3,3c-1.5,0.8-3.3,1.2-5.3,1.2c-1.1,0-2.3-0.1-3.5-0.4
			c-1.2-0.3-2.3-0.8-3.3-1.4s-1.9-1.6-2.5-2.7c-0.7-1.1-1-2.5-1-4.1c0-2.1,0.6-3.7,1.8-5c1.2-1.2,2.7-2.2,4.5-2.8
			c1.8-0.7,3.9-1.1,6.1-1.3c2.3-0.2,4.5-0.3,6.6-0.3V228c0-1.7-0.6-3-1.9-3.8c-1.3-0.8-2.7-1.2-4.5-1.2c-1.5,0-2.9,0.3-4.2,0.9
			c-1.3,0.6-2.5,1.4-3.3,2.3l-3.6-4.2c1.6-1.5,3.4-2.6,5.5-3.3c2.1-0.7,4.1-1.1,6.3-1.1c2.5,0,4.5,0.3,6.1,1
			c1.6,0.7,2.9,1.6,3.8,2.7c0.9,1.1,1.6,2.4,1.9,3.8c0.4,1.4,0.5,2.8,0.5,4.2V246h-6.5V242.5z M157.3,233.3h-1.6
			c-1.1,0-2.3,0-3.5,0.1c-1.2,0.1-2.4,0.3-3.4,0.6c-1,0.3-1.9,0.8-2.6,1.4c-0.7,0.6-1,1.4-1,2.5c0,0.7,0.1,1.2,0.4,1.6
			c0.3,0.4,0.7,0.8,1.1,1.1c0.5,0.3,1,0.5,1.6,0.6c0.6,0.1,1.2,0.2,1.7,0.2c2.4,0,4.2-0.6,5.4-1.9c1.2-1.3,1.8-3,1.8-5.2V233.3z"/>
	</g>
	<polygon class="st12" points="128.5,100.6 70.8,129 128.5,156.4 128.5,178.5 44.4,138.6 44.3,116.9 102.9,88.1 44.4,60.4 
		44.4,38.3 128.5,78.2 	"/>
	<polygon class="st2" points="44.4,38.3 66.6,29.2 150.8,69.1 128.5,78.2 	"/>
	<polygon class="st0" points="128.5,100.6 150.8,91.6 150.8,69.1 128.5,78.2 	"/>
	<polygon class="st0" points="128.5,156.4 128.5,112.3 150.8,102.1 150.8,169.5 128.5,178.5 	"/>
	<path class="st10" d="M105.9,202.9l-16.6-15.4v14.7h-5.7v-23.3H90l16.5,15.5v-16.2h5.8v24.7H105.9z"/>
	<path class="st10" d="M110.3,6.9L94.8,23.5h14.7v5.7H86.3v-6.3l15.5-16.5H85.6V0.6h24.7V6.9z"/>
	<path class="st10" d="M110.3,266.2l-15.4,16.6h14.7v5.7H86.3v-6.3l15.5-16.5H85.6v-5.8h24.7V266.2z"/>
	<path class="st10" d="M186.7,202.9l-16.6-15.4v14.7h-5.7v-23.3h6.3l16.5,15.5v-16.2h5.8v24.7H186.7z"/>
	<path class="st10" d="M22.9,202.9L6.3,187.4v14.7H0.6v-23.3h6.3l16.5,15.5v-16.2h5.8v24.7H22.9z"/>
</g>
<g id="guide_1" class="st14">
</g>
<g id="guide_2" class="st14">
</g>
<g id="guide_3" class="st14">
</g>
<g id="guide_4" class="st14">
</g>
</svg>
