<svg id="Laag_1" data-name="Laag 1" xmlns="http://www.w3.org/2000/svg" xmlns:xlink="http://www.w3.org/1999/xlink" viewBox="0 0 191.78 287.84"><defs><style>.cls-1{clip-path:url(#clip-path);}.cls-2{fill:none;}</style><clipPath id="clip-path"><path d="M149.66,91.66V68.56L65.37,28.16,42.12,38.25V61.6l56,26.79-56,27.25V138.7l84.78,40.16,22.76-10.1V99.44L125.5,110.16V154l-52-25,54-27.53ZM128.34,98v-18l18.48-8.4V89.82Zm16.54-28.6-17.95,8.16L47,39.25l18.34-8ZM128.34,112l18.48-8.2v63.11l-18.48,8.2V112Zm-2.84,45.14v17.91L45,136.91v-19.5l59.64-29L45,59.81V41.44L125.5,80V99.33L67.11,129.09Z"/></clipPath></defs><title>Zilliqa secondary Logo_white_white Bg</title><path d="M149.66,91.66V68.56L65.37,28.16,42.12,38.25V61.6l56,26.79-56,27.25V138.7l84.78,40.16,22.76-10.1V99.44L125.5,110.16V154l-52-25,54-27.53ZM128.34,98v-18l18.48-8.4V89.82Zm16.54-28.6-17.95,8.16L47,39.25l18.34-8ZM128.34,112l18.48-8.2v63.11l-18.48,8.2V112Zm-2.84,45.14v17.91L45,136.91v-19.5l59.64-29L45,59.81V41.44L125.5,80V99.33L67.11,129.09Z"/><g class="cls-1"><polygon points="123.68 175.06 125.5 173.92 125.5 175.06 123.68 175.06"/><polygon points="120.83 175.06 125.5 172.14 125.5 173.92 123.68 175.06 120.83 175.06"/><polygon points="117.99 175.06 125.5 170.37 125.5 172.14 120.83 175.06 117.99 175.06"/><polygon points="115.15 175.06 125.5 168.59 125.5 170.37 117.99 175.06 115.15 175.06"/><polygon points="112.3 175.06 125.5 166.82 125.5 168.59 115.15 175.06 112.3 175.06"/><polygon points="109.46 175.06 125.5 165.04 125.5 166.82 112.3 175.06 109.46 175.06"/><polygon points="106.61 175.06 125.5 163.27 125.5 165.04 109.46 175.06 106.61 175.06"/><polygon points="103.77 175.06 125.5 161.49 125.5 163.27 106.61 175.06 103.77 175.06"/><polygon points="100.93 175.06 125.5 159.72 125.5 161.49 103.77 175.06 100.93 175.06"/><polygon points="98.08 175.06 125.5 157.94 125.5 159.72 100.93 175.06 98.08 175.06"/><polygon points="95.24 175.06 125.5 156.16 125.5 157.94 98.08 175.06 95.24 175.06"/><polygon points="92.39 175.06 125.5 154.39 125.5 156.16 95.24 175.06 92.39 175.06"/><polygon points="89.55 175.06 125.5 152.61 125.5 154.39 92.39 175.06 89.55 175.06"/><polygon points="86.71 175.06 125.5 150.84 125.5 152.61 89.55 175.06 86.71 175.06"/><polygon points="83.86 175.06 125.5 149.06 125.5 150.84 86.71 175.06 83.86 175.06"/><polygon points="81.02 175.06 125.5 147.29 125.5 149.06 83.86 175.06 81.02 175.06"/><polygon points="78.17 175.06 125.5 145.51 125.5 147.29 81.02 175.06 78.17 175.06"/><polygon points="75.33 175.06 125.5 143.74 125.5 145.51 78.17 175.06 75.33 175.06"/><polygon points="72.49 175.06 125.5 141.96 125.5 143.74 75.33 175.06 72.49 175.06"/><polygon points="69.64 175.06 125.5 140.18 125.5 141.96 72.49 175.06 69.64 175.06"/><polygon points="68.38 175.06 67.94 174.34 125.5 138.41 125.5 140.18 69.64 175.06 68.38 175.06"/><polygon points="67.94 174.34 67.14 173.07 125.5 136.63 125.5 138.41 67.94 174.34"/><polygon points="67.14 173.07 66.34 171.79 125.5 134.86 125.5 136.63 67.14 173.07"/><polygon points="66.34 171.79 65.54 170.51 125.5 133.08 125.5 134.86 66.34 171.79"/><polygon points="65.54 170.51 64.74 169.24 125.5 131.31 125.5 133.08 65.54 170.51"/><polygon points="64.74 169.24 63.94 167.96 125.5 129.53 125.5 131.31 64.74 169.24"/><polygon points="63.94 167.96 63.14 166.69 125.5 127.75 125.5 129.53 63.94 167.96"/><polygon points="63.14 166.69 62.34 165.41 125.5 125.98 125.5 127.75 63.14 166.69"/><polygon points="62.34 165.41 61.54 164.13 125.5 124.2 125.5 125.98 62.34 165.41"/><polygon points="61.54 164.13 60.74 162.86 125.5 122.43 125.5 124.2 61.54 164.13"/><polygon points="60.74 162.86 59.95 161.58 125.5 120.65 125.5 122.43 60.74 162.86"/><polygon points="59.95 161.58 59.15 160.3 125.5 118.88 125.5 120.65 59.95 161.58"/><polygon points="59.15 160.3 58.35 159.03 125.5 117.1 125.5 118.88 59.15 160.3"/><polygon points="58.35 159.03 57.55 157.75 125.5 115.33 125.5 117.1 58.35 159.03"/><polygon points="57.55 157.75 56.75 156.47 125.5 113.55 125.5 115.33 57.55 157.75"/><polygon points="56.75 156.47 55.95 155.2 125.5 111.77 125.5 113.55 56.75 156.47"/><polygon points="55.95 155.2 55.15 153.92 125.5 110 125.5 111.77 55.95 155.2"/><polygon points="55.15 153.92 54.35 152.64 125.5 108.22 125.5 110 55.15 153.92"/><polygon points="54.35 152.64 53.55 151.37 125.5 106.45 125.5 108.22 54.35 152.64"/><polygon points="53.55 151.37 52.75 150.09 125.5 104.67 125.5 106.45 53.55 151.37"/><polygon points="52.75 150.09 51.95 148.81 125.5 102.9 125.5 104.67 52.75 150.09"/><polygon points="51.95 148.81 51.15 147.54 125.5 101.12 125.5 102.9 51.95 148.81"/><polygon points="51.15 147.54 50.35 146.26 125.5 99.35 125.5 101.12 51.15 147.54"/><polygon points="50.35 146.26 49.55 144.99 125.5 97.57 125.5 99.35 50.35 146.26"/><polygon points="49.55 144.99 48.75 143.71 125.5 95.79 125.5 97.57 49.55 144.99"/><polygon points="48.75 143.71 47.95 142.43 125.5 94.02 125.5 95.79 48.75 143.71"/><polygon points="47.95 142.43 47.16 141.16 125.5 92.24 125.5 94.02 47.95 142.43"/><polygon points="47.16 141.16 46.35 139.88 125.5 90.47 125.5 92.24 47.16 141.16"/><polygon points="46.35 139.88 45.56 138.6 125.5 88.69 125.5 90.47 46.35 139.88"/><polygon points="45.56 138.6 44.97 137.66 44.97 137.19 125.5 86.92 125.5 88.69 45.56 138.6"/><polygon points="44.97 135.33 125.5 85.05 125.5 86.92 44.97 137.19 44.97 135.33"/><polygon points="44.97 133.46 125.5 83.19 125.5 85.05 44.97 135.33 44.97 133.46"/><polygon points="44.97 131.6 125.5 81.32 125.5 83.19 44.97 133.46 44.97 131.6"/><polygon points="44.97 129.73 125.5 79.45 125.5 81.32 44.97 131.6 44.97 129.73"/><polygon points="44.97 127.86 124.73 78.07 125.5 79.29 125.5 79.45 44.97 129.73 44.97 127.86"/><polygon points="44.97 126 123.89 76.72 124.73 78.07 44.97 127.86 44.97 126"/><polygon points="44.97 124.13 123.05 75.38 123.89 76.72 44.97 126 44.97 124.13"/><polygon points="44.97 122.27 122.21 74.04 123.05 75.38 44.97 124.13 44.97 122.27"/><polygon points="44.97 120.4 121.37 72.7 122.21 74.04 44.97 122.27 44.97 120.4"/><polygon points="44.97 118.53 120.53 71.36 121.37 72.7 44.97 120.4 44.97 118.53"/><polygon points="44.97 116.67 119.69 70.02 120.53 71.36 44.97 118.53 44.97 116.67"/><polygon points="44.97 114.8 118.85 68.67 119.69 70.02 44.97 116.67 44.97 114.8"/><polygon points="44.97 112.94 118.01 67.33 118.85 68.67 44.97 114.8 44.97 112.94"/><polygon points="44.97 111.07 117.17 65.99 118.01 67.33 44.97 112.94 44.97 111.07"/><polygon points="44.97 109.21 116.33 64.65 117.17 65.99 44.97 111.07 44.97 109.21"/><polygon points="44.97 107.34 115.49 63.31 116.33 64.65 44.97 109.21 44.97 107.34"/><polygon points="44.97 105.47 114.65 61.97 115.49 63.31 44.97 107.34 44.97 105.47"/><polygon points="44.97 103.61 113.81 60.63 114.65 61.97 44.97 105.47 44.97 103.61"/><polygon points="44.97 101.74 112.97 59.28 113.81 60.63 44.97 103.61 44.97 101.74"/><polygon points="44.97 99.88 112.13 57.94 112.97 59.28 44.97 101.74 44.97 99.88"/><polygon points="44.97 98.01 111.29 56.6 112.13 57.94 44.97 99.88 44.97 98.01"/><polygon points="44.97 96.14 110.45 55.26 111.29 56.6 44.97 98.01 44.97 96.14"/><polygon points="44.97 94.28 109.61 53.92 110.45 55.26 44.97 96.14 44.97 94.28"/><polygon points="44.97 92.41 108.77 52.58 109.61 53.92 44.97 94.28 44.97 92.41"/><polygon points="44.97 90.55 107.93 51.24 108.77 52.58 44.97 92.41 44.97 90.55"/><polygon points="44.97 88.68 107.09 49.9 107.93 51.24 44.97 90.55 44.97 88.68"/><polygon points="44.97 86.81 106.25 48.55 107.09 49.9 44.97 88.68 44.97 86.81"/><polygon points="44.97 84.95 105.41 47.21 106.25 48.55 44.97 86.81 44.97 84.95"/><polygon points="44.97 83.08 104.57 45.87 105.41 47.21 44.97 84.95 44.97 83.08"/><polygon points="44.97 81.22 103.73 44.53 104.57 45.87 44.97 83.08 44.97 81.22"/><polygon points="44.97 79.35 102.89 43.19 103.73 44.53 44.97 81.22 44.97 79.35"/><polygon points="44.97 77.48 102.05 41.85 102.89 43.19 44.97 79.35 44.97 77.48"/><polygon points="44.97 75.62 99.72 41.44 101.8 41.44 102.05 41.85 44.97 77.48 44.97 75.62"/><polygon points="44.97 73.75 96.73 41.44 99.72 41.44 44.97 75.62 44.97 73.75"/><polygon points="44.97 71.89 93.74 41.44 96.73 41.44 44.97 73.75 44.97 71.89"/><polygon points="44.97 70.02 90.75 41.44 93.74 41.44 44.97 71.89 44.97 70.02"/><polygon points="44.97 68.16 87.76 41.44 90.75 41.44 44.97 70.02 44.97 68.16"/><polygon points="44.97 66.29 84.77 41.44 87.76 41.44 44.97 68.16 44.97 66.29"/><polygon points="44.97 64.42 81.78 41.44 84.77 41.44 44.97 66.29 44.97 64.42"/><polygon points="44.97 62.56 78.79 41.44 81.78 41.44 44.97 64.42 44.97 62.56"/><polygon points="44.97 60.69 75.81 41.44 78.79 41.44 44.97 62.56 44.97 60.69"/><polygon points="44.97 58.83 72.82 41.44 75.81 41.44 44.97 60.69 44.97 58.83"/><polygon points="44.97 56.96 69.83 41.44 72.82 41.44 44.97 58.83 44.97 56.96"/><polygon points="44.97 55.09 66.84 41.44 69.83 41.44 44.97 56.96 44.97 55.09"/><polygon points="44.97 53.23 63.85 41.44 66.84 41.44 44.97 55.09 44.97 53.23"/><polygon points="44.97 51.36 60.86 41.44 63.85 41.44 44.97 53.23 44.97 51.36"/><polygon points="44.97 49.5 57.87 41.44 60.86 41.44 44.97 51.36 44.97 49.5"/><polygon points="44.97 47.63 54.88 41.44 57.87 41.44 44.97 49.5 44.97 47.63"/><polygon points="44.97 45.76 51.9 41.44 54.88 41.44 44.97 47.63 44.97 45.76"/><polygon points="44.97 43.9 48.91 41.44 51.9 41.44 44.97 45.76 44.97 43.9"/><polygon points="44.97 42.03 45.92 41.44 48.91 41.44 44.97 43.9 44.97 42.03"/><polygon points="45.92 41.44 44.97 42.03 44.97 41.44 45.92 41.44"/><polygon points="134.96 175.12 146.82 167.71 146.82 175.12 134.96 175.12"/><polygon points="132.11 175.12 146.82 165.94 146.82 167.71 134.96 175.12 132.11 175.12"/><polygon points="129.27 175.12 146.82 164.16 146.82 165.94 132.11 175.12 129.27 175.12"/><polygon points="128.34 173.92 146.82 162.39 146.82 164.16 129.27 175.12 128.34 175.12 128.34 173.92"/><polygon points="128.34 172.15 146.82 160.61 146.82 162.39 128.34 173.92 128.34 172.15"/><polygon points="128.34 170.37 146.82 158.84 146.82 160.61 128.34 172.15 128.34 170.37"/><polygon points="128.34 168.59 146.82 157.06 146.82 158.84 128.34 170.37 128.34 168.59"/><polygon points="128.34 166.82 146.82 155.28 146.82 157.06 128.34 168.59 128.34 166.82"/><polygon points="128.34 165.04 146.82 153.51 146.82 155.28 128.34 166.82 128.34 165.04"/><polygon points="128.34 163.27 146.82 151.73 146.82 153.51 128.34 165.04 128.34 163.27"/><polygon points="128.34 161.49 146.82 149.96 146.82 151.73 128.34 163.27 128.34 161.49"/><polygon points="128.34 159.72 146.82 148.18 146.82 149.96 128.34 161.49 128.34 159.72"/><polygon points="128.34 157.94 146.82 146.41 146.82 148.18 128.34 159.72 128.34 157.94"/><polygon points="128.34 156.16 146.82 144.63 146.82 146.41 128.34 157.94 128.34 156.16"/><polygon points="128.34 154.39 146.82 142.85 146.82 144.63 128.34 156.16 128.34 154.39"/><polygon points="128.34 152.61 146.82 141.08 146.82 142.85 128.34 154.39 128.34 152.61"/><polygon points="128.34 150.84 146.82 139.3 146.82 141.08 128.34 152.61 128.34 150.84"/><polygon points="128.34 149.06 146.82 137.53 146.82 139.3 128.34 150.84 128.34 149.06"/><polygon points="128.34 147.29 146.82 135.75 146.82 137.53 128.34 149.06 128.34 147.29"/><polygon points="128.34 145.51 146.82 133.98 146.82 135.75 128.34 147.29 128.34 145.51"/><polygon points="128.34 143.74 146.82 132.2 146.82 133.98 128.34 145.51 128.34 143.74"/><polygon points="128.34 141.96 146.82 130.43 146.82 132.2 128.34 143.74 128.34 141.96"/><polygon points="128.34 140.18 146.82 128.65 146.82 130.43 128.34 141.96 128.34 140.18"/><polygon points="128.34 138.41 146.82 126.88 146.82 128.65 128.34 140.18 128.34 138.41"/><polygon points="128.34 136.63 146.82 125.1 146.82 126.88 128.34 138.41 128.34 136.63"/><polygon points="128.34 134.86 146.82 123.32 146.82 125.1 128.34 136.63 128.34 134.86"/><polygon points="128.34 133.08 146.82 121.55 146.82 123.32 128.34 134.86 128.34 133.08"/><polygon points="128.34 131.31 146.82 119.77 146.82 121.55 128.34 133.08 128.34 131.31"/><polygon points="128.34 129.53 146.82 118 146.82 119.77 128.34 131.31 128.34 129.53"/><polygon points="128.34 127.76 146.82 116.22 146.82 118 128.34 129.53 128.34 127.76"/><polygon points="128.34 125.98 146.82 114.45 146.82 116.22 128.34 127.76 128.34 125.98"/><polygon points="128.34 124.2 146.82 112.67 146.82 114.45 128.34 125.98 128.34 124.2"/><polygon points="128.34 122.43 146.82 110.89 146.82 112.67 128.34 124.2 128.34 122.43"/><polygon points="128.34 120.65 146.82 109.12 146.82 110.89 128.34 122.43 128.34 120.65"/><polygon points="128.34 118.88 146.82 107.34 146.82 109.12 128.34 120.65 128.34 118.88"/><polygon points="128.34 117.1 146.82 105.57 146.82 107.34 128.34 118.88 128.34 117.1"/><polygon points="128.34 115.33 146.8 103.8 146.82 103.8 146.82 105.57 128.34 117.1 128.34 115.33"/><polygon points="128.34 113.55 143.96 103.8 146.8 103.8 128.34 115.33 128.34 113.55"/><polygon points="128.34 111.78 141.11 103.8 143.96 103.8 128.34 113.55 128.34 111.78"/><polygon points="128.34 110 138.27 103.8 141.11 103.8 128.34 111.78 128.34 110"/><polygon points="128.34 108.22 135.42 103.8 138.27 103.8 128.34 110 128.34 108.22"/><polygon points="128.34 106.45 132.58 103.8 135.42 103.8 128.34 108.22 128.34 106.45"/><polygon points="128.34 104.67 129.74 103.8 132.58 103.8 128.34 106.45 128.34 104.67"/><polygon points="129.74 103.8 128.34 104.67 128.34 103.8 129.74 103.8"/><polygon points="143.29 77.59 144.88 76.59 144.88 77.59 143.29 77.59"/><polygon points="140.44 77.59 144.88 74.81 144.88 76.59 143.29 77.59 140.44 77.59"/><polygon points="137.46 77.59 144.88 72.95 144.88 74.81 140.44 77.59 137.46 77.59"/><polygon points="134.47 77.59 144.88 71.08 144.88 72.95 137.46 77.59 134.47 77.59"/><polygon points="131.48 77.59 144.88 69.22 144.88 71.08 134.47 77.59 131.48 77.59"/><polygon points="128.49 77.59 144.29 67.72 144.88 68.67 144.88 69.22 131.48 77.59 128.49 77.59"/><polygon points="125.5 77.59 143.45 66.38 144.29 67.72 128.49 77.59 125.5 77.59"/><polygon points="122.51 77.59 142.61 65.04 143.45 66.38 125.5 77.59 122.51 77.59"/><polygon points="119.52 77.59 141.77 63.7 142.61 65.04 122.51 77.59 119.52 77.59"/><polygon points="116.53 77.59 140.93 62.35 141.77 63.7 119.52 77.59 116.53 77.59"/><polygon points="113.55 77.59 140.09 61.01 140.93 62.35 116.53 77.59 113.55 77.59"/><polygon points="110.56 77.59 139.25 59.67 140.09 61.01 113.55 77.59 110.56 77.59"/><polygon points="107.57 77.59 138.41 58.33 139.25 59.67 110.56 77.59 107.57 77.59"/><polygon points="104.58 77.59 137.57 56.99 138.41 58.33 107.57 77.59 104.58 77.59"/><polygon points="101.59 77.59 136.73 55.65 137.57 56.99 104.58 77.59 101.59 77.59"/><polygon points="98.6 77.59 135.89 54.31 136.73 55.65 101.59 77.59 98.6 77.59"/><polygon points="95.61 77.59 135.05 52.97 135.89 54.31 98.6 77.59 95.61 77.59"/><polygon points="92.63 77.59 134.21 51.62 135.05 52.97 95.61 77.59 92.63 77.59"/><polygon points="89.64 77.59 133.37 50.28 134.21 51.62 92.63 77.59 89.64 77.59"/><polygon points="86.65 77.59 132.53 48.94 133.37 50.28 89.64 77.59 86.65 77.59"/><polygon points="83.66 77.59 131.69 47.6 132.53 48.94 86.65 77.59 83.66 77.59"/><polygon points="80.67 77.59 130.85 46.26 131.69 47.6 83.66 77.59 80.67 77.59"/><polygon points="77.68 77.59 130.01 44.92 130.85 46.26 80.67 77.59 77.68 77.59"/><polygon points="74.69 77.59 129.17 43.58 130.01 44.92 77.68 77.59 74.69 77.59"/><polygon points="71.7 77.59 128.33 42.23 129.17 43.58 74.69 77.59 71.7 77.59"/><polygon points="70.5 77.59 70 76.79 127.49 40.89 128.33 42.23 71.7 77.59 70.5 77.59"/><polygon points="70 76.79 69.16 75.44 126.65 39.55 127.49 40.89 70 76.79"/><polygon points="69.16 75.44 68.32 74.1 125.81 38.21 126.65 39.55 69.16 75.44"/><polygon points="68.32 74.1 67.48 72.76 124.97 36.87 125.81 38.21 68.32 74.1"/><polygon points="67.48 72.76 66.64 71.42 124.13 35.53 124.97 36.87 67.48 72.76"/><polygon points="66.64 71.42 65.8 70.08 123.29 34.18 124.13 35.53 66.64 71.42"/><polygon points="65.8 70.08 64.96 68.74 122.45 32.84 123.29 34.18 65.8 70.08"/><polygon points="64.96 68.74 64.12 67.39 121.61 31.5 122.45 32.84 64.96 68.74"/><polygon points="64.12 67.39 63.28 66.05 118.97 31.28 121.47 31.28 121.61 31.5 64.12 67.39"/><polygon points="63.28 66.05 62.44 64.71 115.98 31.28 118.97 31.28 63.28 66.05"/><polygon points="62.44 64.71 61.6 63.37 112.99 31.28 115.98 31.28 62.44 64.71"/><polygon points="61.6 63.37 60.76 62.03 110 31.28 112.99 31.28 61.6 63.37"/><polygon points="60.76 62.03 59.92 60.69 107.02 31.28 110 31.28 60.76 62.03"/><polygon points="59.92 60.69 59.08 59.35 104.03 31.28 107.02 31.28 59.92 60.69"/><polygon points="59.08 59.35 58.24 58.01 101.04 31.28 104.03 31.28 59.08 59.35"/><polygon points="58.24 58.01 57.4 56.66 98.05 31.28 101.04 31.28 58.24 58.01"/><polygon points="57.4 56.66 56.56 55.32 95.06 31.28 98.05 31.28 57.4 56.66"/><polygon points="56.56 55.32 55.72 53.98 92.07 31.28 95.06 31.28 56.56 55.32"/><polygon points="55.72 53.98 54.88 52.64 89.08 31.28 92.07 31.28 55.72 53.98"/><polygon points="54.88 52.64 54.04 51.3 86.09 31.28 89.08 31.28 54.88 52.64"/><polygon points="54.04 51.3 53.2 49.96 83.11 31.28 86.09 31.28 54.04 51.3"/><polygon points="53.2 49.96 52.36 48.62 80.12 31.28 83.11 31.28 53.2 49.96"/><polygon points="52.36 48.62 51.52 47.27 77.13 31.28 80.12 31.28 52.36 48.62"/><polygon points="51.52 47.27 50.68 45.93 74.14 31.28 77.13 31.28 51.52 47.27"/><polygon points="50.68 45.93 49.84 44.59 71.15 31.28 74.14 31.28 50.68 45.93"/><polygon points="49.84 44.59 49 43.25 68.16 31.28 71.15 31.28 49.84 44.59"/><polygon points="49 43.25 48.16 41.91 65.17 31.28 68.16 31.28 49 43.25"/><polygon points="48.16 41.91 47.31 40.57 62.18 31.28 65.17 31.28 48.16 41.91"/><polygon points="47.31 40.57 46.96 40 46.96 38.92 59.2 31.28 62.18 31.28 47.31 40.57"/><polygon points="46.96 37.05 56.21 31.28 59.2 31.28 46.96 38.92 46.96 37.05"/><polygon points="56.21 31.28 46.96 37.05 46.96 31.28 56.21 31.28"/><polygon points="144.69 98.02 146.82 96.69 146.82 98.02 144.69 98.02"/><polygon points="141.85 98.02 146.82 94.91 146.82 96.69 144.69 98.02 141.85 98.02"/><polygon points="139 98.02 146.82 93.14 146.82 94.91 141.85 98.02 139 98.02"/><polygon points="136.16 98.02 146.82 91.36 146.82 93.14 139 98.02 136.16 98.02"/><polygon points="133.31 98.02 146.82 89.59 146.82 91.36 136.16 98.02 133.31 98.02"/><polygon points="130.47 98.02 146.82 87.81 146.82 89.59 133.31 98.02 130.47 98.02"/><polygon points="128.34 97.57 146.82 86.04 146.82 87.81 130.47 98.02 128.34 98.02 128.34 97.57"/><polygon points="128.34 95.8 146.82 84.26 146.82 86.04 128.34 97.57 128.34 95.8"/><polygon points="128.34 94.02 146.82 82.49 146.82 84.26 128.34 95.8 128.34 94.02"/><polygon points="128.34 92.24 146.82 80.71 146.82 82.49 128.34 94.02 128.34 92.24"/><polygon points="128.34 90.47 146.82 78.93 146.82 80.71 128.34 92.24 128.34 90.47"/><polygon points="128.34 88.69 146.82 77.16 146.82 78.93 128.34 90.47 128.34 88.69"/><polygon points="128.34 86.92 146.82 75.38 146.82 77.16 128.34 88.69 128.34 86.92"/><polygon points="128.34 85.14 146.82 73.61 146.82 75.38 128.34 86.92 128.34 85.14"/><polygon points="128.34 83.28 146.82 71.74 146.82 73.61 128.34 85.14 128.34 83.28"/><polygon points="128.34 81.41 143.96 71.66 146.82 71.66 146.82 71.74 128.34 83.28 128.34 81.41"/><polygon points="128.34 79.54 140.97 71.66 143.96 71.66 128.34 81.41 128.34 79.54"/><polygon points="128.34 77.68 137.98 71.66 140.97 71.66 128.34 79.54 128.34 77.68"/><polygon points="128.34 75.81 134.99 71.66 137.98 71.66 128.34 77.68 128.34 75.81"/><polygon points="128.34 73.95 132 71.66 134.99 71.66 128.34 75.81 128.34 73.95"/><polygon points="128.34 72.08 129.01 71.66 132 71.66 128.34 73.95 128.34 72.08"/><polygon points="129.01 71.66 128.34 72.08 128.34 71.66 129.01 71.66"/><polygon points="128.96 178.86 149.66 165.94 149.66 178.86 128.96 178.86"/><polygon points="126.11 178.86 149.66 164.16 149.66 165.94 128.96 178.86 126.11 178.86"/><polygon points="123.27 178.86 149.66 162.39 149.66 164.16 126.11 178.86 123.27 178.86"/><polygon points="120.43 178.86 149.66 160.61 149.66 162.39 123.27 178.86 120.43 178.86"/><polygon points="117.58 178.86 149.66 158.84 149.66 160.61 120.43 178.86 117.58 178.86"/><polygon points="114.74 178.86 149.66 157.06 149.66 158.84 117.58 178.86 114.74 178.86"/><polygon points="111.89 178.86 149.66 155.28 149.66 157.06 114.74 178.86 111.89 178.86"/><polygon points="109.05 178.86 149.66 153.51 149.66 155.28 111.89 178.86 109.05 178.86"/><polygon points="106.21 178.86 149.66 151.73 149.66 153.51 109.05 178.86 106.21 178.86"/><polygon points="103.36 178.86 149.66 149.96 149.66 151.73 106.21 178.86 103.36 178.86"/><polygon points="100.52 178.86 149.66 148.18 149.66 149.96 103.36 178.86 100.52 178.86"/><polygon points="97.67 178.86 149.66 146.41 149.66 148.18 100.52 178.86 97.67 178.86"/><polygon points="94.83 178.86 149.66 144.63 149.66 146.41 97.67 178.86 94.83 178.86"/><polygon points="91.99 178.86 149.66 142.86 149.66 144.63 94.83 178.86 91.99 178.86"/><polygon points="89.14 178.86 149.66 141.08 149.66 142.86 91.99 178.86 89.14 178.86"/><polygon points="86.3 178.86 149.66 139.31 149.66 141.08 89.14 178.86 86.3 178.86"/><polygon points="83.45 178.86 149.66 137.53 149.66 139.31 86.3 178.86 83.45 178.86"/><polygon points="80.61 178.86 149.66 135.75 149.66 137.53 83.45 178.86 80.61 178.86"/><polygon points="77.77 178.86 149.66 133.98 149.66 135.75 80.61 178.86 77.77 178.86"/><polygon points="74.92 178.86 149.66 132.2 149.66 133.98 77.77 178.86 74.92 178.86"/><polygon points="72.08 178.86 149.66 130.43 149.66 132.2 74.92 178.86 72.08 178.86"/><polygon points="69.23 178.86 149.66 128.65 149.66 130.43 72.08 178.86 69.23 178.86"/><polygon points="66.8 178.86 66.69 178.68 149.66 126.88 149.66 128.65 69.23 178.86 66.8 178.86"/><polygon points="66.69 178.68 65.89 177.4 149.66 125.1 149.66 126.88 66.69 178.68"/><polygon points="65.89 177.4 65.09 176.13 149.66 123.33 149.66 125.1 65.89 177.4"/><polygon points="65.09 176.13 64.29 174.85 149.66 121.55 149.66 123.33 65.09 176.13"/><polygon points="64.29 174.85 63.49 173.57 149.66 119.77 149.66 121.55 64.29 174.85"/><polygon points="63.49 173.57 62.69 172.29 149.66 118 149.66 119.77 63.49 173.57"/><polygon points="62.69 172.29 61.89 171.02 149.66 116.22 149.66 118 62.69 172.29"/><polygon points="61.89 171.02 61.09 169.74 149.66 114.45 149.66 116.22 61.89 171.02"/><polygon points="61.09 169.74 60.29 168.47 149.66 112.67 149.66 114.45 61.09 169.74"/><polygon points="60.29 168.47 59.49 167.19 149.66 110.9 149.66 112.67 60.29 168.47"/><polygon points="59.49 167.19 58.69 165.91 149.66 109.12 149.66 110.9 59.49 167.19"/><polygon points="58.69 165.91 57.89 164.64 149.66 107.34 149.66 109.12 58.69 165.91"/><polygon points="57.89 164.64 57.09 163.36 149.66 105.57 149.66 107.34 57.89 164.64"/><polygon points="57.09 163.36 56.29 162.08 149.66 103.79 149.66 105.57 57.09 163.36"/><polygon points="56.29 162.08 55.49 160.81 149.66 102.02 149.66 103.79 56.29 162.08"/><polygon points="55.49 160.81 54.7 159.53 149.66 100.24 149.66 102.02 55.49 160.81"/><polygon points="54.7 159.53 53.9 158.25 149.66 98.47 149.66 100.24 54.7 159.53"/><polygon points="53.9 158.25 53.1 156.98 149.66 96.69 149.66 98.47 53.9 158.25"/><polygon points="53.1 156.98 52.3 155.7 149.66 94.92 149.66 96.69 53.1 156.98"/><polygon points="52.3 155.7 51.5 154.42 149.66 93.14 149.66 94.92 52.3 155.7"/><polygon points="51.5 154.42 50.7 153.15 149.66 91.36 149.66 93.14 51.5 154.42"/><polygon points="50.7 153.15 49.9 151.87 149.66 89.59 149.66 91.36 50.7 153.15"/><polygon points="49.9 151.87 49.1 150.59 149.66 87.81 149.66 89.59 49.9 151.87"/><polygon points="49.1 150.59 48.3 149.32 149.66 86.04 149.66 87.81 49.1 150.59"/><polygon points="48.3 149.32 47.5 148.04 149.66 84.26 149.66 86.04 48.3 149.32"/><polygon points="47.5 148.04 46.7 146.76 149.66 82.49 149.66 84.26 47.5 148.04"/><polygon points="46.7 146.76 45.9 145.49 149.66 80.71 149.66 82.49 46.7 146.76"/><polygon points="45.9 145.49 45.1 144.21 149.66 78.94 149.66 80.71 45.9 145.49"/><polygon points="45.1 144.21 44.3 142.94 149.66 77.16 149.66 78.94 45.1 144.21"/><polygon points="44.3 142.94 43.5 141.66 149.66 75.38 149.66 77.16 44.3 142.94"/><polygon points="43.5 141.66 42.7 140.38 149.66 73.61 149.66 75.38 43.5 141.66"/><polygon points="42.7 140.38 42.13 139.46 42.13 138.97 149.66 71.83 149.66 73.61 42.7 140.38"/><polygon points="42.13 137.1 149.66 69.97 149.66 71.83 42.13 138.97 42.13 137.1"/><polygon points="42.13 135.24 149.66 68.1 149.66 69.97 42.13 137.1 42.13 135.24"/><polygon points="42.13 133.37 148.95 66.68 149.66 67.81 149.66 68.1 42.13 135.24 42.13 133.37"/><polygon points="42.13 131.5 148.11 65.34 148.95 66.68 42.13 133.37 42.13 131.5"/><polygon points="42.13 129.64 147.27 63.99 148.11 65.34 42.13 131.5 42.13 129.64"/><polygon points="42.13 127.77 146.43 62.65 147.27 63.99 42.13 129.64 42.13 127.77"/><polygon points="42.13 125.91 145.59 61.31 146.43 62.65 42.13 127.77 42.13 125.91"/><polygon points="42.13 124.04 144.75 59.97 145.59 61.31 42.13 125.91 42.13 124.04"/><polygon points="42.13 122.18 143.91 58.63 144.75 59.97 42.13 124.04 42.13 122.18"/><polygon points="42.13 120.31 143.07 57.29 143.91 58.63 42.13 122.18 42.13 120.31"/><polygon points="42.13 118.44 142.23 55.95 143.07 57.29 42.13 120.31 42.13 118.44"/><polygon points="42.13 116.58 141.39 54.6 142.23 55.95 42.13 118.44 42.13 116.58"/><polygon points="42.13 114.71 140.55 53.26 141.39 54.6 42.13 116.58 42.13 114.71"/><polygon points="42.13 112.85 139.71 51.92 140.55 53.26 42.13 114.71 42.13 112.85"/><polygon points="42.13 110.98 138.87 50.58 139.71 51.92 42.13 112.85 42.13 110.98"/><polygon points="42.13 109.11 138.03 49.24 138.87 50.58 42.13 110.98 42.13 109.11"/><polygon points="42.13 107.25 137.19 47.9 138.03 49.24 42.13 109.11 42.13 107.25"/><polygon points="42.13 105.38 136.35 46.55 137.19 47.9 42.13 107.25 42.13 105.38"/><polygon points="42.13 103.52 135.51 45.21 136.35 46.55 42.13 105.38 42.13 103.52"/><polygon points="42.13 101.65 134.67 43.87 135.51 45.21 42.13 103.52 42.13 101.65"/><polygon points="42.13 99.78 133.83 42.53 134.67 43.87 42.13 101.65 42.13 99.78"/><polygon points="42.13 97.92 132.99 41.19 133.83 42.53 42.13 99.78 42.13 97.92"/><polygon points="42.13 96.05 132.15 39.85 132.99 41.19 42.13 97.92 42.13 96.05"/><polygon points="42.13 94.19 131.31 38.51 132.15 39.85 42.13 96.05 42.13 94.19"/><polygon points="42.13 92.32 130.47 37.16 131.31 38.51 42.13 94.19 42.13 92.32"/><polygon points="42.13 90.45 129.63 35.82 130.47 37.16 42.13 92.32 42.13 90.45"/><polygon points="42.13 88.59 128.79 34.48 129.63 35.82 42.13 90.45 42.13 88.59"/><polygon points="42.13 86.72 127.95 33.14 128.79 34.48 42.13 88.59 42.13 86.72"/><polygon points="42.13 84.86 127.11 31.8 127.95 33.14 42.13 86.72 42.13 84.86"/><polygon points="42.13 82.99 126.27 30.46 127.11 31.8 42.13 84.86 42.13 82.99"/><polygon points="42.13 81.13 125.43 29.12 126.27 30.46 42.13 82.99 42.13 81.13"/><polygon points="42.13 79.26 123.97 28.16 124.83 28.16 125.43 29.12 42.13 81.13 42.13 79.26"/><polygon points="42.13 77.39 120.98 28.16 123.97 28.16 42.13 79.26 42.13 77.39"/><polygon points="42.13 75.53 117.99 28.16 120.98 28.16 42.13 77.39 42.13 75.53"/><polygon points="42.13 73.66 115 28.16 117.99 28.16 42.13 75.53 42.13 73.66"/><polygon points="42.13 71.8 112.01 28.16 115 28.16 42.13 73.66 42.13 71.8"/><polygon points="42.13 69.93 109.02 28.16 112.01 28.16 42.13 71.8 42.13 69.93"/><polygon points="42.13 68.06 106.03 28.16 109.02 28.16 42.13 69.93 42.13 68.06"/><polygon points="42.13 66.2 103.05 28.16 106.03 28.16 42.13 68.06 42.13 66.2"/><polygon points="42.13 64.33 100.06 28.16 103.05 28.16 42.13 66.2 42.13 64.33"/><polygon points="42.13 62.47 97.07 28.16 100.06 28.16 42.13 64.33 42.13 62.47"/><polygon points="42.13 60.6 94.08 28.16 97.07 28.16 42.13 62.47 42.13 60.6"/><polygon points="42.13 58.73 91.09 28.16 94.08 28.16 42.13 60.6 42.13 58.73"/><polygon points="42.13 56.87 88.1 28.16 91.09 28.16 42.13 58.73 42.13 56.87"/><polygon points="42.13 55 85.11 28.16 88.1 28.16 42.13 56.87 42.13 55"/><polygon points="42.13 53.14 82.13 28.16 85.11 28.16 42.13 55 42.13 53.14"/><polygon points="42.13 51.27 79.14 28.16 82.13 28.16 42.13 53.14 42.13 51.27"/><polygon points="42.13 49.41 76.15 28.16 79.14 28.16 42.13 51.27 42.13 49.41"/><polygon points="42.13 47.54 73.16 28.16 76.15 28.16 42.13 49.41 42.13 47.54"/><polygon points="42.13 45.67 70.17 28.16 73.16 28.16 42.13 47.54 42.13 45.67"/><polygon points="42.13 43.81 67.18 28.16 70.17 28.16 42.13 45.67 42.13 43.81"/><polygon points="42.13 41.94 64.19 28.16 67.18 28.16 42.13 43.81 42.13 41.94"/><polygon points="42.13 40.08 61.2 28.16 64.19 28.16 42.13 41.94 42.13 40.08"/><polygon points="61.2 28.16 42.13 40.08 42.13 28.16 61.2 28.16"/></g><path class="cls-2" d="M105.32,202.25,88.75,186.81v14.73H83V178.28h6.32l16.46,15.5V177.56h5.84v24.68Z"/><path class="cls-2" d="M109.67,6.32,94.23,22.89H109v5.72H85.7V22.3l15.5-16.46H85V0h24.68Z"/><path class="cls-2" d="M109.67,265.54,94.23,282.11H109v5.72H85.7v-6.32l15.5-16.46H85v-5.84h24.68Z"/><path class="cls-2" d="M186.14,202.25l-16.57-15.44v14.73h-5.72V178.28h6.32l16.46,15.5V177.56h5.84v24.68Z"/><path class="cls-2" d="M22.3,202.25,5.72,186.81v14.73H0V178.28H6.32l16.46,15.5V177.56h5.84v24.68Z"/><path d="M28.51,239.23l15-16.05H29.21v-5.54H51.72v6.12l-15,15.94h15.7v5.66H28.51Z"/><path d="M54.79,208.22A4,4,0,0,1,56,205.3a4.26,4.26,0,0,1,3.15-1.24,4.58,4.58,0,0,1,3.2,1.18,4.05,4.05,0,0,1,0,5.95,4.58,4.58,0,0,1-3.2,1.18A4.26,4.26,0,0,1,56,211.14,4,4,0,0,1,54.79,208.22Zm1,9.41h6.93v27.71H55.77Z"/><path d="M68.35,201.7h6.93v43.65H68.35Z"/><path d="M80.94,201.7h6.93v43.65H80.94Z"/><path d="M92.54,208.22a4,4,0,0,1,1.24-2.92,4.26,4.26,0,0,1,3.15-1.24,4.58,4.58,0,0,1,3.2,1.18,4.05,4.05,0,0,1,0,5.95,4.58,4.58,0,0,1-3.2,1.18,4.26,4.26,0,0,1-3.15-1.24A4,4,0,0,1,92.54,208.22Zm1,9.41h6.93v27.71H93.52Z"/><path d="M134.17,259.2h-6.93V241.65h-.12a9.2,9.2,0,0,1-3.78,3.29,12,12,0,0,1-5.4,1.21,13.19,13.19,0,0,1-5.69-1.18A13,13,0,0,1,108,241.8a14.09,14.09,0,0,1-2.71-4.68,17,17,0,0,1-1-5.74,16.35,16.35,0,0,1,1-5.72,13.94,13.94,0,0,1,2.77-4.62,12.92,12.92,0,0,1,9.7-4.21,12.63,12.63,0,0,1,3.44.43,13.19,13.19,0,0,1,2.74,1.1,9,9,0,0,1,2,1.5,10,10,0,0,1,1.36,1.65h.17v-3.87h6.64Zm-22.81-27.83a11.08,11.08,0,0,0,.49,3.23,8.88,8.88,0,0,0,1.47,2.89,7.69,7.69,0,0,0,2.48,2.08,8,8,0,0,0,6.93,0,8.35,8.35,0,0,0,2.57-2.05,8.93,8.93,0,0,0,1.62-2.86,9.75,9.75,0,0,0,.55-3.2,10,10,0,0,0-.55-3.23,8.9,8.9,0,0,0-1.62-2.89,8.74,8.74,0,0,0-2.57-2.08,7.07,7.07,0,0,0-3.41-.81,7.53,7.53,0,0,0-3.52.78,7.39,7.39,0,0,0-2.48,2,9,9,0,0,0-1.47,2.86A10.81,10.81,0,0,0,111.37,231.37Z"/><path d="M156.8,241.82h-.17a7.73,7.73,0,0,1-3.35,3A11.37,11.37,0,0,1,148,246a15,15,0,0,1-3.49-.43,10.38,10.38,0,0,1-3.35-1.44,8.39,8.39,0,0,1-2.54-2.66,7.64,7.64,0,0,1-1-4.07,6.9,6.9,0,0,1,1.76-5,11.4,11.4,0,0,1,4.53-2.83,25.58,25.58,0,0,1,6.15-1.3q3.38-.32,6.61-.32v-.69a4.28,4.28,0,0,0-1.88-3.84,7.93,7.93,0,0,0-4.48-1.24,10,10,0,0,0-4.21.92,11.35,11.35,0,0,0-3.35,2.25l-3.58-4.21a15.63,15.63,0,0,1,5.46-3.29,18.62,18.62,0,0,1,6.26-1.1,15.4,15.4,0,0,1,6.09,1,9.92,9.92,0,0,1,3.78,2.71,9.7,9.7,0,0,1,1.93,3.75,16.24,16.24,0,0,1,.55,4.16v16.86H156.8Zm-.12-9.12h-1.56q-1.68,0-3.52.14a15.33,15.33,0,0,0-3.41.63,7.28,7.28,0,0,0-2.6,1.39,3.07,3.07,0,0,0-1,2.45A3,3,0,0,0,145,239a3.32,3.32,0,0,0,1.13,1.07,5,5,0,0,0,1.56.58,8.79,8.79,0,0,0,1.73.17,7.22,7.22,0,0,0,5.43-1.91,7.15,7.15,0,0,0,1.85-5.2Z"/></svg>