<svg id="Laag_1" data-name="Laag 1" xmlns="http://www.w3.org/2000/svg" viewBox="0 0 191.78 287.84"><defs><style>.cls-1{fill:#242828;}.cls-2{fill:#29ccc4;}.cls-3{fill:#036f7d;}.cls-4{fill:#299197;}.cls-5{fill:none;}</style></defs><title>Zilliqa secondary Logo_turqoise_Dark Bg</title><rect class="cls-1" width="191.78" height="287.84"/><path class="cls-2" d="M28.51,239.24l15-16.05H29.21v-5.54H51.72v6.12l-15,15.94h15.7v5.66H28.51Z"/><path class="cls-2" d="M54.79,208.24A4,4,0,0,1,56,205.32a4.26,4.26,0,0,1,3.15-1.24,4.58,4.58,0,0,1,3.2,1.18,4.05,4.05,0,0,1,0,5.95,4.58,4.58,0,0,1-3.2,1.18A4.26,4.26,0,0,1,56,211.15,4,4,0,0,1,54.79,208.24Zm1,9.41h6.93v27.71H55.77Z"/><path class="cls-2" d="M68.35,201.71h6.93v43.65H68.35Z"/><path class="cls-2" d="M80.94,201.71h6.93v43.65H80.94Z"/><path class="cls-2" d="M92.54,208.24a4,4,0,0,1,1.24-2.92,4.26,4.26,0,0,1,3.15-1.24,4.58,4.58,0,0,1,3.2,1.18,4.05,4.05,0,0,1,0,5.95,4.58,4.58,0,0,1-3.2,1.18,4.26,4.26,0,0,1-3.15-1.24A4,4,0,0,1,92.54,208.24Zm1,9.41h6.93v27.71H93.52Z"/><path class="cls-2" d="M134.17,259.22h-6.93V241.67h-.12a9.2,9.2,0,0,1-3.78,3.29,12,12,0,0,1-5.4,1.21,13.19,13.19,0,0,1-5.69-1.18,13,13,0,0,1-4.27-3.18,14.09,14.09,0,0,1-2.71-4.68,17,17,0,0,1-1-5.74,16.35,16.35,0,0,1,1-5.72,13.94,13.94,0,0,1,2.77-4.62,12.92,12.92,0,0,1,9.7-4.21,12.63,12.63,0,0,1,3.44.43,13.19,13.19,0,0,1,2.74,1.1,9,9,0,0,1,2,1.5,10,10,0,0,1,1.36,1.65h.17v-3.87h6.64Zm-22.81-27.83a11.08,11.08,0,0,0,.49,3.23,8.88,8.88,0,0,0,1.47,2.89,7.69,7.69,0,0,0,2.48,2.08,8,8,0,0,0,6.93,0,8.35,8.35,0,0,0,2.57-2.05,8.93,8.93,0,0,0,1.62-2.86,9.75,9.75,0,0,0,.55-3.2,10,10,0,0,0-.55-3.23,8.9,8.9,0,0,0-1.62-2.89,8.74,8.74,0,0,0-2.57-2.08,7.07,7.07,0,0,0-3.41-.81,7.53,7.53,0,0,0-3.52.78,7.39,7.39,0,0,0-2.48,2,9,9,0,0,0-1.47,2.86A10.81,10.81,0,0,0,111.37,231.39Z"/><path class="cls-2" d="M156.8,241.84h-.17a7.73,7.73,0,0,1-3.35,3,11.37,11.37,0,0,1-5.25,1.18,15,15,0,0,1-3.49-.43,10.38,10.38,0,0,1-3.35-1.44,8.39,8.39,0,0,1-2.54-2.66,7.64,7.64,0,0,1-1-4.07,6.9,6.9,0,0,1,1.76-5,11.4,11.4,0,0,1,4.53-2.83,25.58,25.58,0,0,1,6.15-1.3q3.38-.32,6.61-.32v-.69a4.28,4.28,0,0,0-1.88-3.84,7.93,7.93,0,0,0-4.48-1.24,10,10,0,0,0-4.21.92,11.35,11.35,0,0,0-3.35,2.25l-3.58-4.21a15.63,15.63,0,0,1,5.46-3.29,18.62,18.62,0,0,1,6.26-1.1,15.4,15.4,0,0,1,6.09,1,9.92,9.92,0,0,1,3.78,2.71,9.7,9.7,0,0,1,1.93,3.75,16.24,16.24,0,0,1,.55,4.16v16.86H156.8Zm-.12-9.12h-1.56q-1.68,0-3.52.14a15.33,15.33,0,0,0-3.41.63,7.28,7.28,0,0,0-2.6,1.39,3.07,3.07,0,0,0-1,2.45A3,3,0,0,0,145,239a3.32,3.32,0,0,0,1.13,1.07,5,5,0,0,0,1.56.58,8.79,8.79,0,0,0,1.73.17,7.22,7.22,0,0,0,5.43-1.91,7.15,7.15,0,0,0,1.85-5.2Z"/><polygon class="cls-2" points="127.94 99.99 70.17 128.41 127.94 155.8 127.94 177.89 43.79 137.99 43.74 116.24 102.29 87.46 43.79 59.72 43.79 37.63 127.94 77.53 127.94 99.99"/><polygon class="cls-3" points="43.79 37.63 66.03 28.62 150.18 68.51 127.94 77.53 43.79 37.63"/><polygon class="cls-4" points="127.94 99.99 150.18 90.97 150.18 68.51 127.94 77.53 127.94 99.99"/><polygon class="cls-4" points="127.94 155.8 127.94 111.64 150.18 101.42 150.18 168.87 127.94 177.89 127.94 155.8"/><path class="cls-5" d="M105.32,202.25,88.75,186.81v14.73H83V178.28h6.32l16.46,15.5V177.56h5.84v24.68Z"/><path class="cls-5" d="M109.67,6.32,94.23,22.89H109v5.72H85.7V22.3l15.5-16.46H85V0h24.68Z"/><path class="cls-5" d="M109.67,265.54,94.23,282.11H109v5.72H85.7v-6.32l15.5-16.46H85v-5.84h24.68Z"/><path class="cls-5" d="M186.14,202.25l-16.57-15.44v14.73h-5.72V178.28h6.32l16.46,15.5V177.56h5.84v24.68Z"/><path class="cls-5" d="M22.3,202.25,5.72,186.81v14.73H0V178.28H6.32l16.46,15.5V177.56h5.84v24.68Z"/></svg>