<svg id="Laag_1" data-name="Laag 1" xmlns="http://www.w3.org/2000/svg" viewBox="0 0 191.78 287.84"><defs><style>.cls-1{fill:#fff;}.cls-2{fill:none;}</style></defs><title>Zilliqa secondary Logo_black_white Bg</title><polygon points="126.64 77.61 43.05 37.98 43.05 59.92 101.16 87.47 42.99 116.06 43.05 137.68 126.64 177.31 126.64 155.37 69.25 128.16 126.64 99.92 126.64 77.61"/><path class="cls-1" d="M127.4,178.5,42.3,138.15l-.06-22.56L99.43,87.49,42.29,60.4V36.79l85.1,40.35v23.26L71,128.15l56.41,26.75ZM43.8,137.2l82.09,38.92V155.85L67.52,128.17l58.37-28.71V78.09L43.8,39.17V59.45l59.09,28L43.75,116.53Z"/><path d="M148.74,68.66,65.14,29,43,38l83.6,39.63ZM123.87,76.3h0Z"/><path class="cls-1" d="M126.62,78.43l-.3-.14L41.18,37.92l24-9.73.3.14,85.14,40.37ZM44.92,38l81.75,38.76,20.2-8.19L65.12,29.84Z"/><polygon points="126.64 99.92 148.74 90.97 148.74 68.66 126.64 77.61 126.64 99.92"/><path class="cls-1" d="M125.89,101V77.11l23.6-9.57V91.47Zm1.51-22.92V98.81L148,90.46V69.77Z"/><polygon points="148.74 168.36 148.74 101.35 126.64 111.5 126.64 155.37 126.64 177.31 148.74 168.36"/><path class="cls-1" d="M125.89,178.43V111l23.6-10.84v68.69ZM127.4,112V176.2L148,167.85V102.52Z"/><path d="M28.51,239.23l15-16.05H29.21v-5.54H51.72v6.12l-15,15.94h15.7v5.66H28.51Z"/><path d="M54.79,208.22A4,4,0,0,1,56,205.3a4.26,4.26,0,0,1,3.15-1.24,4.58,4.58,0,0,1,3.2,1.18,4.05,4.05,0,0,1,0,5.95,4.58,4.58,0,0,1-3.2,1.18A4.26,4.26,0,0,1,56,211.14,4,4,0,0,1,54.79,208.22Zm1,9.41h6.93v27.71H55.77Z"/><path d="M68.35,201.7h6.93v43.65H68.35Z"/><path d="M80.94,201.7h6.93v43.65H80.94Z"/><path d="M92.54,208.22a4,4,0,0,1,1.24-2.92,4.26,4.26,0,0,1,3.15-1.24,4.58,4.58,0,0,1,3.2,1.18,4.05,4.05,0,0,1,0,5.95,4.58,4.58,0,0,1-3.2,1.18,4.26,4.26,0,0,1-3.15-1.24A4,4,0,0,1,92.54,208.22Zm1,9.41h6.93v27.71H93.52Z"/><path d="M134.17,259.2h-6.93V241.65h-.12a9.2,9.2,0,0,1-3.78,3.29,12,12,0,0,1-5.4,1.21,13.19,13.19,0,0,1-5.69-1.18A13,13,0,0,1,108,241.8a14.09,14.09,0,0,1-2.71-4.68,17,17,0,0,1-1-5.74,16.35,16.35,0,0,1,1-5.72,13.94,13.94,0,0,1,2.77-4.62,12.92,12.92,0,0,1,9.7-4.21,12.63,12.63,0,0,1,3.44.43,13.19,13.19,0,0,1,2.74,1.1,9,9,0,0,1,2,1.5,10,10,0,0,1,1.36,1.65h.17v-3.87h6.64Zm-22.81-27.83a11.08,11.08,0,0,0,.49,3.23,8.88,8.88,0,0,0,1.47,2.89,7.69,7.69,0,0,0,2.48,2.08,8,8,0,0,0,6.93,0,8.35,8.35,0,0,0,2.57-2.05,8.93,8.93,0,0,0,1.62-2.86,9.75,9.75,0,0,0,.55-3.2,10,10,0,0,0-.55-3.23,8.9,8.9,0,0,0-1.62-2.89,8.74,8.74,0,0,0-2.57-2.08,7.07,7.07,0,0,0-3.41-.81,7.53,7.53,0,0,0-3.52.78,7.39,7.39,0,0,0-2.48,2,9,9,0,0,0-1.47,2.86A10.81,10.81,0,0,0,111.37,231.37Z"/><path d="M156.8,241.82h-.17a7.73,7.73,0,0,1-3.35,3A11.37,11.37,0,0,1,148,246a15,15,0,0,1-3.49-.43,10.38,10.38,0,0,1-3.35-1.44,8.39,8.39,0,0,1-2.54-2.66,7.64,7.64,0,0,1-1-4.07,6.9,6.9,0,0,1,1.76-5,11.4,11.4,0,0,1,4.53-2.83,25.58,25.58,0,0,1,6.15-1.3q3.38-.32,6.61-.32v-.69a4.28,4.28,0,0,0-1.88-3.84,7.93,7.93,0,0,0-4.48-1.24,10,10,0,0,0-4.21.92,11.35,11.35,0,0,0-3.35,2.25l-3.58-4.21a15.63,15.63,0,0,1,5.46-3.29,18.62,18.62,0,0,1,6.26-1.1,15.4,15.4,0,0,1,6.09,1,9.92,9.92,0,0,1,3.78,2.71,9.7,9.7,0,0,1,1.93,3.75,16.24,16.24,0,0,1,.55,4.16v16.86H156.8Zm-.12-9.12h-1.56q-1.68,0-3.52.14a15.33,15.33,0,0,0-3.41.63,7.28,7.28,0,0,0-2.6,1.39,3.07,3.07,0,0,0-1,2.45A3,3,0,0,0,145,239a3.32,3.32,0,0,0,1.13,1.07,5,5,0,0,0,1.56.58,8.79,8.79,0,0,0,1.73.17,7.22,7.22,0,0,0,5.43-1.91,7.15,7.15,0,0,0,1.85-5.2Z"/><path class="cls-2" d="M105.32,202.25,88.75,186.81v14.73H83V178.28h6.32l16.46,15.5V177.56h5.84v24.68Z"/><path class="cls-2" d="M109.67,6.32,94.23,22.89H109v5.72H85.7V22.3l15.5-16.46H85V0h24.68Z"/><path class="cls-2" d="M109.67,265.54,94.23,282.11H109v5.72H85.7v-6.32l15.5-16.46H85v-5.84h24.68Z"/><path class="cls-2" d="M186.14,202.25l-16.57-15.44v14.73h-5.72V178.28h6.32l16.46,15.5V177.56h5.84v24.68Z"/><path class="cls-2" d="M22.3,202.25,5.72,186.81v14.73H0V178.28H6.32l16.46,15.5V177.56h5.84v24.68Z"/></svg>