<svg id="Laag_1" data-name="Laag 1" xmlns="http://www.w3.org/2000/svg" xmlns:xlink="http://www.w3.org/1999/xlink" viewBox="0 0 338.94 206.14"><defs><style>.cls-1{fill:none;}.cls-2{clip-path:url(#clip-path);}</style><clipPath id="clip-path"><path d="M135,91.41V68.51l-83.55-40-23,10V61.61L83.89,88.16l-55.46,27V138l84,39.81,22.56-10V99.12l-23.95,10.63v43.45L59.54,128.44l53.55-27.29Zm-21.13,6.3V79.92l18.31-8.33v18Zm16.4-28.34L112.5,77.46l-79.27-38,18.18-7.89Zm-16.4,42.21,18.31-8.13V166l-18.31,8.13V111.57Zm-2.82,44.74v17.76L31.25,136.26V116.93L90.36,88.14,31.25,59.84V41.63L111.07,79.9V99L53.2,128.51Z"/></clipPath></defs><title>Zilliqa primary Logo_white_white Bg</title><path d="M171.25,124l15.44-16.57H172V101.7h23.25V108l-15.5,16.46h16.22v5.84H171.25Z"/><path d="M198.38,92a4.12,4.12,0,0,1,1.28-3,4.4,4.4,0,0,1,3.25-1.28,4.73,4.73,0,0,1,3.31,1.22,4.18,4.18,0,0,1,0,6.14,4.73,4.73,0,0,1-3.31,1.22A4.4,4.4,0,0,1,199.66,95,4.12,4.12,0,0,1,198.38,92Zm1,9.72h7.15v28.62h-7.15Z"/><path d="M212.39,85.24h7.15v45.07h-7.15Z"/><path d="M225.39,85.24h7.15v45.07h-7.15Z"/><path d="M237.37,92a4.12,4.12,0,0,1,1.28-3,4.4,4.4,0,0,1,3.25-1.28,4.73,4.73,0,0,1,3.31,1.22,4.18,4.18,0,0,1,0,6.14,4.73,4.73,0,0,1-3.31,1.22A4.4,4.4,0,0,1,238.65,95,4.12,4.12,0,0,1,237.37,92Zm1,9.72h7.15v28.62h-7.15Z"/><path d="M280.36,144.62H273.2V126.5h-.12a9.51,9.51,0,0,1-3.91,3.4,12.41,12.41,0,0,1-5.57,1.25,13.61,13.61,0,0,1-5.87-1.22,13.46,13.46,0,0,1-4.41-3.28,14.52,14.52,0,0,1-2.8-4.83,17.58,17.58,0,0,1-1-5.93,16.86,16.86,0,0,1,1-5.9,14.4,14.4,0,0,1,2.86-4.77,13.35,13.35,0,0,1,10-4.35,13,13,0,0,1,3.55.45,13.6,13.6,0,0,1,2.83,1.13,9.31,9.31,0,0,1,2.12,1.55,10.27,10.27,0,0,1,1.4,1.7h.18v-4h6.86Zm-23.55-28.74a11.44,11.44,0,0,0,.51,3.34,9.19,9.19,0,0,0,1.52,3,7.94,7.94,0,0,0,2.56,2.15,8.22,8.22,0,0,0,7.15,0,8.64,8.64,0,0,0,2.65-2.12,9.2,9.2,0,0,0,1.67-3,10.05,10.05,0,0,0,.57-3.31,10.32,10.32,0,0,0-.57-3.34,9.17,9.17,0,0,0-1.67-3,9,9,0,0,0-2.65-2.15,7.31,7.31,0,0,0-3.52-.83,7.78,7.78,0,0,0-3.64.81,7.63,7.63,0,0,0-2.56,2.12,9.26,9.26,0,0,0-1.52,3A11.16,11.16,0,0,0,256.81,115.89Z"/><path d="M303.73,126.68h-.18a8,8,0,0,1-3.46,3.13,11.74,11.74,0,0,1-5.43,1.22,15.54,15.54,0,0,1-3.61-.45,10.73,10.73,0,0,1-3.46-1.49,8.66,8.66,0,0,1-2.62-2.74,7.89,7.89,0,0,1-1-4.2,7.13,7.13,0,0,1,1.82-5.13,11.78,11.78,0,0,1,4.68-2.92,26.41,26.41,0,0,1,6.35-1.34q3.49-.33,6.83-.33v-.72a4.42,4.42,0,0,0-1.94-4,8.19,8.19,0,0,0-4.62-1.28,10.35,10.35,0,0,0-4.35,1,11.74,11.74,0,0,0-3.46,2.32l-3.7-4.35a16.14,16.14,0,0,1,5.63-3.4,19.23,19.23,0,0,1,6.47-1.13,15.91,15.91,0,0,1,6.29,1.07,10.25,10.25,0,0,1,3.9,2.8,10,10,0,0,1,2,3.88,16.81,16.81,0,0,1,.57,4.29v17.41h-6.68Zm-.12-9.42H302q-1.73,0-3.64.15a15.84,15.84,0,0,0-3.52.65,7.5,7.5,0,0,0-2.68,1.43,3.17,3.17,0,0,0-1.07,2.53,3.06,3.06,0,0,0,.45,1.7,3.44,3.44,0,0,0,1.16,1.1,5.17,5.17,0,0,0,1.61.6,9.08,9.08,0,0,0,1.79.18,7.46,7.46,0,0,0,5.61-2,7.39,7.39,0,0,0,1.91-5.37Z"/><path class="cls-1" d="M316.64,90.73l16.57,15.44V91.44h5.72V114.7h-6.32L316.17,99.2v16.22h-5.84V90.73Z"/><path class="cls-1" d="M183.23,184l-15.44,16.57h14.73v5.72H159.26V200l15.5-16.46H158.54v-5.84h24.68Z"/><path class="cls-1" d="M159.5,107.3l-15.44,16.57h14.73v5.72H135.54v-6.32L151,106.82H134.82V101H159.5Z"/><path class="cls-1" d="M171.9,110.94m.14,18.66-.19-5.72.1-3.3-3.21,3.34,3,0,.1,5.73-11.76-.18.1-6.32L172,111l-.09,9.55m0-19.6v5.84H159.57V101h12.38"/><path class="cls-1" d="M22,115.41,5.4,100V114.7H-.32V91.44H6l16.46,15.5V90.73H28.3v24.68Z"/><path class="cls-1" d="M158.54,22,174,5.47H159.26V-.26h23.25V6.06L167,22.52h16.22v5.84H158.54Z"/><path d="M135,91.41V68.51l-83.55-40-23,10V61.61L83.89,88.16l-55.46,27V138l84,39.81,22.56-10V99.12l-23.95,10.63v43.45L59.54,128.44l53.55-27.29Zm-21.13,6.3V79.92l18.31-8.33v18Zm16.4-28.34L112.5,77.46l-79.27-38,18.18-7.89Zm-16.4,42.21,18.31-8.13V166l-18.31,8.13V111.57Zm-2.82,44.74v17.76L31.25,136.26V116.93L90.36,88.14,31.25,59.84V41.63L111.07,79.9V99L53.2,128.51Z"/><g class="cls-2"><polygon points="109.27 174.07 111.08 172.94 111.08 174.07 109.27 174.07"/><polygon points="106.45 174.07 111.08 171.18 111.08 172.94 109.27 174.07 106.45 174.07"/><polygon points="103.63 174.07 111.08 169.42 111.08 171.18 106.45 174.07 103.63 174.07"/><polygon points="100.81 174.07 111.08 167.66 111.08 169.42 103.63 174.07 100.81 174.07"/><polygon points="97.99 174.07 111.08 165.9 111.08 167.66 100.81 174.07 97.99 174.07"/><polygon points="95.17 174.07 111.08 164.14 111.08 165.9 97.99 174.07 95.17 174.07"/><polygon points="92.36 174.07 111.08 162.38 111.08 164.14 95.17 174.07 92.36 174.07"/><polygon points="89.54 174.07 111.08 160.62 111.08 162.38 92.36 174.07 89.54 174.07"/><polygon points="86.72 174.07 111.08 158.86 111.08 160.62 89.54 174.07 86.72 174.07"/><polygon points="83.9 174.07 111.08 157.1 111.08 158.86 86.72 174.07 83.9 174.07"/><polygon points="81.08 174.07 111.08 155.34 111.08 157.1 83.9 174.07 81.08 174.07"/><polygon points="78.26 174.07 111.08 153.59 111.08 155.34 81.08 174.07 78.26 174.07"/><polygon points="75.44 174.07 111.08 151.82 111.08 153.59 78.26 174.07 75.44 174.07"/><polygon points="72.62 174.07 111.08 150.06 111.08 151.82 75.44 174.07 72.62 174.07"/><polygon points="69.8 174.07 111.08 148.31 111.08 150.06 72.62 174.07 69.8 174.07"/><polygon points="66.98 174.07 111.08 146.54 111.08 148.31 69.8 174.07 66.98 174.07"/><polygon points="64.17 174.07 111.08 144.78 111.08 146.54 66.98 174.07 64.17 174.07"/><polygon points="61.35 174.07 111.08 143.03 111.08 144.78 64.17 174.07 61.35 174.07"/><polygon points="58.53 174.07 111.08 141.26 111.08 143.03 61.35 174.07 58.53 174.07"/><polygon points="55.71 174.07 111.08 139.5 111.08 141.26 58.53 174.07 55.71 174.07"/><polygon points="54.46 174.07 54.02 173.37 111.08 137.75 111.08 139.5 55.71 174.07 54.46 174.07"/><polygon points="54.02 173.37 53.23 172.1 111.08 135.99 111.08 137.75 54.02 173.37"/><polygon points="53.23 172.1 52.44 170.84 111.08 134.22 111.08 135.99 53.23 172.1"/><polygon points="52.44 170.84 51.64 169.57 111.08 132.47 111.08 134.22 52.44 170.84"/><polygon points="51.64 169.57 50.85 168.31 111.08 130.71 111.08 132.47 51.64 169.57"/><polygon points="50.85 168.31 50.06 167.04 111.08 128.94 111.08 130.71 50.85 168.31"/><polygon points="50.06 167.04 49.27 165.77 111.08 127.19 111.08 128.94 50.06 167.04"/><polygon points="49.27 165.77 48.47 164.51 111.08 125.42 111.08 127.19 49.27 165.77"/><polygon points="48.47 164.51 47.68 163.24 111.08 123.67 111.08 125.42 48.47 164.51"/><polygon points="47.68 163.24 46.89 161.98 111.08 121.91 111.08 123.67 47.68 163.24"/><polygon points="46.89 161.98 46.1 160.71 111.08 120.15 111.08 121.91 46.89 161.98"/><polygon points="46.1 160.71 45.3 159.45 111.08 118.39 111.08 120.15 46.1 160.71"/><polygon points="45.3 159.45 44.51 158.18 111.08 116.63 111.08 118.39 45.3 159.45"/><polygon points="44.51 158.18 43.72 156.92 111.08 114.87 111.08 116.63 44.51 158.18"/><polygon points="43.72 156.92 42.93 155.65 111.08 113.11 111.08 114.87 43.72 156.92"/><polygon points="42.93 155.65 42.13 154.39 111.08 111.35 111.08 113.11 42.93 155.65"/><polygon points="42.13 154.39 41.34 153.12 111.08 109.59 111.08 111.35 42.13 154.39"/><polygon points="41.34 153.12 40.55 151.86 111.08 107.83 111.08 109.59 41.34 153.12"/><polygon points="40.55 151.86 39.76 150.59 111.08 106.07 111.08 107.83 40.55 151.86"/><polygon points="39.76 150.59 38.97 149.32 111.08 104.31 111.08 106.07 39.76 150.59"/><polygon points="38.97 149.32 38.17 148.06 111.08 102.55 111.08 104.31 38.97 149.32"/><polygon points="38.17 148.06 37.38 146.79 111.08 100.79 111.08 102.55 38.17 148.06"/><polygon points="37.38 146.79 36.59 145.53 111.08 99.03 111.08 100.79 37.38 146.79"/><polygon points="36.59 145.53 35.8 144.26 111.08 97.27 111.08 99.03 36.59 145.53"/><polygon points="35.8 144.26 35 143 111.08 95.51 111.08 97.27 35.8 144.26"/><polygon points="35 143 34.21 141.73 111.08 93.75 111.08 95.51 35 143"/><polygon points="34.21 141.73 33.42 140.47 111.08 91.99 111.08 93.75 34.21 141.73"/><polygon points="33.42 140.47 32.63 139.2 111.08 90.23 111.08 91.99 33.42 140.47"/><polygon points="32.63 139.2 31.83 137.94 111.08 88.47 111.08 90.23 32.63 139.2"/><polygon points="31.83 137.94 31.25 137.01 31.25 136.54 111.08 86.71 111.08 88.47 31.83 137.94"/><polygon points="31.25 134.69 111.08 84.86 111.08 86.71 31.25 136.54 31.25 134.69"/><polygon points="31.25 132.84 111.08 83.01 111.08 84.86 31.25 134.69 31.25 132.84"/><polygon points="31.25 130.99 111.08 81.16 111.08 83.01 31.25 132.84 31.25 130.99"/><polygon points="31.25 129.14 111.08 79.31 111.08 81.16 31.25 130.99 31.25 129.14"/><polygon points="31.25 127.3 110.31 77.93 111.08 79.15 111.08 79.31 31.25 129.14 31.25 127.3"/><polygon points="31.25 125.44 109.48 76.6 110.31 77.93 31.25 127.3 31.25 125.44"/><polygon points="31.25 123.6 108.65 75.27 109.48 76.6 31.25 125.44 31.25 123.6"/><polygon points="31.25 121.75 107.82 73.94 108.65 75.27 31.25 123.6 31.25 121.75"/><polygon points="31.25 119.9 106.98 72.61 107.82 73.94 31.25 121.75 31.25 119.9"/><polygon points="31.25 118.05 106.15 71.28 106.98 72.61 31.25 119.9 31.25 118.05"/><polygon points="31.25 116.2 105.32 69.95 106.15 71.28 31.25 118.05 31.25 116.2"/><polygon points="31.25 114.35 104.49 68.63 105.32 69.95 31.25 116.2 31.25 114.35"/><polygon points="31.25 112.5 103.65 67.3 104.49 68.63 31.25 114.35 31.25 112.5"/><polygon points="31.25 110.65 102.82 65.97 103.65 67.3 31.25 112.5 31.25 110.65"/><polygon points="31.25 108.8 101.99 64.64 102.82 65.97 31.25 110.65 31.25 108.8"/><polygon points="31.25 106.95 101.16 63.31 101.99 64.64 31.25 108.8 31.25 106.95"/><polygon points="31.25 105.1 100.32 61.98 101.16 63.31 31.25 106.95 31.25 105.1"/><polygon points="31.25 103.25 99.49 60.65 100.32 61.98 31.25 105.1 31.25 103.25"/><polygon points="31.25 101.4 98.66 59.32 99.49 60.65 31.25 103.25 31.25 101.4"/><polygon points="31.25 99.55 97.83 57.99 98.66 59.32 31.25 101.4 31.25 99.55"/><polygon points="31.25 97.7 96.99 56.66 97.83 57.99 31.25 99.55 31.25 97.7"/><polygon points="31.25 95.85 96.16 55.33 96.99 56.66 31.25 97.7 31.25 95.85"/><polygon points="31.25 94 95.33 54 96.16 55.33 31.25 95.85 31.25 94"/><polygon points="31.25 92.15 94.49 52.67 95.33 54 31.25 94 31.25 92.15"/><polygon points="31.25 90.3 93.66 51.34 94.49 52.67 31.25 92.15 31.25 90.3"/><polygon points="31.25 88.45 92.83 50.01 93.66 51.34 31.25 90.3 31.25 88.45"/><polygon points="31.25 86.61 92 48.68 92.83 50.01 31.25 88.45 31.25 86.61"/><polygon points="31.25 84.76 91.16 47.35 92 48.68 31.25 86.61 31.25 84.76"/><polygon points="31.25 82.91 90.33 46.02 91.16 47.35 31.25 84.76 31.25 82.91"/><polygon points="31.25 81.06 89.5 44.69 90.33 46.02 31.25 82.91 31.25 81.06"/><polygon points="31.25 79.21 88.67 43.36 89.5 44.69 31.25 81.06 31.25 79.21"/><polygon points="31.25 77.36 87.83 42.03 88.67 43.36 31.25 79.21 31.25 77.36"/><polygon points="31.25 75.51 85.52 41.63 87.58 41.63 87.83 42.03 31.25 77.36 31.25 75.51"/><polygon points="31.25 73.66 82.55 41.63 85.52 41.63 31.25 75.51 31.25 73.66"/><polygon points="31.25 71.81 79.59 41.63 82.55 41.63 31.25 73.66 31.25 71.81"/><polygon points="31.25 69.96 76.63 41.63 79.59 41.63 31.25 71.81 31.25 69.96"/><polygon points="31.25 68.11 73.67 41.63 76.63 41.63 31.25 69.96 31.25 68.11"/><polygon points="31.25 66.26 70.7 41.63 73.67 41.63 31.25 68.11 31.25 66.26"/><polygon points="31.25 64.41 67.74 41.63 70.7 41.63 31.25 66.26 31.25 64.41"/><polygon points="31.25 62.56 64.78 41.63 67.74 41.63 31.25 64.41 31.25 62.56"/><polygon points="31.25 60.71 61.82 41.63 64.78 41.63 31.25 62.56 31.25 60.71"/><polygon points="31.25 58.86 58.85 41.63 61.82 41.63 31.25 60.71 31.25 58.86"/><polygon points="31.25 57.01 55.89 41.63 58.85 41.63 31.25 58.86 31.25 57.01"/><polygon points="31.25 55.16 52.93 41.63 55.89 41.63 31.25 57.01 31.25 55.16"/><polygon points="31.25 53.31 49.97 41.63 52.93 41.63 31.25 55.16 31.25 53.31"/><polygon points="31.25 51.46 47 41.63 49.97 41.63 31.25 53.31 31.25 51.46"/><polygon points="31.25 49.62 44.04 41.63 47 41.63 31.25 51.46 31.25 49.62"/><polygon points="31.25 47.77 41.08 41.63 44.04 41.63 31.25 49.62 31.25 47.77"/><polygon points="31.25 45.92 38.12 41.63 41.08 41.63 31.25 47.77 31.25 45.92"/><polygon points="31.25 44.07 35.15 41.63 38.12 41.63 31.25 45.92 31.25 44.07"/><polygon points="31.25 42.22 32.19 41.63 35.15 41.63 31.25 44.07 31.25 42.22"/><polygon points="32.19 41.63 31.25 42.22 31.25 41.63 32.19 41.63"/><polygon points="120.45 174.13 132.21 166.79 132.21 174.13 120.45 174.13"/><polygon points="117.63 174.13 132.21 165.03 132.21 166.79 120.45 174.13 117.63 174.13"/><polygon points="114.81 174.13 132.21 163.27 132.21 165.03 117.63 174.13 114.81 174.13"/><polygon points="113.89 172.94 132.21 161.51 132.21 163.27 114.81 174.13 113.89 174.13 113.89 172.94"/><polygon points="113.89 171.19 132.21 159.75 132.21 161.51 113.89 172.94 113.89 171.19"/><polygon points="113.89 169.43 132.21 157.99 132.21 159.75 113.89 171.19 113.89 169.43"/><polygon points="113.89 167.66 132.21 156.23 132.21 157.99 113.89 169.43 113.89 167.66"/><polygon points="113.89 165.91 132.21 154.47 132.21 156.23 113.89 167.66 113.89 165.91"/><polygon points="113.89 164.15 132.21 152.71 132.21 154.47 113.89 165.91 113.89 164.15"/><polygon points="113.89 162.38 132.21 150.95 132.21 152.71 113.89 164.15 113.89 162.38"/><polygon points="113.89 160.63 132.21 149.19 132.21 150.95 113.89 162.38 113.89 160.63"/><polygon points="113.89 158.87 132.21 147.43 132.21 149.19 113.89 160.63 113.89 158.87"/><polygon points="113.89 157.11 132.21 145.67 132.21 147.43 113.89 158.87 113.89 157.11"/><polygon points="113.89 155.35 132.21 143.91 132.21 145.67 113.89 157.11 113.89 155.35"/><polygon points="113.89 153.59 132.21 142.15 132.21 143.91 113.89 155.35 113.89 153.59"/><polygon points="113.89 151.83 132.21 140.39 132.21 142.15 113.89 153.59 113.89 151.83"/><polygon points="113.89 150.07 132.21 138.63 132.21 140.39 113.89 151.83 113.89 150.07"/><polygon points="113.89 148.31 132.21 136.87 132.21 138.63 113.89 150.07 113.89 148.31"/><polygon points="113.89 146.55 132.21 135.11 132.21 136.87 113.89 148.31 113.89 146.55"/><polygon points="113.89 144.79 132.21 133.35 132.21 135.11 113.89 146.55 113.89 144.79"/><polygon points="113.89 143.03 132.21 131.59 132.21 133.35 113.89 144.79 113.89 143.03"/><polygon points="113.89 141.27 132.21 129.83 132.21 131.59 113.89 143.03 113.89 141.27"/><polygon points="113.89 139.51 132.21 128.07 132.21 129.83 113.89 141.27 113.89 139.51"/><polygon points="113.89 137.75 132.21 126.31 132.21 128.07 113.89 139.51 113.89 137.75"/><polygon points="113.89 135.99 132.21 124.55 132.21 126.31 113.89 137.75 113.89 135.99"/><polygon points="113.89 134.23 132.21 122.79 132.21 124.55 113.89 135.99 113.89 134.23"/><polygon points="113.89 132.47 132.21 121.03 132.21 122.79 113.89 134.23 113.89 132.47"/><polygon points="113.89 130.71 132.21 119.27 132.21 121.03 113.89 132.47 113.89 130.71"/><polygon points="113.89 128.95 132.21 117.51 132.21 119.27 113.89 130.71 113.89 128.95"/><polygon points="113.89 127.19 132.21 115.75 132.21 117.51 113.89 128.95 113.89 127.19"/><polygon points="113.89 125.43 132.21 113.99 132.21 115.75 113.89 127.19 113.89 125.43"/><polygon points="113.89 123.67 132.21 112.23 132.21 113.99 113.89 125.43 113.89 123.67"/><polygon points="113.89 121.91 132.21 110.47 132.21 112.23 113.89 123.67 113.89 121.91"/><polygon points="113.89 120.15 132.21 108.71 132.21 110.47 113.89 121.91 113.89 120.15"/><polygon points="113.89 118.39 132.21 106.95 132.21 108.71 113.89 120.15 113.89 118.39"/><polygon points="113.89 116.63 132.21 105.19 132.21 106.95 113.89 118.39 113.89 116.63"/><polygon points="113.89 114.87 132.19 103.44 132.21 103.44 132.21 105.19 113.89 116.63 113.89 114.87"/><polygon points="113.89 113.11 129.37 103.44 132.19 103.44 113.89 114.87 113.89 113.11"/><polygon points="113.89 111.35 126.55 103.44 129.37 103.44 113.89 113.11 113.89 111.35"/><polygon points="113.89 109.59 123.73 103.44 126.55 103.44 113.89 111.35 113.89 109.59"/><polygon points="113.89 107.83 120.91 103.44 123.73 103.44 113.89 109.59 113.89 107.83"/><polygon points="113.89 106.07 118.09 103.44 120.91 103.44 113.89 107.83 113.89 106.07"/><polygon points="113.89 104.31 115.27 103.44 118.09 103.44 113.89 106.07 113.89 104.31"/><polygon points="115.27 103.44 113.89 104.31 113.89 103.44 115.27 103.44"/><polygon points="128.71 77.46 130.29 76.47 130.29 77.46 128.71 77.46"/><polygon points="125.89 77.46 130.29 74.71 130.29 76.47 128.71 77.46 125.89 77.46"/><polygon points="122.93 77.46 130.29 72.86 130.29 74.71 125.89 77.46 122.93 77.46"/><polygon points="119.96 77.46 130.29 71.01 130.29 72.86 122.93 77.46 119.96 77.46"/><polygon points="117 77.46 130.29 69.16 130.29 71.01 119.96 77.46 117 77.46"/><polygon points="114.04 77.46 129.7 67.68 130.29 68.62 130.29 69.16 117 77.46 114.04 77.46"/><polygon points="111.08 77.46 128.87 66.35 129.7 67.68 114.04 77.46 111.08 77.46"/><polygon points="108.11 77.46 128.04 65.02 128.87 66.35 111.08 77.46 108.11 77.46"/><polygon points="105.15 77.46 127.2 63.69 128.04 65.02 108.11 77.46 105.15 77.46"/><polygon points="102.19 77.46 126.37 62.36 127.2 63.69 105.15 77.46 102.19 77.46"/><polygon points="99.23 77.46 125.54 61.03 126.37 62.36 102.19 77.46 99.23 77.46"/><polygon points="96.26 77.46 124.71 59.7 125.54 61.03 99.23 77.46 96.26 77.46"/><polygon points="93.3 77.46 123.87 58.37 124.71 59.7 96.26 77.46 93.3 77.46"/><polygon points="90.34 77.46 123.04 57.04 123.87 58.37 93.3 77.46 90.34 77.46"/><polygon points="87.38 77.46 122.21 55.71 123.04 57.04 90.34 77.46 87.38 77.46"/><polygon points="84.41 77.46 121.38 54.38 122.21 55.71 87.38 77.46 84.41 77.46"/><polygon points="81.45 77.46 120.54 53.05 121.38 54.38 84.41 77.46 81.45 77.46"/><polygon points="78.49 77.46 119.71 51.72 120.54 53.05 81.45 77.46 78.49 77.46"/><polygon points="75.53 77.46 118.88 50.39 119.71 51.72 78.49 77.46 75.53 77.46"/><polygon points="72.56 77.46 118.04 49.06 118.88 50.39 75.53 77.46 72.56 77.46"/><polygon points="69.6 77.46 117.21 47.73 118.04 49.06 72.56 77.46 69.6 77.46"/><polygon points="66.64 77.46 116.38 46.41 117.21 47.73 69.6 77.46 66.64 77.46"/><polygon points="63.68 77.46 115.55 45.08 116.38 46.41 66.64 77.46 63.68 77.46"/><polygon points="60.72 77.46 114.71 43.74 115.55 45.08 63.68 77.46 60.72 77.46"/><polygon points="57.75 77.46 113.88 42.42 114.71 43.74 60.72 77.46 57.75 77.46"/><polygon points="56.56 77.46 56.06 76.67 113.05 41.09 113.88 42.42 57.75 77.46 56.56 77.46"/><polygon points="56.06 76.67 55.23 75.33 112.22 39.76 113.05 41.09 56.06 76.67"/><polygon points="55.23 75.33 54.4 74 111.38 38.43 112.22 39.76 55.23 75.33"/><polygon points="54.4 74 53.56 72.68 110.55 37.1 111.38 38.43 54.4 74"/><polygon points="53.56 72.68 52.73 71.35 109.72 35.77 110.55 37.1 53.56 72.68"/><polygon points="52.73 71.35 51.9 70.02 108.89 34.44 109.72 35.77 52.73 71.35"/><polygon points="51.9 70.02 51.06 68.69 108.05 33.11 108.89 34.44 51.9 70.02"/><polygon points="51.06 68.69 50.23 67.36 107.22 31.78 108.05 33.11 51.06 68.69"/><polygon points="50.23 67.36 49.4 66.03 104.6 31.56 107.08 31.56 107.22 31.78 50.23 67.36"/><polygon points="49.4 66.03 48.57 64.7 101.64 31.56 104.6 31.56 49.4 66.03"/><polygon points="48.57 64.7 47.73 63.37 98.68 31.56 101.64 31.56 48.57 64.7"/><polygon points="47.73 63.37 46.9 62.04 95.72 31.56 98.68 31.56 47.73 63.37"/><polygon points="46.9 62.04 46.07 60.71 92.75 31.56 95.72 31.56 46.9 62.04"/><polygon points="46.07 60.71 45.23 59.38 89.79 31.56 92.75 31.56 46.07 60.71"/><polygon points="45.23 59.38 44.4 58.05 86.83 31.56 89.79 31.56 45.23 59.38"/><polygon points="44.4 58.05 43.57 56.72 83.86 31.56 86.83 31.56 44.4 58.05"/><polygon points="43.57 56.72 42.74 55.39 80.9 31.56 83.86 31.56 43.57 56.72"/><polygon points="42.74 55.39 41.91 54.06 77.94 31.56 80.9 31.56 42.74 55.39"/><polygon points="41.91 54.06 41.07 52.73 74.98 31.56 77.94 31.56 41.91 54.06"/><polygon points="41.07 52.73 40.24 51.4 72.02 31.56 74.98 31.56 41.07 52.73"/><polygon points="40.24 51.4 39.41 50.07 69.05 31.56 72.02 31.56 40.24 51.4"/><polygon points="39.41 50.07 38.57 48.74 66.09 31.56 69.05 31.56 39.41 50.07"/><polygon points="38.57 48.74 37.74 47.41 63.13 31.56 66.09 31.56 38.57 48.74"/><polygon points="37.74 47.41 36.91 46.08 60.16 31.56 63.13 31.56 37.74 47.41"/><polygon points="36.91 46.08 36.08 44.75 57.2 31.56 60.16 31.56 36.91 46.08"/><polygon points="36.08 44.75 35.24 43.42 54.24 31.56 57.2 31.56 36.08 44.75"/><polygon points="35.24 43.42 34.41 42.09 51.28 31.56 54.24 31.56 35.24 43.42"/><polygon points="34.41 42.09 33.58 40.76 48.31 31.56 51.28 31.56 34.41 42.09"/><polygon points="33.58 40.76 33.23 40.21 33.23 39.13 45.35 31.56 48.31 31.56 33.58 40.76"/><polygon points="33.23 37.28 42.39 31.56 45.35 31.56 33.23 39.13 33.23 37.28"/><polygon points="42.39 31.56 33.23 37.28 33.23 31.56 42.39 31.56"/><polygon points="130.1 97.71 132.21 96.39 132.21 97.71 130.1 97.71"/><polygon points="127.28 97.71 132.21 94.63 132.21 96.39 130.1 97.71 127.28 97.71"/><polygon points="124.46 97.71 132.21 92.87 132.21 94.63 127.28 97.71 124.46 97.71"/><polygon points="121.64 97.71 132.21 91.11 132.21 92.87 124.46 97.71 121.64 97.71"/><polygon points="118.82 97.71 132.21 89.35 132.21 91.11 121.64 97.71 118.82 97.71"/><polygon points="116 97.71 132.21 87.59 132.21 89.35 118.82 97.71 116 97.71"/><polygon points="113.89 97.27 132.21 85.83 132.21 87.59 116 97.71 113.89 97.71 113.89 97.27"/><polygon points="113.89 95.51 132.21 84.07 132.21 85.83 113.89 97.27 113.89 95.51"/><polygon points="113.89 93.75 132.21 82.31 132.21 84.07 113.89 95.51 113.89 93.75"/><polygon points="113.89 91.99 132.21 80.56 132.21 82.31 113.89 93.75 113.89 91.99"/><polygon points="113.89 90.23 132.21 78.8 132.21 80.56 113.89 91.99 113.89 90.23"/><polygon points="113.89 88.47 132.21 77.03 132.21 78.8 113.89 90.23 113.89 88.47"/><polygon points="113.89 86.71 132.21 75.28 132.21 77.03 113.89 88.47 113.89 86.71"/><polygon points="113.89 84.95 132.21 73.52 132.21 75.28 113.89 86.71 113.89 84.95"/><polygon points="113.89 83.1 132.21 71.67 132.21 73.52 113.89 84.95 113.89 83.1"/><polygon points="113.89 81.25 129.37 71.59 132.21 71.59 132.21 71.67 113.89 83.1 113.89 81.25"/><polygon points="113.89 79.4 126.41 71.59 129.37 71.59 113.89 81.25 113.89 79.4"/><polygon points="113.89 77.55 123.44 71.59 126.41 71.59 113.89 79.4 113.89 77.55"/><polygon points="113.89 75.7 120.48 71.59 123.44 71.59 113.89 77.55 113.89 75.7"/><polygon points="113.89 73.85 117.52 71.59 120.48 71.59 113.89 75.7 113.89 73.85"/><polygon points="113.89 72 114.56 71.59 117.52 71.59 113.89 73.85 113.89 72"/><polygon points="114.56 71.59 113.89 72 113.89 71.59 114.56 71.59"/><polygon points="114.5 177.84 135.02 165.03 135.02 177.84 114.5 177.84"/><polygon points="111.69 177.84 135.02 163.27 135.02 165.03 114.5 177.84 111.69 177.84"/><polygon points="108.87 177.84 135.02 161.51 135.02 163.27 111.69 177.84 108.87 177.84"/><polygon points="106.05 177.84 135.02 159.75 135.02 161.51 108.87 177.84 106.05 177.84"/><polygon points="103.23 177.84 135.02 157.99 135.02 159.75 106.05 177.84 103.23 177.84"/><polygon points="100.41 177.84 135.02 156.23 135.02 157.99 103.23 177.84 100.41 177.84"/><polygon points="97.59 177.84 135.02 154.47 135.02 156.23 100.41 177.84 97.59 177.84"/><polygon points="94.77 177.84 135.02 152.71 135.02 154.47 97.59 177.84 94.77 177.84"/><polygon points="91.95 177.84 135.02 150.95 135.02 152.71 94.77 177.84 91.95 177.84"/><polygon points="89.13 177.84 135.02 149.19 135.02 150.95 91.95 177.84 89.13 177.84"/><polygon points="86.31 177.84 135.02 147.43 135.02 149.19 89.13 177.84 86.31 177.84"/><polygon points="83.5 177.84 135.02 145.67 135.02 147.43 86.31 177.84 83.5 177.84"/><polygon points="80.68 177.84 135.02 143.91 135.02 145.67 83.5 177.84 80.68 177.84"/><polygon points="77.86 177.84 135.02 142.15 135.02 143.91 80.68 177.84 77.86 177.84"/><polygon points="75.04 177.84 135.02 140.39 135.02 142.15 77.86 177.84 75.04 177.84"/><polygon points="72.22 177.84 135.02 138.63 135.02 140.39 75.04 177.84 72.22 177.84"/><polygon points="69.4 177.84 135.02 136.87 135.02 138.63 72.22 177.84 69.4 177.84"/><polygon points="66.58 177.84 135.02 135.11 135.02 136.87 69.4 177.84 66.58 177.84"/><polygon points="63.76 177.84 135.02 133.35 135.02 135.11 66.58 177.84 63.76 177.84"/><polygon points="60.94 177.84 135.02 131.59 135.02 133.35 63.76 177.84 60.94 177.84"/><polygon points="58.12 177.84 135.02 129.83 135.02 131.59 60.94 177.84 58.12 177.84"/><polygon points="55.3 177.84 135.02 128.07 135.02 129.83 58.12 177.84 55.3 177.84"/><polygon points="52.89 177.84 52.78 177.66 135.02 126.31 135.02 128.07 55.3 177.84 52.89 177.84"/><polygon points="52.78 177.66 51.99 176.4 135.02 124.55 135.02 126.31 52.78 177.66"/><polygon points="51.99 176.4 51.19 175.13 135.02 122.79 135.02 124.55 51.99 176.4"/><polygon points="51.19 175.13 50.4 173.87 135.02 121.03 135.02 122.79 51.19 175.13"/><polygon points="50.4 173.87 49.61 172.6 135.02 119.27 135.02 121.03 50.4 173.87"/><polygon points="49.61 172.6 48.82 171.33 135.02 117.52 135.02 119.27 49.61 172.6"/><polygon points="48.82 171.33 48.02 170.07 135.02 115.75 135.02 117.52 48.82 171.33"/><polygon points="48.02 170.07 47.23 168.8 135.02 114 135.02 115.75 48.02 170.07"/><polygon points="47.23 168.8 46.44 167.54 135.02 112.23 135.02 114 47.23 168.8"/><polygon points="46.44 167.54 45.65 166.27 135.02 110.47 135.02 112.23 46.44 167.54"/><polygon points="45.65 166.27 44.85 165.01 135.02 108.72 135.02 110.47 45.65 166.27"/><polygon points="44.85 165.01 44.06 163.74 135.02 106.95 135.02 108.72 44.85 165.01"/><polygon points="44.06 163.74 43.27 162.48 135.02 105.19 135.02 106.95 44.06 163.74"/><polygon points="43.27 162.48 42.48 161.21 135.02 103.44 135.02 105.19 43.27 162.48"/><polygon points="42.48 161.21 41.69 159.95 135.02 101.67 135.02 103.44 42.48 161.21"/><polygon points="41.69 159.95 40.89 158.68 135.02 99.92 135.02 101.67 41.69 159.95"/><polygon points="40.89 158.68 40.1 157.42 135.02 98.16 135.02 99.92 40.89 158.68"/><polygon points="40.1 157.42 39.31 156.15 135.02 96.39 135.02 98.16 40.1 157.42"/><polygon points="39.31 156.15 38.52 154.89 135.02 94.64 135.02 96.39 39.31 156.15"/><polygon points="38.52 154.89 37.72 153.62 135.02 92.88 135.02 94.64 38.52 154.89"/><polygon points="37.72 153.62 36.93 152.35 135.02 91.11 135.02 92.88 37.72 153.62"/><polygon points="36.93 152.35 36.14 151.09 135.02 89.36 135.02 91.11 36.93 152.35"/><polygon points="36.14 151.09 35.35 149.82 135.02 87.59 135.02 89.36 36.14 151.09"/><polygon points="35.35 149.82 34.55 148.56 135.02 85.83 135.02 87.59 35.35 149.82"/><polygon points="34.55 148.56 33.76 147.29 135.02 84.08 135.02 85.83 34.55 148.56"/><polygon points="33.76 147.29 32.97 146.03 135.02 82.31 135.02 84.08 33.76 147.29"/><polygon points="32.97 146.03 32.18 144.76 135.02 80.56 135.02 82.31 32.97 146.03"/><polygon points="32.18 144.76 31.39 143.5 135.02 78.8 135.02 80.56 32.18 144.76"/><polygon points="31.39 143.5 30.59 142.23 135.02 77.04 135.02 78.8 31.39 143.5"/><polygon points="30.59 142.23 29.8 140.97 135.02 75.28 135.02 77.04 30.59 142.23"/><polygon points="29.8 140.97 29.01 139.7 135.02 73.52 135.02 75.28 29.8 140.97"/><polygon points="29.01 139.7 28.43 138.78 28.43 138.3 135.02 71.76 135.02 73.52 29.01 139.7"/><polygon points="28.43 136.45 135.02 69.91 135.02 71.76 28.43 138.3 28.43 136.45"/><polygon points="28.43 134.6 135.02 68.06 135.02 69.91 28.43 136.45 28.43 134.6"/><polygon points="28.43 132.75 134.32 66.64 135.02 67.77 135.02 68.06 28.43 134.6 28.43 132.75"/><polygon points="28.43 130.9 133.49 65.32 134.32 66.64 28.43 132.75 28.43 130.9"/><polygon points="28.43 129.05 132.66 63.99 133.49 65.32 28.43 130.9 28.43 129.05"/><polygon points="28.43 127.2 131.82 62.66 132.66 63.99 28.43 129.05 28.43 127.2"/><polygon points="28.43 125.36 130.99 61.33 131.82 62.66 28.43 127.2 28.43 125.36"/><polygon points="28.43 123.5 130.16 60 130.99 61.33 28.43 125.36 28.43 123.5"/><polygon points="28.43 121.66 129.32 58.67 130.16 60 28.43 123.5 28.43 121.66"/><polygon points="28.43 119.81 128.49 57.34 129.32 58.67 28.43 121.66 28.43 119.81"/><polygon points="28.43 117.96 127.66 56.01 128.49 57.34 28.43 119.81 28.43 117.96"/><polygon points="28.43 116.11 126.83 54.68 127.66 56.01 28.43 117.96 28.43 116.11"/><polygon points="28.43 114.26 125.99 53.35 126.83 54.68 28.43 116.11 28.43 114.26"/><polygon points="28.43 112.41 125.16 52.02 125.99 53.35 28.43 114.26 28.43 112.41"/><polygon points="28.43 110.56 124.33 50.69 125.16 52.02 28.43 112.41 28.43 110.56"/><polygon points="28.43 108.71 123.5 49.36 124.33 50.69 28.43 110.56 28.43 108.71"/><polygon points="28.43 106.86 122.66 48.03 123.5 49.36 28.43 108.71 28.43 106.86"/><polygon points="28.43 105.01 121.83 46.7 122.66 48.03 28.43 106.86 28.43 105.01"/><polygon points="28.43 103.16 121 45.37 121.83 46.7 28.43 105.01 28.43 103.16"/><polygon points="28.43 101.31 120.17 44.04 121 45.37 28.43 103.16 28.43 101.31"/><polygon points="28.43 99.46 119.33 42.71 120.17 44.04 28.43 101.31 28.43 99.46"/><polygon points="28.43 97.61 118.5 41.38 119.33 42.71 28.43 99.46 28.43 97.61"/><polygon points="28.43 95.76 117.67 40.05 118.5 41.38 28.43 97.61 28.43 95.76"/><polygon points="28.43 93.91 116.83 38.72 117.67 40.05 28.43 95.76 28.43 93.91"/><polygon points="28.43 92.06 116 37.39 116.83 38.72 28.43 93.91 28.43 92.06"/><polygon points="28.43 90.21 115.17 36.06 116 37.39 28.43 92.06 28.43 90.21"/><polygon points="28.43 88.36 114.34 34.73 115.17 36.06 28.43 90.21 28.43 88.36"/><polygon points="28.43 86.52 113.5 33.4 114.34 34.73 28.43 88.36 28.43 86.52"/><polygon points="28.43 84.67 112.67 32.07 113.5 33.4 28.43 86.52 28.43 84.67"/><polygon points="28.43 82.82 111.84 30.74 112.67 32.07 28.43 84.67 28.43 82.82"/><polygon points="28.43 80.97 111.01 29.41 111.84 30.74 28.43 82.82 28.43 80.97"/><polygon points="28.43 79.12 109.56 28.47 110.42 28.47 111.01 29.41 28.43 80.97 28.43 79.12"/><polygon points="28.43 77.27 106.59 28.47 109.56 28.47 28.43 79.12 28.43 77.27"/><polygon points="28.43 75.42 103.63 28.47 106.59 28.47 28.43 77.27 28.43 75.42"/><polygon points="28.43 73.57 100.67 28.47 103.63 28.47 28.43 75.42 28.43 73.57"/><polygon points="28.43 71.72 97.71 28.47 100.67 28.47 28.43 73.57 28.43 71.72"/><polygon points="28.43 69.87 94.74 28.47 97.71 28.47 28.43 71.72 28.43 69.87"/><polygon points="28.43 68.02 91.78 28.47 94.74 28.47 28.43 69.87 28.43 68.02"/><polygon points="28.43 66.17 88.82 28.47 91.78 28.47 28.43 68.02 28.43 66.17"/><polygon points="28.43 64.32 85.86 28.47 88.82 28.47 28.43 66.17 28.43 64.32"/><polygon points="28.43 62.47 82.89 28.47 85.86 28.47 28.43 64.32 28.43 62.47"/><polygon points="28.43 60.62 79.93 28.47 82.89 28.47 28.43 62.47 28.43 60.62"/><polygon points="28.43 58.77 76.97 28.47 79.93 28.47 28.43 60.62 28.43 58.77"/><polygon points="28.43 56.92 74.01 28.47 76.97 28.47 28.43 58.77 28.43 56.92"/><polygon points="28.43 55.07 71.04 28.47 74.01 28.47 28.43 56.92 28.43 55.07"/><polygon points="28.43 53.22 68.08 28.47 71.04 28.47 28.43 55.07 28.43 53.22"/><polygon points="28.43 51.37 65.12 28.47 68.08 28.47 28.43 53.22 28.43 51.37"/><polygon points="28.43 49.52 62.16 28.47 65.12 28.47 28.43 51.37 28.43 49.52"/><polygon points="28.43 47.67 59.19 28.47 62.16 28.47 28.43 49.52 28.43 47.67"/><polygon points="28.43 45.83 56.23 28.47 59.19 28.47 28.43 47.67 28.43 45.83"/><polygon points="28.43 43.98 53.27 28.47 56.23 28.47 28.43 45.83 28.43 43.98"/><polygon points="28.43 42.13 50.31 28.47 53.27 28.47 28.43 43.98 28.43 42.13"/><polygon points="28.43 40.28 47.34 28.47 50.31 28.47 28.43 42.13 28.43 40.28"/><polygon points="47.34 28.47 28.43 40.28 28.43 28.47 47.34 28.47"/></g></svg>