<svg id="Layer_1" data-name="Layer 1" xmlns="http://www.w3.org/2000/svg" xmlns:xlink="http://www.w3.org/1999/xlink" viewBox="0 0 533 118.26"><defs><style>.cls-1{fill:none;}.cls-2{fill:#fff;}.cls-3,.cls-4{fill:#231f20;}.cls-3{stroke:#231f20;stroke-miterlimit:10;}.cls-5{clip-path:url(#clip-path);}</style><clipPath id="clip-path"><path class="cls-1" d="M320.74,52.13v-12l-43.89-21-12.08,5.25V36.47l29.12,14L264.75,64.6v12l44.14,20.92,11.85-5.25V56.18l-12.58,5.58V84.59l-27.06-13,28.13-14.34Zm-11.1,3.31V46.09l9.62-4.38v9.46Zm8.62-14.89-9.34,4.25-41.64-20,9.55-4.14Zm-8.62,22.17,9.62-4.27V91.31l-9.62,4.28V62.72Zm-1.48,23.51v9.33L266.24,75.69V65.53l31.05-15.12L266.24,35.54V26l41.93,20.11v10l-30.4,15.51Z"/></clipPath></defs><title>powered by zilliqa logo</title><rect class="cls-2" y="1.13" width="533" height="116" rx="20" ry="20"/><path class="cls-3" d="M36.13,49.23H43.9c5.44,0,8.8,2.34,8.8,7.13s-3.36,7.18-8.8,7.18h-5V76H36.13Zm2.72,11.82h4.38c4.86,0,6.53-2.12,6.53-4.69s-1.67-4.64-6.53-4.64H38.85Z"/><path class="cls-3" d="M65.35,76.41a9.29,9.29,0,1,1,0-18.57,9.29,9.29,0,1,1,0,18.57Zm0-16.31c-4.08,0-6.64,3.06-6.64,7s2.56,7,6.64,7,6.68-3,6.68-7S69.47,60.1,65.35,60.1Z"/><path class="cls-3" d="M80,58.29l4.08,14.34h.07l4.72-14.34h2.57L96.2,72.63h.07l4.08-14.34h2.94L97.71,76h-2.8l-4.68-14.5h-.07L85.48,76h-2.8L77.09,58.29Z"/><path class="cls-3" d="M108.28,67.8a6.63,6.63,0,0,0,6.49,6.34,6.7,6.7,0,0,0,5.67-3l1.92,1.58a9.22,9.22,0,0,1-7.59,3.74,9,9,0,0,1-9.13-9.29,8.92,8.92,0,0,1,8.91-9.28c5.36,0,8.45,4,8.45,8.83V67.8Zm12-2a5.33,5.33,0,0,0-5.74-5.66c-3.25,0-6.19,2.76-6.19,5.66Z"/><path class="cls-3" d="M127.8,63.8c0-1.58-.07-2.94-.15-5.51h2.46v3.28h.07a5.82,5.82,0,0,1,5.66-3.73,6.75,6.75,0,0,1,1.85.22l-.49,2.46a4,4,0,0,0-1.43-.19A5.53,5.53,0,0,0,130.29,66V76H127.8Z"/><path class="cls-3" d="M141.13,67.8a6.63,6.63,0,0,0,6.49,6.34,6.71,6.71,0,0,0,5.67-3l1.92,1.58a9.23,9.23,0,0,1-7.59,3.74,9,9,0,0,1-9.13-9.29,8.92,8.92,0,0,1,8.91-9.28c5.36,0,8.45,4,8.45,8.83V67.8Zm12-2a5.33,5.33,0,0,0-5.73-5.66c-3.25,0-6.19,2.76-6.19,5.66Z"/><path class="cls-3" d="M178,76h-2.49V73h-.08a8.43,8.43,0,0,1-6.87,3.4,9.29,9.29,0,1,1,0-18.57,8.45,8.45,0,0,1,6.87,3.39h.08V47.42H178Zm-9.44-1.82a7,7,0,1,0,0-14c-4.12,0-6.68,3.06-6.68,7S164.46,74.14,168.58,74.14Z"/><path class="cls-3" d="M194,47.42h2.49V61.23h.08a8.45,8.45,0,0,1,6.87-3.39,9.29,9.29,0,1,1,0,18.57,8.43,8.43,0,0,1-6.87-3.4h-.08V76H194Zm9.44,12.68a7,7,0,1,0,0,14c4.12,0,6.68-3,6.68-7S207.51,60.1,203.39,60.1Z"/><path class="cls-3" d="M223.59,72.9,229,58.29h3l-8.83,22.27c-1.06,2.72-2.5,4.46-5.55,4.46a7.93,7.93,0,0,1-2.31-.27l.27-2.41a4,4,0,0,0,1.89.41c1.73,0,2.64-1.17,3.39-3.17l1.29-3.4-7.25-17.89H218Z"/><path class="cls-4" d="M356.79,69.47l15.1-16.28H357.58V47.61h22.73v6.17L365.12,70h16v5.69H356.89V69.47Z"/><path class="cls-4" d="M383.45,38.09a4.34,4.34,0,0,1,4.41-4.21,4.91,4.91,0,0,1,3.24,1.17,4.07,4.07,0,0,1,.19,5.79l-.19.2a4.44,4.44,0,0,1-3.24,1.17,4.16,4.16,0,0,1-3.14-1.27A3.55,3.55,0,0,1,383.45,38.09Zm1,9.52h7v28h-7Z"/><path class="cls-4" d="M397.17,31.43h7V75.65h-7Z"/><path class="cls-4" d="M409.91,31.43h7V75.65h-7Z"/><path class="cls-4" d="M421.67,38.09a4.36,4.36,0,0,1,4.42-4.21,4.88,4.88,0,0,1,3.23,1.17,4.07,4.07,0,0,1,.2,5.79l-.2.2a4.42,4.42,0,0,1-3.23,1.17A4.14,4.14,0,0,1,423,40.94,3.56,3.56,0,0,1,421.67,38.09Zm1,9.52h7v28h-7Z"/><path class="cls-4" d="M463.82,89.67h-7.06V71.92h-.1a8.89,8.89,0,0,1-3.82,3.33,11.44,11.44,0,0,1-5.49,1.18,14.76,14.76,0,0,1-5.78-1.18A12.67,12.67,0,0,1,437.26,72a15.13,15.13,0,0,1-2.75-4.71,17.56,17.56,0,0,1,0-11.57,13.34,13.34,0,0,1,12.65-8.92,13.37,13.37,0,0,1,3.43.39,13.59,13.59,0,0,1,2.74,1.08,6.28,6.28,0,0,1,2.06,1.57,11.08,11.08,0,0,1,1.37,1.67h.2V47.6h6.76ZM440.69,61.53a11.47,11.47,0,0,0,.49,3.23,8.26,8.26,0,0,0,1.47,2.95,9.15,9.15,0,0,0,2.55,2.15,7.88,7.88,0,0,0,7,0,7.23,7.23,0,0,0,2.54-2.06,10.66,10.66,0,0,0,1.67-2.94,9.48,9.48,0,0,0,.59-3.23,9.08,9.08,0,0,0-.59-3.24,8.62,8.62,0,0,0-1.67-2.94,9,9,0,0,0-2.54-2.16,6.08,6.08,0,0,0-3.43-.78,7.15,7.15,0,0,0-3.53.78,7.47,7.47,0,0,0-2.55,2.06,8.14,8.14,0,0,0-1.47,2.94,11.54,11.54,0,0,0-.49,3.24Z"/><path class="cls-4" d="M486.66,72.12h-.2a6.92,6.92,0,0,1-3.43,3,11,11,0,0,1-5.29,1.17,21.07,21.07,0,0,1-3.53-.39,11.48,11.48,0,0,1-3.43-1.47,7.35,7.35,0,0,1-2.55-2.65,7.46,7.46,0,0,1-1-4.11,7.16,7.16,0,0,1,1.76-5,11.92,11.92,0,0,1,4.61-2.84,22.63,22.63,0,0,1,6.27-1.27c2.26-.2,4.51-.3,6.67-.3v-.68a4.41,4.41,0,0,0-1.86-3.93,8.31,8.31,0,0,0-4.51-1.27,11.1,11.1,0,0,0-4.32,1,11.49,11.49,0,0,0-3.43,2.26l-3.62-4.22a15,15,0,0,1,5.49-3.33A20,20,0,0,1,480.68,47a14.8,14.8,0,0,1,6.17,1.08,10.36,10.36,0,0,1,3.82,2.74,10.75,10.75,0,0,1,2,3.82,14.89,14.89,0,0,1,.59,4.22V75.94h-6.56Zm-.1-9.22H485a20.91,20.91,0,0,0-3.53.2,13.13,13.13,0,0,0-3.43.68,8.69,8.69,0,0,0-2.65,1.38,3.33,3.33,0,0,0-1.07,2.45,2.5,2.5,0,0,0,.49,1.66A3,3,0,0,0,476,70.35a4.26,4.26,0,0,0,1.57.59,10.66,10.66,0,0,0,1.77.2,6.66,6.66,0,0,0,7.35-7.26Z"/><g class="cls-5"><polygon points="307.23 95.55 308.18 94.96 308.18 95.55 307.23 95.55"/><polygon points="305.74 95.55 308.18 94.04 308.18 94.96 307.23 95.55 305.74 95.55"/><polygon points="304.26 95.55 308.18 93.11 308.18 94.04 305.74 95.55 304.26 95.55"/><polygon points="302.78 95.55 308.18 92.19 308.18 93.11 304.26 95.55 302.78 95.55"/><polygon points="301.3 95.55 308.18 91.26 308.18 92.19 302.78 95.55 301.3 95.55"/><polygon points="299.82 95.55 308.18 90.34 308.18 91.26 301.3 95.55 299.82 95.55"/><polygon points="298.34 95.55 308.18 89.41 308.18 90.34 299.82 95.55 298.34 95.55"/><polygon points="296.86 95.55 308.18 88.49 308.18 89.41 298.34 95.55 296.86 95.55"/><polygon points="295.38 95.55 308.18 87.56 308.18 88.49 296.86 95.55 295.38 95.55"/><polygon points="293.9 95.55 308.18 86.64 308.18 87.56 295.38 95.55 293.9 95.55"/><polygon points="292.42 95.55 308.18 85.71 308.18 86.64 293.9 95.55 292.42 95.55"/><polygon points="290.93 95.55 308.18 84.79 308.18 85.71 292.42 95.55 290.93 95.55"/><polygon points="289.45 95.55 308.18 83.86 308.18 84.79 290.93 95.55 289.45 95.55"/><polygon points="287.97 95.55 308.18 82.94 308.18 83.86 289.45 95.55 287.97 95.55"/><polygon points="286.49 95.55 308.18 82.02 308.18 82.94 287.97 95.55 286.49 95.55"/><polygon points="285.01 95.55 308.18 81.09 308.18 82.02 286.49 95.55 285.01 95.55"/><polygon points="283.53 95.55 308.18 80.17 308.18 81.09 285.01 95.55 283.53 95.55"/><polygon points="282.05 95.55 308.18 79.25 308.18 80.17 283.53 95.55 282.05 95.55"/><polygon points="280.57 95.55 308.18 78.32 308.18 79.25 282.05 95.55 280.57 95.55"/><polygon points="279.09 95.55 308.18 77.39 308.18 78.32 280.57 95.55 279.09 95.55"/><polygon points="278.43 95.55 278.2 95.19 308.18 76.47 308.18 77.39 279.09 95.55 278.43 95.55"/><polygon points="278.2 95.19 277.78 94.52 308.18 75.55 308.18 76.47 278.2 95.19"/><polygon points="277.78 94.52 277.37 93.86 308.18 74.62 308.18 75.55 277.78 94.52"/><polygon points="277.37 93.86 276.95 93.19 308.18 73.7 308.18 74.62 277.37 93.86"/><polygon points="276.95 93.19 276.53 92.53 308.18 72.77 308.18 73.7 276.95 93.19"/><polygon points="276.53 92.53 276.12 91.86 308.18 71.84 308.18 72.77 276.53 92.53"/><polygon points="276.12 91.86 275.7 91.19 308.18 70.92 308.18 71.84 276.12 91.86"/><polygon points="275.7 91.19 275.28 90.53 308.18 70 308.18 70.92 275.7 91.19"/><polygon points="275.28 90.53 274.87 89.86 308.18 69.08 308.18 70 275.28 90.53"/><polygon points="274.87 89.86 274.45 89.2 308.18 68.15 308.18 69.08 274.87 89.86"/><polygon points="274.45 89.2 274.04 88.53 308.18 67.23 308.18 68.15 274.45 89.2"/><polygon points="274.04 88.53 273.62 87.87 308.18 66.3 308.18 67.23 274.04 88.53"/><polygon points="273.62 87.87 273.2 87.21 308.18 65.38 308.18 66.3 273.62 87.87"/><polygon points="273.2 87.21 272.79 86.54 308.18 64.45 308.18 65.38 273.2 87.21"/><polygon points="272.79 86.54 272.37 85.88 308.18 63.53 308.18 64.45 272.79 86.54"/><polygon points="272.37 85.88 271.95 85.22 308.18 62.6 308.18 63.53 272.37 85.88"/><polygon points="271.95 85.22 271.54 84.55 308.18 61.68 308.18 62.6 271.95 85.22"/><polygon points="271.54 84.55 271.12 83.89 308.18 60.75 308.18 61.68 271.54 84.55"/><polygon points="271.12 83.89 270.71 83.22 308.18 59.83 308.18 60.75 271.12 83.89"/><polygon points="270.71 83.22 270.29 82.55 308.18 58.9 308.18 59.83 270.71 83.22"/><polygon points="270.29 82.55 269.87 81.89 308.18 57.98 308.18 58.9 270.29 82.55"/><polygon points="269.87 81.89 269.46 81.22 308.18 57.05 308.18 57.98 269.87 81.89"/><polygon points="269.46 81.22 269.04 80.56 308.18 56.13 308.18 57.05 269.46 81.22"/><polygon points="269.04 80.56 268.63 79.89 308.18 55.2 308.18 56.13 269.04 80.56"/><polygon points="268.63 79.89 268.21 79.23 308.18 54.28 308.18 55.2 268.63 79.89"/><polygon points="268.21 79.23 267.79 78.56 308.18 53.36 308.18 54.28 268.21 79.23"/><polygon points="267.79 78.56 267.38 77.9 308.18 52.43 308.18 53.36 267.79 78.56"/><polygon points="267.38 77.9 266.96 77.23 308.18 51.51 308.18 52.43 267.38 77.9"/><polygon points="266.96 77.23 266.54 76.57 308.18 50.58 308.18 51.51 266.96 77.23"/><polygon points="266.54 76.57 266.24 76.08 266.24 75.84 308.18 49.66 308.18 50.58 266.54 76.57"/><polygon points="266.24 74.86 308.18 48.69 308.18 49.66 266.24 75.84 266.24 74.86"/><polygon points="266.24 73.89 308.18 47.71 308.18 48.69 266.24 74.86 266.24 73.89"/><polygon points="266.24 72.92 308.18 46.74 308.18 47.71 266.24 73.89 266.24 72.92"/><polygon points="266.24 71.95 308.18 45.77 308.18 46.74 266.24 72.92 266.24 71.95"/><polygon points="266.24 70.98 307.77 45.05 308.18 45.69 308.18 45.77 266.24 71.95 266.24 70.98"/><polygon points="266.24 70 307.34 44.35 307.77 45.05 266.24 70.98 266.24 70"/><polygon points="266.24 69.04 306.9 43.65 307.34 44.35 266.24 70 266.24 69.04"/><polygon points="266.24 68.07 306.46 42.95 306.9 43.65 266.24 69.04 266.24 68.07"/><polygon points="266.24 67.09 306.02 42.25 306.46 42.95 266.24 68.07 266.24 67.09"/><polygon points="266.24 66.12 305.59 41.55 306.02 42.25 266.24 67.09 266.24 66.12"/><polygon points="266.24 65.15 305.15 40.85 305.59 41.55 266.24 66.12 266.24 65.15"/><polygon points="266.24 64.18 304.71 40.16 305.15 40.85 266.24 65.15 266.24 64.18"/><polygon points="266.24 63.21 304.27 39.46 304.71 40.16 266.24 64.18 266.24 63.21"/><polygon points="266.24 62.23 303.84 38.76 304.27 39.46 266.24 63.21 266.24 62.23"/><polygon points="266.24 61.26 303.4 38.06 303.84 38.76 266.24 62.23 266.24 61.26"/><polygon points="266.24 60.29 302.96 37.36 303.4 38.06 266.24 61.26 266.24 60.29"/><polygon points="266.24 59.32 302.52 36.66 302.96 37.36 266.24 60.29 266.24 59.32"/><polygon points="266.24 58.35 302.09 35.97 302.52 36.66 266.24 59.32 266.24 58.35"/><polygon points="266.24 57.38 301.65 35.27 302.09 35.97 266.24 58.35 266.24 57.38"/><polygon points="266.24 56.4 301.22 34.57 301.65 35.27 266.24 57.38 266.24 56.4"/><polygon points="266.24 55.43 300.77 33.87 301.22 34.57 266.24 56.4 266.24 55.43"/><polygon points="266.24 54.46 300.34 33.17 300.77 33.87 266.24 55.43 266.24 54.46"/><polygon points="266.24 53.49 299.9 32.47 300.34 33.17 266.24 54.46 266.24 53.49"/><polygon points="266.24 52.52 299.46 31.77 299.9 32.47 266.24 53.49 266.24 52.52"/><polygon points="266.24 51.54 299.02 31.07 299.46 31.77 266.24 52.52 266.24 51.54"/><polygon points="266.24 50.57 298.59 30.38 299.02 31.07 266.24 51.54 266.24 50.57"/><polygon points="266.24 49.6 298.15 29.68 298.59 30.38 266.24 50.57 266.24 49.6"/><polygon points="266.24 48.63 297.71 28.98 298.15 29.68 266.24 49.6 266.24 48.63"/><polygon points="266.24 47.66 297.27 28.28 297.71 28.98 266.24 48.63 266.24 47.66"/><polygon points="266.24 46.69 296.84 27.58 297.27 28.28 266.24 47.66 266.24 46.69"/><polygon points="266.24 45.72 296.4 26.88 296.84 27.58 266.24 46.69 266.24 45.72"/><polygon points="266.24 44.74 295.96 26.18 296.4 26.88 266.24 45.72 266.24 44.74"/><polygon points="266.24 43.77 294.75 25.97 295.83 25.97 295.96 26.18 266.24 44.74 266.24 43.77"/><polygon points="266.24 42.8 293.19 25.97 294.75 25.97 266.24 43.77 266.24 42.8"/><polygon points="266.24 41.83 291.63 25.97 293.19 25.97 266.24 42.8 266.24 41.83"/><polygon points="266.24 40.86 290.08 25.97 291.63 25.97 266.24 41.83 266.24 40.86"/><polygon points="266.24 39.89 288.52 25.97 290.08 25.97 266.24 40.86 266.24 39.89"/><polygon points="266.24 38.91 286.96 25.97 288.52 25.97 266.24 39.89 266.24 38.91"/><polygon points="266.24 37.94 285.41 25.97 286.96 25.97 266.24 38.91 266.24 37.94"/><polygon points="266.24 36.97 283.85 25.97 285.41 25.97 266.24 37.94 266.24 36.97"/><polygon points="266.24 36 282.3 25.97 283.85 25.97 266.24 36.97 266.24 36"/><polygon points="266.24 35.03 280.74 25.97 282.3 25.97 266.24 36 266.24 35.03"/><polygon points="266.24 34.05 279.18 25.97 280.74 25.97 266.24 35.03 266.24 34.05"/><polygon points="266.24 33.08 277.63 25.97 279.18 25.97 266.24 34.05 266.24 33.08"/><polygon points="266.24 32.11 276.07 25.97 277.63 25.97 266.24 33.08 266.24 32.11"/><polygon points="266.24 31.14 274.51 25.97 276.07 25.97 266.24 32.11 266.24 31.14"/><polygon points="266.24 30.17 272.96 25.97 274.51 25.97 266.24 31.14 266.24 30.17"/><polygon points="266.24 29.2 271.4 25.97 272.96 25.97 266.24 30.17 266.24 29.2"/><polygon points="266.24 28.23 269.85 25.97 271.4 25.97 266.24 29.2 266.24 28.23"/><polygon points="266.24 27.26 268.29 25.97 269.85 25.97 266.24 28.23 266.24 27.26"/><polygon points="266.24 26.28 266.73 25.97 268.29 25.97 266.24 27.26 266.24 26.28"/><polygon points="266.73 25.97 266.24 26.28 266.24 25.97 266.73 25.97"/><polygon points="313.1 95.58 319.28 91.73 319.28 95.58 313.1 95.58"/><polygon points="311.62 95.58 319.28 90.8 319.28 91.73 313.1 95.58 311.62 95.58"/><polygon points="310.14 95.58 319.28 89.88 319.28 90.8 311.62 95.58 310.14 95.58"/><polygon points="309.65 94.96 319.28 88.95 319.28 89.88 310.14 95.58 309.65 95.58 309.65 94.96"/><polygon points="309.65 94.04 319.28 88.03 319.28 88.95 309.65 94.96 309.65 94.04"/><polygon points="309.65 93.12 319.28 87.11 319.28 88.03 309.65 94.04 309.65 93.12"/><polygon points="309.65 92.19 319.28 86.18 319.28 87.11 309.65 93.12 309.65 92.19"/><polygon points="309.65 91.27 319.28 85.26 319.28 86.18 309.65 92.19 309.65 91.27"/><polygon points="309.65 90.34 319.28 84.33 319.28 85.26 309.65 91.27 309.65 90.34"/><polygon points="309.65 89.41 319.28 83.41 319.28 84.33 309.65 90.34 309.65 89.41"/><polygon points="309.65 88.49 319.28 82.48 319.28 83.41 309.65 89.41 309.65 88.49"/><polygon points="309.65 87.57 319.28 81.56 319.28 82.48 309.65 88.49 309.65 87.57"/><polygon points="309.65 86.64 319.28 80.63 319.28 81.56 309.65 87.57 309.65 86.64"/><polygon points="309.65 85.72 319.28 79.71 319.28 80.63 309.65 86.64 309.65 85.72"/><polygon points="309.65 84.79 319.28 78.78 319.28 79.71 309.65 85.72 309.65 84.79"/><polygon points="309.65 83.87 319.28 77.86 319.28 78.78 309.65 84.79 309.65 83.87"/><polygon points="309.65 82.94 319.28 76.94 319.28 77.86 309.65 83.87 309.65 82.94"/><polygon points="309.65 82.02 319.28 76.01 319.28 76.94 309.65 82.94 309.65 82.02"/><polygon points="309.65 81.1 319.28 75.08 319.28 76.01 309.65 82.02 309.65 81.1"/><polygon points="309.65 80.17 319.28 74.16 319.28 75.08 309.65 81.1 309.65 80.17"/><polygon points="309.65 79.25 319.28 73.24 319.28 74.16 309.65 80.17 309.65 79.25"/><polygon points="309.65 78.32 319.28 72.31 319.28 73.24 309.65 79.25 309.65 78.32"/><polygon points="309.65 77.4 319.28 71.39 319.28 72.31 309.65 78.32 309.65 77.4"/><polygon points="309.65 76.47 319.28 70.46 319.28 71.39 309.65 77.4 309.65 76.47"/><polygon points="309.65 75.55 319.28 69.54 319.28 70.46 309.65 76.47 309.65 75.55"/><polygon points="309.65 74.62 319.28 68.61 319.28 69.54 309.65 75.55 309.65 74.62"/><polygon points="309.65 73.7 319.28 67.69 319.28 68.61 309.65 74.62 309.65 73.7"/><polygon points="309.65 72.77 319.28 66.76 319.28 67.69 309.65 73.7 309.65 72.77"/><polygon points="309.65 71.85 319.28 65.84 319.28 66.76 309.65 72.77 309.65 71.85"/><polygon points="309.65 70.92 319.28 64.91 319.28 65.84 309.65 71.85 309.65 70.92"/><polygon points="309.65 70 319.28 63.99 319.28 64.91 309.65 70.92 309.65 70"/><polygon points="309.65 69.08 319.28 63.06 319.28 63.99 309.65 70 309.65 69.08"/><polygon points="309.65 68.15 319.28 62.14 319.28 63.06 309.65 69.08 309.65 68.15"/><polygon points="309.65 67.23 319.28 61.22 319.28 62.14 309.65 68.15 309.65 67.23"/><polygon points="309.65 66.3 319.28 60.29 319.28 61.22 309.65 67.23 309.65 66.3"/><polygon points="309.65 65.38 319.28 59.37 319.28 60.29 309.65 66.3 309.65 65.38"/><polygon points="309.65 64.45 319.27 58.45 319.28 58.45 319.28 59.37 309.65 65.38 309.65 64.45"/><polygon points="309.65 63.53 317.79 58.45 319.27 58.45 309.65 64.45 309.65 63.53"/><polygon points="309.65 62.6 316.3 58.45 317.79 58.45 309.65 63.53 309.65 62.6"/><polygon points="309.65 61.68 314.82 58.45 316.3 58.45 309.65 62.6 309.65 61.68"/><polygon points="309.65 60.75 313.34 58.45 314.82 58.45 309.65 61.68 309.65 60.75"/><polygon points="309.65 59.83 311.86 58.45 313.34 58.45 309.65 60.75 309.65 59.83"/><polygon points="309.65 58.9 310.38 58.45 311.86 58.45 309.65 59.83 309.65 58.9"/><polygon points="310.38 58.45 309.65 58.9 309.65 58.45 310.38 58.45"/><polygon points="317.44 44.8 318.27 44.28 318.27 44.8 317.44 44.8"/><polygon points="315.96 44.8 318.27 43.35 318.27 44.28 317.44 44.8 315.96 44.8"/><polygon points="314.4 44.8 318.27 42.38 318.27 43.35 315.96 44.8 314.4 44.8"/><polygon points="312.84 44.8 318.27 41.41 318.27 42.38 314.4 44.8 312.84 44.8"/><polygon points="311.29 44.8 318.27 40.44 318.27 41.41 312.84 44.8 311.29 44.8"/><polygon points="309.73 44.8 317.96 39.66 318.27 40.15 318.27 40.44 311.29 44.8 309.73 44.8"/><polygon points="308.18 44.8 317.52 38.96 317.96 39.66 309.73 44.8 308.18 44.8"/><polygon points="306.62 44.8 317.09 38.26 317.52 38.96 308.18 44.8 306.62 44.8"/><polygon points="305.06 44.8 316.65 37.56 317.09 38.26 306.62 44.8 305.06 44.8"/><polygon points="303.51 44.8 316.21 36.87 316.65 37.56 305.06 44.8 303.51 44.8"/><polygon points="301.95 44.8 315.77 36.17 316.21 36.87 303.51 44.8 301.95 44.8"/><polygon points="300.39 44.8 315.34 35.47 315.77 36.17 301.95 44.8 300.39 44.8"/><polygon points="298.84 44.8 314.9 34.77 315.34 35.47 300.39 44.8 298.84 44.8"/><polygon points="297.28 44.8 314.46 34.07 314.9 34.77 298.84 44.8 297.28 44.8"/><polygon points="295.73 44.8 314.02 33.37 314.46 34.07 297.28 44.8 295.73 44.8"/><polygon points="294.17 44.8 313.59 32.67 314.02 33.37 295.73 44.8 294.17 44.8"/><polygon points="292.61 44.8 313.15 31.97 313.59 32.67 294.17 44.8 292.61 44.8"/><polygon points="291.06 44.8 312.71 31.27 313.15 31.97 292.61 44.8 291.06 44.8"/><polygon points="289.5 44.8 312.27 30.58 312.71 31.27 291.06 44.8 289.5 44.8"/><polygon points="287.94 44.8 311.83 29.88 312.27 30.58 289.5 44.8 287.94 44.8"/><polygon points="286.38 44.8 311.4 29.18 311.83 29.88 287.94 44.8 286.38 44.8"/><polygon points="284.83 44.8 310.96 28.48 311.4 29.18 286.38 44.8 284.83 44.8"/><polygon points="283.27 44.8 310.52 27.79 310.96 28.48 284.83 44.8 283.27 44.8"/><polygon points="281.72 44.8 310.08 27.08 310.52 27.79 283.27 44.8 281.72 44.8"/><polygon points="280.16 44.8 309.65 26.39 310.08 27.08 281.72 44.8 280.16 44.8"/><polygon points="279.53 44.8 279.27 44.38 309.21 25.69 309.65 26.39 280.16 44.8 279.53 44.8"/><polygon points="279.27 44.38 278.83 43.68 308.78 24.99 309.21 25.69 279.27 44.38"/><polygon points="278.83 43.68 278.4 42.98 308.33 24.29 308.78 24.99 278.83 43.68"/><polygon points="278.4 42.98 277.96 42.29 307.9 23.59 308.33 24.29 278.4 42.98"/><polygon points="277.96 42.29 277.52 41.59 307.46 22.89 307.9 23.59 277.96 42.29"/><polygon points="277.52 41.59 277.08 40.89 307.03 22.2 307.46 22.89 277.52 41.59"/><polygon points="277.08 40.89 276.64 40.19 306.58 21.5 307.03 22.2 277.08 40.89"/><polygon points="276.64 40.19 276.21 39.49 306.15 20.8 306.58 21.5 276.64 40.19"/><polygon points="276.21 39.49 275.77 38.79 304.77 20.68 306.07 20.68 306.15 20.8 276.21 39.49"/><polygon points="275.77 38.79 275.34 38.09 303.22 20.68 304.77 20.68 275.77 38.79"/><polygon points="275.34 38.09 274.89 37.4 301.66 20.68 303.22 20.68 275.34 38.09"/><polygon points="274.89 37.4 274.46 36.7 300.11 20.68 301.66 20.68 274.89 37.4"/><polygon points="274.46 36.7 274.02 36 298.55 20.68 300.11 20.68 274.46 36.7"/><polygon points="274.02 36 273.58 35.3 296.99 20.68 298.55 20.68 274.02 36"/><polygon points="273.58 35.3 273.14 34.6 295.44 20.68 296.99 20.68 273.58 35.3"/><polygon points="273.14 34.6 272.71 33.9 293.88 20.68 295.44 20.68 273.14 34.6"/><polygon points="272.71 33.9 272.27 33.2 292.32 20.68 293.88 20.68 272.71 33.9"/><polygon points="272.27 33.2 271.84 32.5 290.77 20.68 292.32 20.68 272.27 33.2"/><polygon points="271.84 32.5 271.39 31.8 289.21 20.68 290.77 20.68 271.84 32.5"/><polygon points="271.39 31.8 270.96 31.11 287.66 20.68 289.21 20.68 271.39 31.8"/><polygon points="270.96 31.11 270.52 30.41 286.1 20.68 287.66 20.68 270.96 31.11"/><polygon points="270.52 30.41 270.08 29.71 284.54 20.68 286.1 20.68 270.52 30.41"/><polygon points="270.08 29.71 269.65 29.01 282.99 20.68 284.54 20.68 270.08 29.71"/><polygon points="269.65 29.01 269.21 28.31 281.43 20.68 282.99 20.68 269.65 29.01"/><polygon points="269.21 28.31 268.77 27.61 279.87 20.68 281.43 20.68 269.21 28.31"/><polygon points="268.77 27.61 268.33 26.91 278.31 20.68 279.87 20.68 268.77 27.61"/><polygon points="268.33 26.91 267.9 26.21 276.76 20.68 278.31 20.68 268.33 26.91"/><polygon points="267.9 26.21 267.46 25.52 275.2 20.68 276.76 20.68 267.9 26.21"/><polygon points="267.46 25.52 267.28 25.23 267.28 24.66 273.64 20.68 275.2 20.68 267.46 25.52"/><polygon points="267.28 23.69 272.09 20.68 273.64 20.68 267.28 24.66 267.28 23.69"/><polygon points="272.09 20.68 267.28 23.69 267.28 20.68 272.09 20.68"/><polygon points="318.17 55.44 319.28 54.74 319.28 55.44 318.17 55.44"/><polygon points="316.69 55.44 319.28 53.82 319.28 54.74 318.17 55.44 316.69 55.44"/><polygon points="315.21 55.44 319.28 52.89 319.28 53.82 316.69 55.44 315.21 55.44"/><polygon points="313.73 55.44 319.28 51.97 319.28 52.89 315.21 55.44 313.73 55.44"/><polygon points="312.24 55.44 319.28 51.04 319.28 51.97 313.73 55.44 312.24 55.44"/><polygon points="310.76 55.44 319.28 50.12 319.28 51.04 312.24 55.44 310.76 55.44"/><polygon points="309.65 55.2 319.28 49.2 319.28 50.12 310.76 55.44 309.65 55.44 309.65 55.2"/><polygon points="309.65 54.28 319.28 48.27 319.28 49.2 309.65 55.2 309.65 54.28"/><polygon points="309.65 53.36 319.28 47.35 319.28 48.27 309.65 54.28 309.65 53.36"/><polygon points="309.65 52.43 319.28 46.43 319.28 47.35 309.65 53.36 309.65 52.43"/><polygon points="309.65 51.51 319.28 45.5 319.28 46.43 309.65 52.43 309.65 51.51"/><polygon points="309.65 50.58 319.28 44.57 319.28 45.5 309.65 51.51 309.65 50.58"/><polygon points="309.65 49.66 319.28 43.65 319.28 44.57 309.65 50.58 309.65 49.66"/><polygon points="309.65 48.73 319.28 42.73 319.28 43.65 309.65 49.66 309.65 48.73"/><polygon points="309.65 47.76 319.28 41.76 319.28 42.73 309.65 48.73 309.65 47.76"/><polygon points="309.65 46.79 317.79 41.71 319.28 41.71 319.28 41.76 309.65 47.76 309.65 46.79"/><polygon points="309.65 45.82 316.23 41.71 317.79 41.71 309.65 46.79 309.65 45.82"/><polygon points="309.65 44.84 314.67 41.71 316.23 41.71 309.65 45.82 309.65 44.84"/><polygon points="309.65 43.87 313.12 41.71 314.67 41.71 309.65 44.84 309.65 43.87"/><polygon points="309.65 42.9 311.56 41.71 313.12 41.71 309.65 43.87 309.65 42.9"/><polygon points="309.65 41.93 310 41.71 311.56 41.71 309.65 42.9 309.65 41.93"/><polygon points="310 41.71 309.65 41.93 309.65 41.71 310 41.71"/><polygon points="309.97 97.53 320.75 90.8 320.75 97.53 309.97 97.53"/><polygon points="308.5 97.53 320.75 89.88 320.75 90.8 309.97 97.53 308.5 97.53"/><polygon points="307.02 97.53 320.75 88.95 320.75 89.88 308.5 97.53 307.02 97.53"/><polygon points="305.53 97.53 320.75 88.03 320.75 88.95 307.02 97.53 305.53 97.53"/><polygon points="304.05 97.53 320.75 87.11 320.75 88.03 305.53 97.53 304.05 97.53"/><polygon points="302.57 97.53 320.75 86.18 320.75 87.11 304.05 97.53 302.57 97.53"/><polygon points="301.09 97.53 320.75 85.26 320.75 86.18 302.57 97.53 301.09 97.53"/><polygon points="299.61 97.53 320.75 84.33 320.75 85.26 301.09 97.53 299.61 97.53"/><polygon points="298.13 97.53 320.75 83.41 320.75 84.33 299.61 97.53 298.13 97.53"/><polygon points="296.64 97.53 320.75 82.48 320.75 83.41 298.13 97.53 296.64 97.53"/><polygon points="295.16 97.53 320.75 81.56 320.75 82.48 296.64 97.53 295.16 97.53"/><polygon points="293.69 97.53 320.75 80.63 320.75 81.56 295.16 97.53 293.69 97.53"/><polygon points="292.2 97.53 320.75 79.71 320.75 80.63 293.69 97.53 292.2 97.53"/><polygon points="290.72 97.53 320.75 78.78 320.75 79.71 292.2 97.53 290.72 97.53"/><polygon points="289.24 97.53 320.75 77.86 320.75 78.78 290.72 97.53 289.24 97.53"/><polygon points="287.76 97.53 320.75 76.94 320.75 77.86 289.24 97.53 287.76 97.53"/><polygon points="286.28 97.53 320.75 76.01 320.75 76.94 287.76 97.53 286.28 97.53"/><polygon points="284.8 97.53 320.75 75.08 320.75 76.01 286.28 97.53 284.8 97.53"/><polygon points="283.32 97.53 320.75 74.16 320.75 75.08 284.8 97.53 283.32 97.53"/><polygon points="281.83 97.53 320.75 73.24 320.75 74.16 283.32 97.53 281.83 97.53"/><polygon points="280.35 97.53 320.75 72.31 320.75 73.24 281.83 97.53 280.35 97.53"/><polygon points="278.87 97.53 320.75 71.39 320.75 72.31 280.35 97.53 278.87 97.53"/><polygon points="277.61 97.53 277.55 97.44 320.75 70.46 320.75 71.39 278.87 97.53 277.61 97.53"/><polygon points="277.55 97.44 277.13 96.78 320.75 69.54 320.75 70.46 277.55 97.44"/><polygon points="277.13 96.78 276.71 96.11 320.75 68.61 320.75 69.54 277.13 96.78"/><polygon points="276.71 96.11 276.3 95.45 320.75 67.69 320.75 68.61 276.71 96.11"/><polygon points="276.3 95.45 275.88 94.78 320.75 66.76 320.75 67.69 276.3 95.45"/><polygon points="275.88 94.78 275.47 94.11 320.75 65.84 320.75 66.76 275.88 94.78"/><polygon points="275.47 94.11 275.05 93.45 320.75 64.91 320.75 65.84 275.47 94.11"/><polygon points="275.05 93.45 274.63 92.78 320.75 63.99 320.75 64.91 275.05 93.45"/><polygon points="274.63 92.78 274.22 92.12 320.75 63.06 320.75 63.99 274.63 92.78"/><polygon points="274.22 92.12 273.8 91.46 320.75 62.14 320.75 63.06 274.22 92.12"/><polygon points="273.8 91.46 273.38 90.79 320.75 61.22 320.75 62.14 273.8 91.46"/><polygon points="273.38 90.79 272.97 90.13 320.75 60.29 320.75 61.22 273.38 90.79"/><polygon points="272.97 90.13 272.55 89.47 320.75 59.37 320.75 60.29 272.97 90.13"/><polygon points="272.55 89.47 272.14 88.8 320.75 58.45 320.75 59.37 272.55 89.47"/><polygon points="272.14 88.8 271.72 88.14 320.75 57.52 320.75 58.45 272.14 88.8"/><polygon points="271.72 88.14 271.3 87.47 320.75 56.6 320.75 57.52 271.72 88.14"/><polygon points="271.3 87.47 270.89 86.81 320.75 55.67 320.75 56.6 271.3 87.47"/><polygon points="270.89 86.81 270.47 86.14 320.75 54.74 320.75 55.67 270.89 86.81"/><polygon points="270.47 86.14 270.06 85.48 320.75 53.82 320.75 54.74 270.47 86.14"/><polygon points="270.06 85.48 269.63 84.81 320.75 52.9 320.75 53.82 270.06 85.48"/><polygon points="269.63 84.81 269.22 84.14 320.75 51.97 320.75 52.9 269.63 84.81"/><polygon points="269.22 84.14 268.81 83.48 320.75 51.05 320.75 51.97 269.22 84.14"/><polygon points="268.81 83.48 268.39 82.81 320.75 50.12 320.75 51.05 268.81 83.48"/><polygon points="268.39 82.81 267.97 82.15 320.75 49.2 320.75 50.12 268.39 82.81"/><polygon points="267.97 82.15 267.56 81.48 320.75 48.28 320.75 49.2 267.97 82.15"/><polygon points="267.56 81.48 267.14 80.82 320.75 47.35 320.75 48.28 267.56 81.48"/><polygon points="267.14 80.82 266.73 80.16 320.75 46.43 320.75 47.35 267.14 80.82"/><polygon points="266.73 80.16 266.31 79.49 320.75 45.5 320.75 46.43 266.73 80.16"/><polygon points="266.31 79.49 265.89 78.83 320.75 44.58 320.75 45.5 266.31 79.49"/><polygon points="265.89 78.83 265.48 78.16 320.75 43.65 320.75 44.58 265.89 78.83"/><polygon points="265.48 78.16 265.06 77.5 320.75 42.73 320.75 43.65 265.48 78.16"/><polygon points="265.06 77.5 264.75 77.01 264.75 76.76 320.75 41.8 320.75 42.73 265.06 77.5"/><polygon points="264.75 75.79 320.75 40.83 320.75 41.8 264.75 76.76 264.75 75.79"/><polygon points="264.75 74.82 320.75 39.86 320.75 40.83 264.75 75.79 264.75 74.82"/><polygon points="264.75 73.85 320.39 39.11 320.75 39.71 320.75 39.86 264.75 74.82 264.75 73.85"/><polygon points="264.75 72.87 319.95 38.42 320.39 39.11 264.75 73.85 264.75 72.87"/><polygon points="264.75 71.9 319.51 37.72 319.95 38.42 264.75 72.87 264.75 71.9"/><polygon points="264.75 70.93 319.07 37.02 319.51 37.72 264.75 71.9 264.75 70.93"/><polygon points="264.75 69.96 318.64 36.32 319.07 37.02 264.75 70.93 264.75 69.96"/><polygon points="264.75 68.99 318.2 35.63 318.64 36.32 264.75 69.96 264.75 68.99"/><polygon points="264.75 68.02 317.76 34.93 318.2 35.63 264.75 68.99 264.75 68.02"/><polygon points="264.75 67.05 317.32 34.23 317.76 34.93 264.75 68.02 264.75 67.05"/><polygon points="264.75 66.08 316.89 33.53 317.32 34.23 264.75 67.05 264.75 66.08"/><polygon points="264.75 65.1 316.45 32.83 316.89 33.53 264.75 66.08 264.75 65.1"/><polygon points="264.75 64.13 316.01 32.13 316.45 32.83 264.75 65.1 264.75 64.13"/><polygon points="264.75 63.16 315.57 31.43 316.01 32.13 264.75 64.13 264.75 63.16"/><polygon points="264.75 62.19 315.14 30.73 315.57 31.43 264.75 63.16 264.75 62.19"/><polygon points="264.75 61.22 314.7 30.04 315.14 30.73 264.75 62.19 264.75 61.22"/><polygon points="264.75 60.24 314.26 29.34 314.7 30.04 264.75 61.22 264.75 60.24"/><polygon points="264.75 59.27 313.82 28.64 314.26 29.34 264.75 60.24 264.75 59.27"/><polygon points="264.75 58.3 313.39 27.94 313.82 28.64 264.75 59.27 264.75 58.3"/><polygon points="264.75 57.33 312.95 27.24 313.39 27.94 264.75 58.3 264.75 57.33"/><polygon points="264.75 56.36 312.51 26.54 312.95 27.24 264.75 57.33 264.75 56.36"/><polygon points="264.75 55.38 312.07 25.84 312.51 26.54 264.75 56.36 264.75 55.38"/><polygon points="264.75 54.41 311.64 25.14 312.07 25.84 264.75 55.38 264.75 54.41"/><polygon points="264.75 53.44 311.2 24.45 311.64 25.14 264.75 54.41 264.75 53.44"/><polygon points="264.75 52.47 310.76 23.75 311.2 24.45 264.75 53.44 264.75 52.47"/><polygon points="264.75 51.5 310.32 23.05 310.76 23.75 264.75 52.47 264.75 51.5"/><polygon points="264.75 50.52 309.89 22.35 310.32 23.05 264.75 51.5 264.75 50.52"/><polygon points="264.75 49.56 309.45 21.65 309.89 22.35 264.75 50.52 264.75 49.56"/><polygon points="264.75 48.59 309.01 20.95 309.45 21.65 264.75 49.56 264.75 48.59"/><polygon points="264.75 47.61 308.58 20.25 309.01 20.95 264.75 48.59 264.75 47.61"/><polygon points="264.75 46.64 308.14 19.55 308.58 20.25 264.75 47.61 264.75 46.64"/><polygon points="264.75 45.67 307.38 19.06 307.83 19.06 308.14 19.55 264.75 46.64 264.75 45.67"/><polygon points="264.75 44.7 305.82 19.06 307.38 19.06 264.75 45.67 264.75 44.7"/><polygon points="264.75 43.73 304.26 19.06 305.82 19.06 264.75 44.7 264.75 43.73"/><polygon points="264.75 42.75 302.71 19.06 304.26 19.06 264.75 43.73 264.75 42.75"/><polygon points="264.75 41.78 301.15 19.06 302.71 19.06 264.75 42.75 264.75 41.78"/><polygon points="264.75 40.81 299.59 19.06 301.15 19.06 264.75 41.78 264.75 40.81"/><polygon points="264.75 39.84 298.04 19.06 299.59 19.06 264.75 40.81 264.75 39.84"/><polygon points="264.75 38.87 296.48 19.06 298.04 19.06 264.75 39.84 264.75 38.87"/><polygon points="264.75 37.89 294.93 19.06 296.48 19.06 264.75 38.87 264.75 37.89"/><polygon points="264.75 36.92 293.37 19.06 294.93 19.06 264.75 37.89 264.75 36.92"/><polygon points="264.75 35.95 291.81 19.06 293.37 19.06 264.75 36.92 264.75 35.95"/><polygon points="264.75 34.98 290.26 19.06 291.81 19.06 264.75 35.95 264.75 34.98"/><polygon points="264.75 34.01 288.7 19.06 290.26 19.06 264.75 34.98 264.75 34.01"/><polygon points="264.75 33.03 287.14 19.06 288.7 19.06 264.75 34.01 264.75 33.03"/><polygon points="264.75 32.06 285.59 19.06 287.14 19.06 264.75 33.03 264.75 32.06"/><polygon points="264.75 31.09 284.03 19.06 285.59 19.06 264.75 32.06 264.75 31.09"/><polygon points="264.75 30.12 282.48 19.06 284.03 19.06 264.75 31.09 264.75 30.12"/><polygon points="264.75 29.15 280.92 19.06 282.48 19.06 264.75 30.12 264.75 29.15"/><polygon points="264.75 28.18 279.36 19.06 280.92 19.06 264.75 29.15 264.75 28.18"/><polygon points="264.75 27.21 277.81 19.06 279.36 19.06 264.75 28.18 264.75 27.21"/><polygon points="264.75 26.24 276.25 19.06 277.81 19.06 264.75 27.21 264.75 26.24"/><polygon points="264.75 25.26 274.69 19.06 276.25 19.06 264.75 26.24 264.75 25.26"/><polygon points="274.69 19.06 264.75 25.26 264.75 19.06 274.69 19.06"/></g></svg>