<svg id="Layer_1" data-name="Layer 1" xmlns="http://www.w3.org/2000/svg" viewBox="0 0 533 118.26"><defs><style>.cls-1{fill:#fff;}.cls-2,.cls-3{fill:#29ccc4;}.cls-2{stroke:#29ccc4;stroke-miterlimit:10;}.cls-4{fill:#036f7d;}.cls-5{fill:#299197;}</style></defs><title>powered by zilliqa logo</title><rect class="cls-1" y="1.13" width="533" height="116" rx="20" ry="20"/><path class="cls-2" d="M36.13,49.23H43.9c5.44,0,8.8,2.34,8.8,7.13s-3.36,7.18-8.8,7.18h-5V76H36.13Zm2.72,11.82h4.38c4.86,0,6.53-2.12,6.53-4.69s-1.67-4.64-6.53-4.64H38.85Z"/><path class="cls-2" d="M65.35,76.41a9.29,9.29,0,1,1,0-18.57,9.29,9.29,0,1,1,0,18.57Zm0-16.31c-4.08,0-6.64,3.06-6.64,7s2.56,7,6.64,7,6.68-3,6.68-7S69.47,60.1,65.35,60.1Z"/><path class="cls-2" d="M80,58.29l4.08,14.34h.07l4.72-14.34h2.57L96.2,72.63h.07l4.08-14.34h2.94L97.71,76h-2.8l-4.68-14.5h-.07L85.48,76h-2.8L77.09,58.29Z"/><path class="cls-2" d="M108.28,67.8a6.63,6.63,0,0,0,6.49,6.34,6.7,6.7,0,0,0,5.67-3l1.92,1.58a9.22,9.22,0,0,1-7.59,3.74,9,9,0,0,1-9.13-9.29,8.92,8.92,0,0,1,8.91-9.28c5.36,0,8.45,4,8.45,8.83V67.8Zm12-2a5.33,5.33,0,0,0-5.74-5.66c-3.25,0-6.19,2.76-6.19,5.66Z"/><path class="cls-2" d="M127.8,63.8c0-1.58-.07-2.94-.15-5.51h2.46v3.28h.07a5.82,5.82,0,0,1,5.66-3.73,6.75,6.75,0,0,1,1.85.22l-.49,2.46a4,4,0,0,0-1.43-.19A5.53,5.53,0,0,0,130.29,66V76H127.8Z"/><path class="cls-2" d="M141.13,67.8a6.63,6.63,0,0,0,6.49,6.34,6.71,6.71,0,0,0,5.67-3l1.92,1.58a9.23,9.23,0,0,1-7.59,3.74,9,9,0,0,1-9.13-9.29,8.92,8.92,0,0,1,8.91-9.28c5.36,0,8.45,4,8.45,8.83V67.8Zm12-2a5.33,5.33,0,0,0-5.73-5.66c-3.25,0-6.19,2.76-6.19,5.66Z"/><path class="cls-2" d="M178,76h-2.49V73h-.08a8.43,8.43,0,0,1-6.87,3.4,9.29,9.29,0,1,1,0-18.57,8.45,8.45,0,0,1,6.87,3.39h.08V47.42H178Zm-9.44-1.82a7,7,0,1,0,0-14c-4.12,0-6.68,3.06-6.68,7S164.46,74.14,168.58,74.14Z"/><path class="cls-2" d="M194,47.42h2.49V61.23h.08a8.45,8.45,0,0,1,6.87-3.39,9.29,9.29,0,1,1,0,18.57,8.43,8.43,0,0,1-6.87-3.4h-.08V76H194Zm9.44,12.68a7,7,0,1,0,0,14c4.12,0,6.68-3,6.68-7S207.51,60.1,203.39,60.1Z"/><path class="cls-2" d="M223.59,72.9,229,58.29h3l-8.83,22.27c-1.06,2.72-2.5,4.46-5.55,4.46a7.93,7.93,0,0,1-2.31-.27l.27-2.41a4,4,0,0,0,1.89.41c1.73,0,2.64-1.17,3.39-3.17l1.29-3.4-7.25-17.89H218Z"/><path class="cls-3" d="M356.79,69.47l15.1-16.28H357.58V47.61h22.73v6.17L365.12,70h16v5.69H356.89V69.47Z"/><path class="cls-3" d="M383.45,38.09a4.34,4.34,0,0,1,4.41-4.21,4.91,4.91,0,0,1,3.24,1.17,4.07,4.07,0,0,1,.19,5.79l-.19.2a4.44,4.44,0,0,1-3.24,1.17,4.16,4.16,0,0,1-3.14-1.27A3.55,3.55,0,0,1,383.45,38.09Zm1,9.52h7v28h-7Z"/><path class="cls-3" d="M397.17,31.43h7V75.65h-7Z"/><path class="cls-3" d="M409.91,31.43h7V75.65h-7Z"/><path class="cls-3" d="M421.67,38.09a4.36,4.36,0,0,1,4.42-4.21,4.88,4.88,0,0,1,3.23,1.17,4.07,4.07,0,0,1,.2,5.79l-.2.2a4.42,4.42,0,0,1-3.23,1.17A4.14,4.14,0,0,1,423,40.94,3.56,3.56,0,0,1,421.67,38.09Zm1,9.52h7v28h-7Z"/><path class="cls-3" d="M463.82,89.67h-7.06V71.92h-.1a8.89,8.89,0,0,1-3.82,3.33,11.44,11.44,0,0,1-5.49,1.18,14.76,14.76,0,0,1-5.78-1.18A12.67,12.67,0,0,1,437.26,72a15.13,15.13,0,0,1-2.75-4.71,17.56,17.56,0,0,1,0-11.57,13.34,13.34,0,0,1,12.65-8.92,13.37,13.37,0,0,1,3.43.39,13.59,13.59,0,0,1,2.74,1.08,6.28,6.28,0,0,1,2.06,1.57,11.08,11.08,0,0,1,1.37,1.67h.2V47.6h6.76ZM440.69,61.53a11.47,11.47,0,0,0,.49,3.23,8.26,8.26,0,0,0,1.47,2.95,9.15,9.15,0,0,0,2.55,2.15,7.88,7.88,0,0,0,7,0,7.23,7.23,0,0,0,2.54-2.06,10.66,10.66,0,0,0,1.67-2.94,9.48,9.48,0,0,0,.59-3.23,9.08,9.08,0,0,0-.59-3.24,8.62,8.62,0,0,0-1.67-2.94,9,9,0,0,0-2.54-2.16,6.08,6.08,0,0,0-3.43-.78,7.15,7.15,0,0,0-3.53.78,7.47,7.47,0,0,0-2.55,2.06,8.14,8.14,0,0,0-1.47,2.94,11.54,11.54,0,0,0-.49,3.24Z"/><path class="cls-3" d="M486.66,72.12h-.2a6.92,6.92,0,0,1-3.43,3,11,11,0,0,1-5.29,1.17,21.07,21.07,0,0,1-3.53-.39,11.48,11.48,0,0,1-3.43-1.47,7.35,7.35,0,0,1-2.55-2.65,7.46,7.46,0,0,1-1-4.11,7.16,7.16,0,0,1,1.76-5,11.92,11.92,0,0,1,4.61-2.84,22.63,22.63,0,0,1,6.27-1.27c2.26-.2,4.51-.3,6.67-.3v-.68a4.41,4.41,0,0,0-1.86-3.93,8.31,8.31,0,0,0-4.51-1.27,11.1,11.1,0,0,0-4.32,1,11.49,11.49,0,0,0-3.43,2.26l-3.62-4.22a15,15,0,0,1,5.49-3.33A20,20,0,0,1,480.68,47a14.8,14.8,0,0,1,6.17,1.08,10.36,10.36,0,0,1,3.82,2.74,10.75,10.75,0,0,1,2,3.82,14.89,14.89,0,0,1,.59,4.22V75.94h-6.56Zm-.1-9.22H485a20.91,20.91,0,0,0-3.53.2,13.13,13.13,0,0,0-3.43.68,8.69,8.69,0,0,0-2.65,1.38,3.33,3.33,0,0,0-1.07,2.45,2.5,2.5,0,0,0,.49,1.66A3,3,0,0,0,476,70.35a4.26,4.26,0,0,0,1.57.59,10.66,10.66,0,0,0,1.77.2,6.66,6.66,0,0,0,7.35-7.26Z"/><polygon class="cls-3" points="309.24 56.29 277.71 71.8 309.24 86.75 309.24 98.81 263.31 77.03 263.29 65.15 295.24 49.45 263.31 34.31 263.31 22.25 309.24 44.03 309.24 56.29"/><polygon class="cls-4" points="263.31 22.25 275.45 17.33 321.38 39.11 309.24 44.03 263.31 22.25"/><polygon class="cls-5" points="309.24 56.29 321.38 51.37 321.38 39.11 309.24 44.03 309.24 56.29"/><polygon class="cls-5" points="309.24 86.75 309.24 62.65 321.38 57.07 321.38 93.89 309.24 98.81 309.24 86.75"/></svg>