<svg id="Layer_1" data-name="Layer 1" xmlns="http://www.w3.org/2000/svg" viewBox="0 0 380.51 171.44"><defs><style>.cls-1{fill:#242828;}.cls-2{fill:#50bbbb;}.cls-3{fill:#1a7b80;}.cls-4{fill:#2a9097;}.cls-5{fill:#29ccc4;}</style></defs><title>powered by zilliqa logo</title><rect class="cls-1" width="380.51" height="171.44" rx="20" ry="20"/><polygon class="cls-2" points="102.33 83.07 55.15 106.26 102.33 128.63 102.33 146.68 33.68 114.1 33.59 96.38 81.35 72.86 33.68 50.16 33.68 32.19 102.33 64.69 102.33 83.07"/><polygon class="cls-3" points="33.68 32.19 51.8 24.76 120.45 57.34 102.33 64.69 33.68 32.19"/><polygon class="cls-4" points="102.33 83.07 120.45 75.72 120.45 57.34 102.33 64.69 102.33 83.07"/><polygon class="cls-4" points="102.33 128.63 102.33 92.62 120.45 84.21 120.45 139.33 102.33 146.68 102.33 128.63"/><path class="cls-5" d="M169.6,38.41h6.51c4.55,0,7.36,2,7.36,6s-2.81,6-7.36,6h-4.24v10.4H169.6Zm2.27,9.89h3.67c4.08,0,5.47-1.77,5.47-3.91s-1.39-3.89-5.47-3.89h-3.67Z"/><path class="cls-5" d="M194.07,61.17a7.78,7.78,0,1,1,7.87-7.78A7.55,7.55,0,0,1,194.07,61.17Zm0-13.66c-3.42,0-5.57,2.56-5.57,5.88s2.15,5.88,5.57,5.88,5.59-2.56,5.59-5.88S197.51,47.51,194.07,47.51Z"/><path class="cls-5" d="M206.36,46l3.42,12h.06l3.95-12h2.15l3.95,12H220l3.42-12h2.46l-4.67,14.79h-2.34L214.9,48.65h-.07l-3.91,12.14h-2.34L203.9,46Z"/><path class="cls-5" d="M230,54a5.52,5.52,0,0,0,10.18,2.75L241.8,58a7.72,7.72,0,0,1-6.35,3.13,7.51,7.51,0,0,1-7.65-7.78,7.47,7.47,0,0,1,7.46-7.77c4.48,0,7.08,3.35,7.08,7.39v1Zm10.05-1.7a4.47,4.47,0,0,0-4.8-4.75c-2.72,0-5.19,2.31-5.19,4.75Z"/><path class="cls-5" d="M246.35,50.61c0-1.33-.06-2.46-.12-4.61h2.05v2.75h.06a4.87,4.87,0,0,1,4.74-3.13,5.48,5.48,0,0,1,1.55.19l-.41,2a3.61,3.61,0,0,0-1.2-.16,4.63,4.63,0,0,0-4.58,4.75v8.34h-2.09Z"/><path class="cls-5" d="M257.51,54a5.52,5.52,0,0,0,10.18,2.75L269.3,58A7.72,7.72,0,0,1,263,61.17a7.51,7.51,0,0,1-7.65-7.78,7.47,7.47,0,0,1,7.46-7.77c4.49,0,7.08,3.35,7.08,7.39v1Zm10.05-1.7a4.47,4.47,0,0,0-4.8-4.75c-2.72,0-5.19,2.31-5.19,4.75Z"/><path class="cls-5" d="M288.39,60.79h-2.08V58.32h-.07a7.06,7.06,0,0,1-5.75,2.85,7.78,7.78,0,1,1,0-15.55,7,7,0,0,1,5.75,2.84h.07V36.89h2.08Zm-7.9-1.52a5.88,5.88,0,1,0,0-11.76c-3.44,0-5.59,2.56-5.59,5.88S277.05,59.27,280.49,59.27Z"/><path class="cls-5" d="M301.74,36.89h2.08V48.46h.07a7,7,0,0,1,5.75-2.84,7.78,7.78,0,1,1,0,15.55,7.06,7.06,0,0,1-5.75-2.85h-.07v2.47h-2.08Zm7.9,10.62a5.88,5.88,0,1,0,0,11.76c3.44,0,5.59-2.56,5.59-5.88S313.08,47.51,309.64,47.51Z"/><path class="cls-5" d="M326.55,58.23,331.07,46h2.53l-7.4,18.64c-.88,2.28-2.08,3.73-4.64,3.73a6.66,6.66,0,0,1-1.93-.22l.22-2a3.33,3.33,0,0,0,1.58.35c1.45,0,2.21-1,2.84-2.66L325.35,61l-6.07-15h2.62Z"/><path class="cls-2" d="M169.6,119.59l17.31-18.67H170.5V94.51h26.07v7.09l-17.42,18.55h18.32v6.52H169.71v-7.08Z"/><path class="cls-2" d="M200.17,83.61a5,5,0,0,1,5.06-4.84,5.58,5.58,0,0,1,3.71,1.35,4.65,4.65,0,0,1,.22,6.63l-.22.23a5.08,5.08,0,0,1-3.71,1.35,4.76,4.76,0,0,1-3.6-1.46A4.07,4.07,0,0,1,200.17,83.61Zm1.13,10.9h8v32.16h-8Z"/><path class="cls-2" d="M215.91,76h8v50.71h-8Z"/><path class="cls-2" d="M230.52,76h8v50.71h-8Z"/><path class="cls-2" d="M244,83.61a5,5,0,0,1,5.05-4.84,5.58,5.58,0,0,1,3.71,1.35,4.65,4.65,0,0,1,.23,6.63l-.23.23a5.08,5.08,0,0,1-3.71,1.35,4.75,4.75,0,0,1-3.59-1.46A4.07,4.07,0,0,1,244,83.61Zm1.12,10.9h8v32.16h-8Z"/><path class="cls-2" d="M292.34,142.75h-8.1V122.4h-.11a10.28,10.28,0,0,1-4.38,3.82,13.26,13.26,0,0,1-6.3,1.35,17.09,17.09,0,0,1-6.63-1.35,14.75,14.75,0,0,1-4.94-3.71,17.2,17.2,0,0,1-3.15-5.4,20.18,20.18,0,0,1,0-13.26,15.25,15.25,0,0,1,14.5-10.24,14.1,14.1,0,0,1,7.08,1.69,7.24,7.24,0,0,1,2.36,1.8A13.19,13.19,0,0,1,284.24,99h.23v-4.5h7.75Zm-26.53-32.27a13.69,13.69,0,0,0,.56,3.71,9.47,9.47,0,0,0,1.69,3.37A10.44,10.44,0,0,0,271,120a9.09,9.09,0,0,0,8,0,8.46,8.46,0,0,0,2.92-2.36,12.24,12.24,0,0,0,1.91-3.38,10.75,10.75,0,0,0,.68-3.71,10.38,10.38,0,0,0-.68-3.71,9.83,9.83,0,0,0-1.91-3.37A10.32,10.32,0,0,0,279,101a6.94,6.94,0,0,0-3.93-.89,8.3,8.3,0,0,0-4,.89,8.56,8.56,0,0,0-2.92,2.37,9.47,9.47,0,0,0-1.69,3.37,13.69,13.69,0,0,0-.56,3.71Z"/><path class="cls-2" d="M318.53,122.62h-.23a8,8,0,0,1-3.93,3.49,12.66,12.66,0,0,1-6.07,1.35,25.35,25.35,0,0,1-4.05-.45,13.32,13.32,0,0,1-3.93-1.69,8.49,8.49,0,0,1-2.93-3,8.76,8.76,0,0,1-1.12-4.73,8.21,8.21,0,0,1,2-5.73,13.5,13.5,0,0,1,5.29-3.26,26.2,26.2,0,0,1,7.19-1.46c2.59-.23,5.17-.34,7.64-.34V106a5,5,0,0,0-2.13-4.5,9.52,9.52,0,0,0-5.17-1.46,12.63,12.63,0,0,0-4.95,1.13,13.2,13.2,0,0,0-3.93,2.58l-4.16-4.83a17.1,17.1,0,0,1,6.29-3.82,23.13,23.13,0,0,1,7.31-1.24,17.18,17.18,0,0,1,7.08,1.24,12,12,0,0,1,4.38,3.14,12.37,12.37,0,0,1,2.25,4.39,17.29,17.29,0,0,1,.68,4.83V127h-7.53Zm-.12-10.57h-1.8a23.87,23.87,0,0,0-4,.23,15.23,15.23,0,0,0-3.94.79,9.71,9.71,0,0,0-3,1.57,3.82,3.82,0,0,0-1.24,2.81,2.93,2.93,0,0,0,.57,1.91,3.56,3.56,0,0,0,1.34,1.24,5,5,0,0,0,1.8.67,11.69,11.69,0,0,0,2,.23,7.63,7.63,0,0,0,8.43-8.32Z"/></svg>